<?xml version="1.0" standalone="no"?>
<!DOCTYPE svg PUBLIC "-//W3C//DTD SVG 1.1//EN" "http://www.w3.org/Graphics/SVG/1.1/DTD/svg11.dtd" >
<svg xmlns="http://www.w3.org/2000/svg" xmlns:xlink="http://www.w3.org/1999/xlink" version="1.1">
<metadata>
Created by FontForge 20201107 at Sun Feb  7 07:59:35 2021
 By Jimmy Wärting
\(c\)2020 Typekiln.
</metadata>
<defs>
<font id="EloquiaText-SemiBold" horiz-adv-x="662" >
  <font-face 
    font-family="Eloquia Text"
    font-weight="600"
    font-stretch="normal"
    units-per-em="1000"
    panose-1="0 0 0 0 0 0 0 0 0 0"
    ascent="800"
    descent="-200"
    x-height="528"
    cap-height="700"
    bbox="-222 -230 1156 943"
    underline-thickness="84"
    underline-position="-180"
    stemh="103"
    stemv="139"
    unicode-range="U+000D-FB04"
  />
<missing-glyph horiz-adv-x="494" 
d="M45 -72v844h404v-844h-404zM117 700v-37h186v-19h-44v-37h118v37h-37v19h37v37h-260zM117 644v-93h260v38h-135v55h-125zM154 607h51v-18h-51v18zM340 534v-111h-223v-37h260v148h-37zM117 534v-38h112v-18h-112v-38h150v56h17v-56h38v94h-205zM256 369v-38h84v-18h-186
v18h84v38h-121v-94h260v38l-13 18l13 19v19h-121zM117 203v-93h260v93h-260zM154 166h186v-19h-186v19zM117 93v-93h260v37h-223v19h223v37h-260z" />
    <glyph glyph-name="f_f" unicode="ff" horiz-adv-x="685" 
d="M638 528v-98h-95v-430h-129v430h-184v-430h-130v430h-72v98h72v44c0 115 49 164 163 164c29 0 55 -3 66 -6v-100c-7 1 -23 4 -38 4c-46 0 -65 -22 -65 -63v-43h188v44c0 115 48 164 163 164c28 0 55 -3 65 -6v-100c-6 1 -22 4 -37 4c-46 0 -65 -22 -65 -63v-43h98z" />
    <glyph glyph-name="fi" unicode="fi" horiz-adv-x="614" 
d="M480 589c-44 0 -77 32 -77 75c0 42 33 74 77 74c43 0 77 -32 77 -74c0 -43 -34 -75 -77 -75zM543 0h-129v430h-184v-430h-130v430h-72v98h72v44c0 115 49 164 163 164c29 0 55 -3 66 -6v-100c-7 1 -23 4 -38 4c-46 0 -65 -22 -65 -63v-43h317v-528z" />
    <glyph glyph-name="fl" unicode="fl" horiz-adv-x="609" 
d="M323 528v-98h-95v-430h-130v430h-72v98h72v44c0 115 49 164 163 164c29 0 55 -3 66 -6v-100c-6 1 -23 4 -37 4c-46 0 -65 -22 -65 -63v-43h98zM542 0h-130v730h130v-730z" />
    <glyph glyph-name="f_f_i" unicode="ffi" horiz-adv-x="927" 
d="M793 589c-43 0 -77 32 -77 75c0 42 34 74 77 74c44 0 77 -32 77 -74c0 -43 -33 -75 -77 -75zM857 0h-130v430h-184v-430h-129v430h-184v-430h-130v430h-72v98h72v44c0 115 49 164 163 164c29 0 55 -3 66 -6v-100c-7 1 -23 4 -38 4c-46 0 -65 -22 -65 -63v-43h188v44
c0 115 48 164 163 164c28 0 55 -3 65 -6v-100c-6 1 -22 4 -37 4c-46 0 -65 -22 -65 -63v-43h317v-528z" />
    <glyph glyph-name="f_f_l" unicode="ffl" horiz-adv-x="922" 
d="M637 528v-98h-95v-430h-130v430h-184v-430h-130v430h-72v98h72v44c0 115 49 164 163 164c29 0 55 -3 66 -6v-100c-6 1 -23 4 -37 4c-46 0 -65 -22 -65 -63v-43h187v44c0 115 49 164 163 164c29 0 55 -3 66 -6v-100c-7 1 -23 4 -38 4c-46 0 -65 -22 -65 -63v-43h99zM855 0
h-129v730h129v-730z" />
    <glyph glyph-name=".notdef" horiz-adv-x="494" 
d="M45 -72v844h404v-844h-404zM117 700v-37h186v-19h-44v-37h118v37h-37v19h37v37h-260zM117 644v-93h260v38h-135v55h-125zM154 607h51v-18h-51v18zM340 534v-111h-223v-37h260v148h-37zM117 534v-38h112v-18h-112v-38h150v56h17v-56h38v94h-205zM256 369v-38h84v-18h-186
v18h84v38h-121v-94h260v38l-13 18l13 19v19h-121zM117 203v-93h260v93h-260zM154 166h186v-19h-186v19zM117 93v-93h260v37h-223v19h223v37h-260z" />
    <glyph glyph-name="uni0000" horiz-adv-x="0" 
 />
    <glyph glyph-name="uni0000" horiz-adv-x="0" 
 />
    <glyph glyph-name="uni000D" unicode="&#xd;" horiz-adv-x="250" 
 />
    <glyph glyph-name="space" unicode=" " horiz-adv-x="248" 
 />
    <glyph glyph-name="a" unicode="a" horiz-adv-x="574" 
d="M296 539c141 0 214 -70 214 -203v-336h-114l-10 70c-30 -52 -86 -80 -161 -80c-112 0 -182 60 -182 153c0 117 110 175 338 175v10c0 81 -29 113 -94 113c-57 0 -97 -27 -100 -71h-123c5 101 98 169 232 169zM382 198v39c-138 0 -210 -31 -210 -87c0 -41 34 -67 87 -67
c76 0 123 44 123 115z" />
    <glyph glyph-name="b" unicode="b" horiz-adv-x="638" 
d="M184 0h-117v730h129v-280c36 56 99 89 172 89c133 0 227 -112 227 -275c0 -164 -93 -275 -227 -275c-74 0 -137 33 -174 92zM192 264c0 -104 54 -172 136 -172c81 0 135 68 135 172s-54 172 -135 172c-82 0 -136 -68 -136 -172z" />
    <glyph glyph-name="c" unicode="c" horiz-adv-x="594" 
d="M312 92c59 0 102 35 113 92h127c-13 -119 -108 -195 -244 -195c-158 0 -265 111 -265 275c0 163 107 275 265 275c136 0 231 -76 244 -195h-127c-11 57 -54 92 -113 92c-85 0 -138 -65 -138 -172s53 -172 138 -172z" />
    <glyph glyph-name="e" unicode="e" horiz-adv-x="603" 
d="M560 262v-26h-386c1 -82 52 -148 135 -148c52 0 94 22 114 70h130c-24 -106 -127 -169 -245 -169c-163 0 -265 114 -265 274c0 158 100 276 260 276c165 0 257 -108 257 -277zM176 318h254c-9 82 -52 124 -125 124c-72 0 -120 -45 -129 -124z" />
    <glyph glyph-name="g" unicode="g" horiz-adv-x="629" 
d="M306 -92c80 0 129 43 129 135v74c-34 -53 -94 -87 -166 -87c-135 0 -226 103 -226 255c0 151 92 254 227 254c70 0 132 -32 167 -86l9 75h118v-475c0 -163 -105 -244 -262 -244c-133 0 -232 73 -244 176h129c9 -47 54 -77 119 -77zM440 284c0 93 -53 155 -134 155
c-80 0 -133 -62 -133 -155c0 -94 53 -156 133 -156c81 0 134 63 134 156z" />
    <glyph glyph-name="i" unicode="i" horiz-adv-x="268" 
d="M134 589c-43 0 -77 32 -77 75c0 42 34 74 77 74c44 0 77 -32 77 -74c0 -43 -33 -75 -77 -75zM198 0h-130v528h130v-528z" />
    <glyph glyph-name="j" unicode="j" horiz-adv-x="278" 
d="M144 589c-44 0 -77 32 -77 75c0 42 33 74 77 74s77 -31 77 -74s-33 -75 -77 -75zM78 528h129v-533c0 -120 -65 -175 -205 -175v100c49 0 76 26 76 74v534z" />
    <glyph glyph-name="k" unicode="k" horiz-adv-x="568" 
d="M331 298l223 -298h-153l-163 219l-41 -41v-178h-130v730h130v-418l199 216h150z" />
    <glyph glyph-name="l" unicode="l" horiz-adv-x="264" 
d="M197 0h-130v730h130v-730z" />
    <glyph glyph-name="n" unicode="n" horiz-adv-x="594" 
d="M356 539c109 0 176 -71 176 -188v-351h-130v319c0 73 -36 113 -99 113c-69 0 -109 -49 -109 -135v-297h-129v528h117l10 -75c37 56 92 86 164 86z" />
    <glyph glyph-name="o" unicode="o" horiz-adv-x="620" 
d="M311 539c158 0 266 -112 266 -275s-108 -275 -266 -275c-159 0 -268 112 -268 275s109 275 268 275zM310 92c83 0 136 67 136 172s-53 172 -136 172s-137 -67 -137 -172s54 -172 137 -172z" />
    <glyph glyph-name="s" unicode="s" horiz-adv-x="536" 
d="M180 384c0 -31 25 -48 97 -63l35 -7c130 -27 182 -71 182 -151c0 -108 -85 -174 -222 -174c-134 0 -222 66 -231 170h127c2 -43 46 -74 108 -74c53 0 89 28 89 65c0 33 -24 49 -102 66l-33 6c-121 26 -175 73 -175 152c0 98 84 165 209 165s208 -62 215 -159h-120
c-5 40 -42 65 -95 65c-50 0 -84 -25 -84 -61z" />
    <glyph glyph-name="t" unicode="t" horiz-adv-x="366" 
d="M314 430h-96v-277c0 -42 21 -57 61 -57c18 0 35 2 40 4v-100c-13 -3 -42 -8 -70 -8c-112 0 -160 45 -160 158v280h-63v98h63v124h126v-124h99v-98z" />
    <glyph glyph-name="v" unicode="v" horiz-adv-x="570" 
d="M408 528h137l-197 -528h-126l-198 528h137l124 -379z" />
    <glyph glyph-name="x" unicode="x" horiz-adv-x="572" 
d="M356 272l190 -272h-148l-112 179l-112 -179h-148l189 272l-181 256h147l105 -167l105 167h147z" />
    <glyph glyph-name="y" unicode="y" horiz-adv-x="568" 
d="M407 528h137l-264 -708h-136l82 201l-202 507h137l128 -362z" />
    <glyph glyph-name="z" unicode="z" horiz-adv-x="535" 
d="M221 105h262v-105h-435v65l261 358h-241v105h414v-65z" />
    <glyph glyph-name="d" unicode="d" horiz-adv-x="639" 
d="M572 0h-117l-10 81c-37 -59 -100 -92 -174 -92c-134 0 -227 111 -227 275c0 163 94 275 227 275c73 0 136 -33 172 -89v280h129v-730zM447 264c0 104 -54 172 -136 172c-81 0 -135 -68 -135 -172s54 -172 135 -172c82 0 136 68 136 172z" />
    <glyph glyph-name="h" unicode="h" horiz-adv-x="596" 
d="M359 539c109 0 175 -72 175 -188v-351h-129v318c0 74 -36 113 -99 113c-69 0 -109 -49 -109 -134v-297h-130v730h130v-277c34 55 91 86 162 86z" />
    <glyph glyph-name="u" unicode="u" horiz-adv-x="594" 
d="M237 -11c-108 0 -175 71 -175 188v351h130v-318c0 -73 36 -113 99 -113c69 0 109 49 109 135v296h129v-528h-117l-10 75c-37 -56 -93 -86 -165 -86z" />
    <glyph glyph-name="p" unicode="p" horiz-adv-x="639" 
d="M67 -180v708h117l10 -80c38 61 103 91 173 91c143 0 228 -121 228 -275c0 -152 -86 -274 -227 -274c-70 0 -135 31 -172 89v-259h-129zM192 264c0 -104 54 -172 136 -172c81 0 135 69 135 172c0 104 -54 173 -135 173c-82 0 -136 -69 -136 -173z" />
    <glyph glyph-name="f" unicode="f" horiz-adv-x="372" 
d="M325 528v-98h-95v-430h-130v430h-72v98h72v44c0 115 49 164 163 164c29 0 55 -3 66 -6v-100c-7 1 -23 4 -38 4c-46 0 -65 -22 -65 -63v-43h99z" />
    <glyph glyph-name="r" unicode="r" horiz-adv-x="383" 
d="M355 533v-116c-10 3 -23 5 -39 5c-78 0 -123 -56 -123 -153v-269h-130v528h118l10 -76c22 52 70 86 122 86c16 0 30 -2 42 -5z" />
    <glyph glyph-name="w" unicode="w" horiz-adv-x="827" 
d="M25 528h133l101 -374l106 374h97l106 -374l101 374h132l-161 -528h-127l-100 341l-99 -341h-127z" />
    <glyph glyph-name="y.alt" horiz-adv-x="556" 
d="M394 528h138l-214 -588c-36 -99 -88 -126 -217 -126v105c55 0 79 19 105 88l12 32l-194 489h139l119 -363z" />
    <glyph glyph-name="m" unicode="m" horiz-adv-x="888" 
d="M65 528h116l10 -75c31 54 87 86 155 86s119 -33 144 -93c35 61 92 93 167 93c101 0 165 -73 166 -188l3 -351h-128v332c0 64 -31 100 -86 100c-63 0 -102 -47 -102 -120v-312h-128v332c0 64 -31 100 -87 100c-63 0 -102 -50 -102 -129v-303h-128v528z" />
    <glyph glyph-name="A" unicode="A" horiz-adv-x="708" 
d="M429 700l252 -700h-139l-49 145h-278l-49 -145h-139l253 700h149zM246 248h217l-109 323z" />
    <glyph glyph-name="B" unicode="B" horiz-adv-x="658" 
d="M474 374c84 -18 143 -89 143 -175c0 -116 -91 -199 -216 -199h-326v700h312c114 0 196 -73 196 -177c0 -72 -40 -126 -109 -149zM214 598v-187h132c55 0 96 40 96 95c0 54 -40 92 -96 92h-132zM357 102c68 0 119 44 119 105c0 72 -48 114 -128 114h-134v-219h143z" />
    <glyph glyph-name="C" unicode="C" horiz-adv-x="757" 
d="M388 103c93 0 161 52 178 137h142c-27 -155 -149 -251 -321 -251c-200 0 -335 145 -335 361c0 217 135 361 335 361c171 0 301 -103 317 -251h-141c-16 82 -87 137 -176 137c-116 0 -193 -98 -193 -246c0 -150 77 -248 194 -248z" />
    <glyph glyph-name="D" unicode="D" horiz-adv-x="730" 
d="M324 700c234 0 355 -122 355 -350c0 -220 -131 -350 -355 -350h-249v700h249zM313 111c142 0 223 83 223 240c0 162 -73 238 -223 238h-99v-478h99z" />
    <glyph glyph-name="E" unicode="E" horiz-adv-x="605" 
d="M543 589h-329v-181h289v-108h-289v-189h329v-111h-468v700h468v-111z" />
    <glyph glyph-name="F" unicode="F" horiz-adv-x="575" 
d="M531 589h-317v-201h277v-108h-277v-280h-139v700h456v-111z" />
    <glyph glyph-name="G" unicode="G" horiz-adv-x="790" 
d="M733 379c1 -22 2 -48 2 -70c0 -201 -119 -320 -321 -320c-214 0 -348 138 -348 361c0 220 133 361 339 361c167 0 295 -92 321 -232h-140c-22 75 -90 122 -177 122c-125 0 -204 -94 -204 -247c0 -156 82 -255 211 -255c109 0 182 67 185 167v14h-176v99h308z" />
    <glyph glyph-name="H" unicode="H" horiz-adv-x="754" 
d="M540 700h138v-700h-138v298h-326v-298h-139v700h139v-290h326v290z" />
    <glyph glyph-name="I" unicode="I" horiz-adv-x="289" 
d="M214 0h-139v700h139v-700z" />
    <glyph glyph-name="J" unicode="J" horiz-adv-x="568" 
d="M354 700h138v-490c0 -137 -86 -221 -227 -221c-139 0 -228 80 -234 209h136c2 -62 38 -97 95 -97c61 0 92 37 92 108v491z" />
    <glyph glyph-name="K" unicode="K" horiz-adv-x="684" 
d="M379 385l283 -385h-168l-210 286l-70 -83v-203h-139v700h139v-318l260 318h164z" />
    <glyph glyph-name="M" unicode="M" horiz-adv-x="876" 
d="M627 700h174v-700h-135v495l-193 -485h-70l-193 485v-495h-135v700h174l189 -474z" />
    <glyph glyph-name="N" unicode="N" horiz-adv-x="740" 
d="M530 700h135v-700h-147l-308 482v-482h-135v700h147l308 -483v483z" />
    <glyph glyph-name="O" unicode="O" horiz-adv-x="804" 
d="M402 711c208 0 350 -146 350 -361s-142 -361 -350 -361s-350 146 -350 361s142 361 350 361zM402 103c127 0 208 96 208 247s-81 247 -208 247s-208 -96 -208 -247s81 -247 208 -247z" />
    <glyph glyph-name="P" unicode="P" horiz-adv-x="631" 
d="M349 700c141 0 238 -97 238 -237s-97 -237 -238 -237h-135v-226h-139v700h274zM324 337c73 0 122 51 122 126s-49 126 -122 126h-110v-252h110z" />
    <glyph glyph-name="R" unicode="R" horiz-adv-x="650" 
d="M75 0v700h284c141 0 238 -94 238 -230c0 -95 -49 -169 -129 -204l149 -266h-153l-124 242h-126v-242h-139zM334 353c73 0 122 48 122 118s-49 118 -122 118h-121v-236h121z" />
    <glyph glyph-name="S" unicode="S" horiz-adv-x="650" 
d="M200 512c0 -47 38 -74 137 -96l45 -10c160 -36 221 -90 221 -201c0 -128 -105 -216 -272 -216c-163 0 -273 85 -284 225h137c6 -69 67 -116 150 -116c78 0 132 41 132 97c0 50 -37 76 -134 98l-41 9c-156 33 -225 95 -225 197c0 125 104 212 256 212
c148 0 253 -83 262 -207h-131c-8 60 -60 100 -134 100c-69 0 -119 -38 -119 -92z" />
    <glyph glyph-name="T" unicode="T" horiz-adv-x="637" 
d="M38 700h561v-111h-211v-589h-139v589h-211v111z" />
    <glyph glyph-name="U" unicode="U" horiz-adv-x="727" 
d="M513 700h139v-440c0 -164 -115 -271 -289 -271c-173 0 -288 107 -288 271v440h139v-436c0 -102 56 -163 149 -163c94 0 150 61 150 163v436z" />
    <glyph glyph-name="V" unicode="V" horiz-adv-x="694" 
d="M529 700h138l-246 -700h-148l-246 700h139l181 -553z" />
    <glyph glyph-name="W" unicode="W" horiz-adv-x="983" 
d="M812 700h136l-178 -700h-141l-137 492l-138 -492h-141l-177 700h135l124 -525l139 515h115l139 -515z" />
    <glyph glyph-name="X" unicode="X" horiz-adv-x="706" 
d="M423 366l247 -366h-153l-164 265l-164 -265h-153l247 366l-227 334h153l144 -234l144 234h153z" />
    <glyph glyph-name="Y" unicode="Y" horiz-adv-x="680" 
d="M504 700h148l-243 -400v-300h-138v300l-243 400h148l164 -293z" />
    <glyph glyph-name="Z" unicode="Z" 
d="M238 111h365v-111h-544v66l355 523h-345v111h524v-66z" />
    <glyph glyph-name="L" unicode="L" horiz-adv-x="570" 
d="M214 111h312v-111h-451v700h139v-589z" />
    <glyph glyph-name="one" unicode="1" horiz-adv-x="453" 
d="M58 444v129l168 127h108v-700h-132v553z" />
    <glyph glyph-name="two" unicode="2" horiz-adv-x="621" 
d="M59 0v84l281 264c61 57 89 97 89 145c0 69 -46 114 -118 114c-70 0 -117 -42 -122 -113h-128c5 129 108 216 256 216c145 0 245 -85 245 -208c0 -72 -36 -135 -109 -205l-198 -187h309v-110h-505z" />
    <glyph glyph-name="three" unicode="3" horiz-adv-x="638" 
d="M54 206h129c2 -65 57 -111 131 -111c76 0 130 47 130 111c0 65 -49 104 -130 104h-83v97h83c65 0 110 44 110 104c0 56 -46 97 -110 97c-65 0 -113 -45 -114 -107h-125c1 122 103 210 242 210c134 0 234 -77 234 -180c0 -82 -51 -147 -130 -166c96 -16 157 -83 157 -172
c0 -119 -109 -204 -264 -204c-150 0 -257 88 -260 217z" />
    <glyph glyph-name="four" unicode="4" 
d="M389 138h-339v83l336 479h134v-455h96v-107h-96v-138h-131v138zM198 245h191v286z" />
    <glyph glyph-name="five" unicode="5" horiz-adv-x="640" 
d="M70 198h128c12 -63 63 -103 129 -103c80 0 135 58 135 136c0 77 -56 136 -133 136c-48 0 -101 -23 -124 -67h-126l41 400h422v-106h-320l-18 -193c39 46 94 65 154 65c137 0 233 -96 233 -232c0 -146 -111 -245 -264 -245c-138 0 -248 79 -257 209z" />
    <glyph glyph-name="six" unicode="6" horiz-adv-x="651" 
d="M338 -11c-179 0 -282 127 -282 351c0 229 109 371 283 371c132 0 232 -76 249 -187h-130c-14 54 -58 84 -116 84c-98 0 -160 -94 -160 -247c31 62 98 105 187 105c133 0 229 -92 229 -231c0 -149 -103 -246 -260 -246zM207 232c0 -80 54 -136 131 -136s131 55 131 135
c0 76 -56 135 -131 135c-76 0 -131 -56 -131 -134z" />
    <glyph glyph-name="seven" unicode="7" horiz-adv-x="575" 
d="M46 700h476v-74l-282 -626h-140l278 590h-332v110z" />
    <glyph glyph-name="eight" unicode="8" horiz-adv-x="649" 
d="M81 529c0 105 103 182 243 182c141 0 244 -77 244 -183c0 -72 -49 -133 -125 -157c92 -24 150 -93 150 -178c0 -120 -110 -204 -269 -204c-158 0 -268 83 -268 203c0 86 58 155 150 179c-76 24 -125 86 -125 158zM439 510c0 60 -48 102 -115 102s-114 -42 -114 -102
c0 -58 46 -98 114 -98s115 40 115 98zM459 204c0 65 -56 112 -135 112c-78 0 -134 -47 -134 -112c0 -66 56 -113 134 -113c79 0 135 47 135 113z" />
    <glyph glyph-name="nine" unicode="9" horiz-adv-x="650" 
d="M312 711c181 0 282 -125 282 -351c0 -229 -105 -371 -283 -371c-132 0 -231 77 -248 187h129c15 -54 59 -84 117 -84c100 0 159 94 159 247c-31 -63 -99 -105 -187 -105c-131 0 -228 93 -228 231c0 149 103 246 259 246zM444 468c0 80 -54 136 -132 136
c-77 0 -130 -56 -130 -135c0 -76 56 -135 131 -135c76 0 131 57 131 134z" />
    <glyph glyph-name="exclam" unicode="!" horiz-adv-x="344" 
d="M115 228l-13 472h138l-14 -472h-111zM101 62c0 41 32 72 74 72s74 -31 74 -72c0 -40 -32 -71 -74 -71s-74 31 -74 71z" />
    <glyph glyph-name="numbersign" unicode="#" horiz-adv-x="729" 
d="M23 155l9 94h140l13 162h-139l9 94h139l14 155h102l-14 -155h165l14 155h102l-13 -155h142l-9 -94h-143l-13 -162h142l-9 -94h-142l-15 -155h-102l15 155h-165l-15 -155h-102l14 155h-139zM287 415l-14 -170h166l14 170h-166z" />
    <glyph glyph-name="percent" unicode="%" horiz-adv-x="832" 
d="M201 364c-100 0 -163 69 -163 175c0 105 63 172 163 172c99 0 162 -67 162 -172c0 -106 -63 -175 -162 -175zM101 0l510 700h120l-510 -700h-120zM137 538c0 -55 25 -92 64 -92c38 0 63 36 63 92s-24 91 -63 91s-64 -35 -64 -91zM632 -11c-100 0 -163 69 -163 174
c0 106 63 173 163 173c99 0 162 -67 162 -173c0 -105 -63 -174 -162 -174zM568 163c0 -55 25 -92 64 -92c38 0 63 35 63 92c0 56 -24 91 -63 91s-64 -35 -64 -91z" />
    <glyph glyph-name="ampersand" unicode="&#x26;" horiz-adv-x="738" 
d="M49 188c0 96 64 159 161 203c-50 47 -85 98 -85 158c0 97 86 161 191 161s189 -63 189 -163c0 -79 -56 -136 -133 -182l134 -144c25 39 26 104 26 163v12h118v-32c0 -91 -12 -162 -61 -229l124 -135h-147l-55 62c-57 -49 -135 -73 -213 -73c-135 0 -249 72 -249 199z
M316 612c-38 0 -73 -26 -73 -68c0 -41 36 -78 62 -107c39 23 82 61 82 107c0 44 -33 68 -71 68zM176 190c0 -67 63 -100 128 -100c45 0 97 17 129 51l-155 170c-53 -23 -102 -65 -102 -121z" />
    <glyph glyph-name="quotesingle" unicode="'" horiz-adv-x="259" 
d="M70 700h120l-14 -252h-92z" />
    <glyph glyph-name="parenleft" unicode="(" horiz-adv-x="394" 
d="M105 291c0 166 53 326 146 439h112c-85 -125 -128 -273 -128 -439c0 -165 44 -315 128 -441h-112c-93 114 -146 275 -146 441z" />
    <glyph glyph-name="asterisk" unicode="*" horiz-adv-x="515" 
d="M445 592l-130 -49l130 -51l-50 -88l-109 88l23 -137h-103l23 137l-109 -88l-50 88l130 51l-130 49l50 88l109 -88l-23 138h103l-23 -138l109 88z" />
    <glyph glyph-name="plus" unicode="+" horiz-adv-x="654" 
d="M73 345h194v207h120v-207h194v-113h-194v-207h-120v207h-194v113z" />
    <glyph glyph-name="comma" unicode="," horiz-adv-x="304" 
d="M100 112h126l-76 -260h-92z" />
    <glyph glyph-name="hyphen" unicode="-" horiz-adv-x="464" 
d="M391 232h-318v112h318v-112z" />
    <glyph glyph-name="period" unicode="." horiz-adv-x="309" 
d="M84 64c0 41 32 72 74 72s74 -31 74 -72c0 -40 -32 -71 -74 -71s-74 31 -74 71z" />
    <glyph glyph-name="slash" unicode="/" horiz-adv-x="427" 
d="M144 -150h-125l263 880h125z" />
    <glyph glyph-name="zero" unicode="0" horiz-adv-x="674" 
d="M56 350c0 225 106 361 281 361s281 -136 281 -361s-106 -361 -281 -361s-281 136 -281 361zM337 599c-95 0 -147 -87 -147 -249s52 -249 147 -249c96 0 147 86 147 249s-51 249 -147 249z" />
    <glyph glyph-name="equal" unicode="=" horiz-adv-x="649" 
d="M566 350h-484v108h484v-108zM82 120v108h484v-108h-484z" />
    <glyph glyph-name="question" unicode="?" horiz-adv-x="544" 
d="M165 508h-126c3 126 99 203 232 203c125 0 223 -66 223 -189c0 -167 -185 -147 -187 -261l-1 -49h-121l-1 57c-2 154 178 137 178 249c0 56 -43 89 -95 89c-57 0 -100 -37 -102 -99zM247 -8c-41 0 -76 35 -76 74s35 72 75 72s75 -33 75 -72c0 -38 -32 -74 -74 -74z" />
    <glyph glyph-name="at" unicode="@" horiz-adv-x="1014" 
d="M58 264c0 263 184 446 447 446c257 0 450 -174 450 -406c0 -146 -77 -240 -199 -240c-70 0 -120 31 -136 85c-22 -59 -74 -93 -140 -93c-106 0 -180 87 -180 210c0 122 72 208 176 208c54 0 99 -24 123 -67l9 53h101v-233c0 -44 25 -75 60 -75c49 0 82 58 82 144
c0 184 -149 322 -346 322c-202 0 -343 -146 -343 -356s143 -349 356 -349c93 0 170 27 220 75h134c-69 -105 -206 -168 -363 -168c-267 0 -451 182 -451 444zM414 267c0 -72 40 -124 95 -124c53 0 90 49 90 121c0 73 -39 124 -93 124s-92 -50 -92 -121z" />
    <glyph glyph-name="less" unicode="&#x3c;" horiz-adv-x="657" 
d="M557 130v-130l-457 233v104l457 233v-130l-337 -155z" />
    <glyph glyph-name="braceleft" unicode="{" horiz-adv-x="409" 
d="M28 237v110c71 0 101 33 101 113v101c0 126 64 169 181 169c30 0 71 -3 71 -3v-97s-13 1 -22 1c-69 0 -100 -16 -100 -89v-96c0 -75 -43 -140 -89 -154c47 -16 89 -79 89 -154v-98c0 -75 31 -91 100 -91c9 0 22 1 22 1v-96s-41 -4 -71 -4c-117 0 -181 43 -181 171v102
c0 81 -30 114 -101 114z" />
    <glyph glyph-name="bar" unicode="|" horiz-adv-x="386" 
d="M259 -150h-132v880h132v-880z" />
    <glyph glyph-name="braceright" unicode="}" horiz-adv-x="409" 
d="M381 347v-110c-71 0 -101 -33 -101 -114v-102c0 -128 -64 -171 -181 -171c-30 0 -71 4 -71 4v96s13 -1 22 -1c69 0 100 16 100 91v98c0 75 42 138 89 154c-46 14 -89 79 -89 154v96c0 73 -31 89 -100 89c-9 0 -22 -1 -22 -1v97s41 3 71 3c117 0 181 -43 181 -169v-101
c0 -80 30 -113 101 -113z" />
    <glyph glyph-name="asciitilde" unicode="~" horiz-adv-x="678" 
d="M81 220c-2 112 56 180 154 180c114 0 144 -98 207 -98c33 0 52 28 52 76h104c1 -114 -56 -180 -154 -180c-115 0 -145 98 -209 98c-33 0 -51 -27 -50 -76h-104z" />
    <glyph glyph-name="dollar" unicode="$" horiz-adv-x="680" 
d="M214 512c0 -47 38 -73 138 -95l45 -10c159 -36 221 -91 221 -202c0 -116 -86 -199 -227 -214v-81h-96v82c-135 15 -224 97 -234 222h138c6 -69 67 -116 150 -116c78 0 132 41 132 97c0 50 -37 76 -133 97l-42 9c-156 34 -226 96 -226 198c0 114 86 196 215 210v81h96v-83
c120 -18 201 -95 210 -203h-132c-7 60 -60 100 -134 100c-71 0 -121 -38 -121 -92z" />
    <glyph glyph-name="a.alt" horiz-adv-x="638" 
d="M571 0h-117l-10 81c-37 -59 -100 -92 -174 -92c-134 0 -227 111 -227 275c0 163 94 275 227 275c73 0 136 -33 172 -89l10 78h119v-528zM446 264c0 104 -54 172 -136 172c-81 0 -135 -68 -135 -172s54 -172 135 -172c82 0 136 68 136 172z" />
    <glyph glyph-name="bracketleft" unicode="[" horiz-adv-x="399" 
d="M371 -51v-99h-264v880h264v-99h-134v-682h134z" />
    <glyph glyph-name="bracketright" unicode="]" horiz-adv-x="399" 
d="M28 -150v99h134v682h-134v99h264v-880h-264z" />
    <glyph glyph-name="asciicircum" unicode="^" horiz-adv-x="512" 
d="M40 392l157 308h118l157 -308h-121l-95 206l-95 -206h-121z" />
    <glyph glyph-name="underscore" unicode="_" horiz-adv-x="446" 
d="M451 -160h-456v106h456v-106z" />
    <glyph glyph-name="grave" unicode="`" horiz-adv-x="398" 
d="M107 854h118l66 -154h-87z" />
    <glyph glyph-name="acute" unicode="&#xb4;" horiz-adv-x="398" 
d="M173 854h118l-97 -154h-87z" />
    <glyph glyph-name="Q" unicode="Q" horiz-adv-x="804" 
d="M599 -78l-70 90c-38 -15 -81 -23 -126 -23c-210 0 -351 146 -351 361s142 361 350 361s350 -146 350 -361c0 -121 -45 -220 -121 -283l62 -79zM386 203l94 66l72 -94c38 41 58 101 58 175c0 151 -81 247 -208 247s-208 -96 -208 -247c0 -145 74 -239 193 -245
c24 -1 47 2 68 9z" />
    <glyph glyph-name="sterling" unicode="&#xa3;" horiz-adv-x="661" 
d="M68 0v99c56 0 85 45 85 130c0 15 -1 29 -2 54h-83v94h76c-3 42 -8 83 -8 119c0 133 89 215 232 215c130 0 218 -75 225 -191h-121c-4 56 -46 92 -104 92c-71 0 -108 -44 -108 -130c0 -31 3 -67 7 -105h190v-94h-184c2 -31 3 -55 2 -79c-1 -38 -13 -81 -30 -105h353v-99
h-530z" />
    <glyph glyph-name="logicalnot" unicode="&#xac;" horiz-adv-x="626" 
d="M76 279v102h466v-234h-121v132h-345z" />
    <glyph glyph-name="macron" unicode="&#xaf;" horiz-adv-x="542" 
d="M107 700v92h328v-92h-328z" />
    <glyph glyph-name="degree" unicode="&#xb0;" horiz-adv-x="362" 
d="M46 619c0 76 58 131 135 131c76 0 134 -56 134 -131s-58 -131 -134 -131c-77 0 -135 56 -135 131zM129 619c0 -29 22 -53 52 -53c29 0 51 24 51 53c0 30 -22 53 -51 53c-30 0 -52 -23 -52 -53z" />
    <glyph glyph-name="paragraph" unicode="&#xb6;" horiz-adv-x="605" 
d="M60 478c0 127 97 222 224 222h113v-780h-97v336h-16c-127 0 -224 95 -224 222zM535 -80h-98v780h98v-780z" />
    <glyph glyph-name="uni03A9" unicode="&#x3a9;" horiz-adv-x="770" 
d="M57 372c0 206 140 338 328 338s328 -132 328 -338c0 -103 -57 -222 -132 -266h132v-106h-270v122c93 36 141 118 141 235c0 136 -75 239 -199 239c-123 0 -198 -103 -198 -239c0 -110 52 -195 140 -235v-122h-260v106h121c-74 45 -131 164 -131 266z" />
    <glyph glyph-name="partialdiff" unicode="&#x2202;" horiz-adv-x="642" 
d="M317 -10c-149 0 -262 100 -262 252c0 137 93 247 235 247c69 0 137 -29 173 -91c-9 123 -77 207 -206 207c-30 0 -68 -4 -96 -16v103c30 14 78 18 110 18c234 0 317 -168 317 -385v-36c0 -167 -95 -299 -271 -299zM181 246c0 -79 56 -148 138 -148c81 0 134 66 134 144
c0 80 -56 146 -139 146c-80 0 -133 -65 -133 -142z" />
    <glyph glyph-name="uni0394" unicode="&#x394;" horiz-adv-x="694" 
d="M37 0l239 700h141l240 -700h-620zM203 113h288l-144 457z" />
    <glyph glyph-name="product" unicode="&#x220f;" horiz-adv-x="630" 
d="M183 -160h-132v860h528v-860h-132v749h-264v-749z" />
    <glyph glyph-name="summation" unicode="&#x2211;" horiz-adv-x="687" 
d="M79 594v106h534v-114h-376l220 -310l-220 -322h376v-114h-534v106l225 330z" />
    <glyph glyph-name="radical" unicode="&#x221a;" horiz-adv-x="657" 
d="M42 349v112h197l112 -298l152 537h129l-206 -700h-143l-133 349h-108z" />
    <glyph glyph-name="lozenge" unicode="&#x25ca;" horiz-adv-x="621" 
d="M51 356l213 344h93l213 -344l-213 -356h-93zM433 356l-125 213l-124 -213l124 -224z" />
    <glyph glyph-name="cent" unicode="&#xa2;" horiz-adv-x="651" 
d="M340 186c56 0 97 34 107 91h129c-12 -100 -81 -170 -183 -188v-89h-116v89c-122 22 -202 123 -202 261c0 137 80 237 202 260v90h116v-89c102 -18 171 -88 183 -188h-129c-10 57 -51 91 -107 91c-81 0 -132 -62 -132 -164s51 -164 132 -164z" />
    <glyph glyph-name="brokenbar" unicode="&#xa6;" horiz-adv-x="386" 
d="M259 390h-132v340h132v-340zM259 -150h-132v340h132v-340z" />
    <glyph glyph-name="yen" unicode="&#xa5;" horiz-adv-x="684" 
d="M506 700h150l-216 -354h106v-92h-134v-62h134v-92h-134v-100h-140v100h-134v92h134v62h-134v92h106l-216 354h150l164 -293z" />
    <glyph glyph-name="copyright" unicode="&#xa9;" horiz-adv-x="882" 
d="M441 710c235 0 396 -164 396 -400c0 -237 -161 -400 -396 -400c-234 0 -396 163 -396 400c0 236 162 400 396 400zM441 -12c189 0 313 127 313 322s-124 322 -313 322c-188 0 -313 -127 -313 -322s125 -322 313 -322zM447 178c49 0 86 26 96 71h81
c-11 -90 -84 -145 -179 -145c-116 0 -197 86 -197 206s81 206 196 206c96 0 171 -57 180 -145h-81c-10 45 -47 71 -96 71c-71 0 -117 -52 -117 -132s46 -132 117 -132z" />
    <glyph glyph-name="section" unicode="&#xa7;" horiz-adv-x="505" 
d="M164 535c0 -36 32 -51 109 -74l28 -8c115 -35 160 -76 160 -145c0 -68 -43 -112 -105 -134c71 -31 100 -72 100 -127c0 -92 -81 -157 -198 -157s-200 64 -207 157h111c4 -39 42 -65 92 -65s86 26 86 64c0 33 -28 51 -111 74l-29 7c-111 30 -155 74 -156 144
c0 69 42 110 103 135c-73 28 -102 71 -102 127c0 91 84 157 201 157c119 0 200 -62 209 -157h-115c-4 40 -41 67 -90 67c-50 0 -86 -28 -86 -65zM275 208c44 9 71 37 71 77c0 39 -23 55 -89 76l-30 10c-43 -8 -70 -36 -70 -76c0 -39 23 -57 82 -75z" />
    <glyph glyph-name="plusminus" unicode="&#xb1;" horiz-adv-x="642" 
d="M81 400h184v144h116v-144h180v-102h-180v-143h-116v143h-184v102zM81 0v102h480v-102h-480z" />
    <glyph glyph-name="guilsinglleft" unicode="&#x2039;" horiz-adv-x="438" 
d="M367 76h-132l-164 214l164 214h132l-168 -214z" />
    <glyph glyph-name="uni03BC" unicode="&#x3bc;" horiz-adv-x="613" 
d="M65 -170v698h129v-321c0 -70 39 -110 107 -110c78 0 118 54 118 135v296h129v-528h-117l-10 72c-28 -53 -85 -82 -144 -82c-36 0 -67 11 -83 24v-184h-129z" />
    <glyph glyph-name="multiply" unicode="&#xd7;" horiz-adv-x="658" 
d="M107 145l142 141l-142 141l83 83l139 -142l139 142l83 -83l-142 -141l142 -141l-83 -83l-139 143l-139 -143z" />
    <glyph glyph-name="Thorn" unicode="&#xde;" horiz-adv-x="655" 
d="M355 578c141 0 238 -89 238 -219s-97 -219 -238 -219h-135v-140h-138v700h138v-122h135zM331 251c72 0 121 44 121 108s-49 108 -121 108h-111v-216h111z" />
    <glyph glyph-name="divide" unicode="&#xf7;" horiz-adv-x="621" 
d="M240 477c0 42 30 69 73 69s72 -27 72 -69c0 -41 -29 -69 -72 -69s-73 28 -73 69zM546 238h-472v104h472v-104zM240 103c0 42 30 69 73 69s72 -27 72 -69c0 -41 -29 -69 -72 -69s-73 28 -73 69z" />
    <glyph glyph-name="thorn" unicode="&#xfe;" horiz-adv-x="646" 
d="M77 -170v880h129v-274c35 56 97 89 168 89c129 0 221 -109 221 -268c0 -160 -91 -268 -221 -268c-72 0 -132 33 -168 92v-251h-129zM202 257c0 -100 52 -165 131 -165c78 0 130 65 130 165s-52 165 -130 165c-79 0 -131 -65 -131 -165z" />
    <glyph glyph-name="florin" unicode="&#x192;" horiz-adv-x="422" 
d="M277 153c0 -115 -49 -164 -165 -164c-29 0 -56 3 -67 6v100c7 -1 23 -4 38 -4c46 0 65 22 65 63v262h-72v98h72v38c0 115 48 164 163 164c28 0 55 -3 65 -6v-100c-6 1 -22 4 -37 4c-46 0 -65 -22 -65 -63v-37h98v-98h-95v-263z" />
    <glyph glyph-name="dotlessi" unicode="&#x131;" horiz-adv-x="264" 
d="M197 0h-130v528h130v-528z" />
    <glyph glyph-name="circumflex" unicode="&#x2c6;" horiz-adv-x="518" 
d="M87 690l124 144h96l124 -144h-105l-67 86l-67 -86h-105z" />
    <glyph glyph-name="caron" unicode="&#x2c7;" horiz-adv-x="519" 
d="M212 700l-124 144h105l67 -86l67 86h105l-124 -144h-96z" />
    <glyph glyph-name="dieresis" unicode="&#xa8;" horiz-adv-x="578" 
d="M115 764c0 39 31 69 71 69c41 0 71 -30 71 -69s-30 -69 -71 -69c-40 0 -71 30 -71 69zM320 764c0 39 30 69 71 69s71 -30 71 -69s-30 -69 -71 -69s-71 30 -71 69z" />
    <glyph glyph-name="parenright" unicode=")" horiz-adv-x="394" 
d="M290 291c0 -166 -53 -327 -146 -441h-112c84 126 128 276 128 441c0 166 -43 314 -128 439h112c93 -113 146 -273 146 -439z" />
    <glyph glyph-name="q" unicode="q" horiz-adv-x="639" 
d="M571 528v-708h-129v259c-37 -58 -102 -89 -172 -89c-141 0 -227 122 -227 274c0 154 85 275 228 275c70 0 135 -30 173 -91l10 80h117zM446 264c0 104 -54 173 -136 173c-81 0 -135 -69 -135 -173c0 -103 54 -172 135 -172c82 0 136 68 136 172z" />
    <glyph glyph-name="greater" unicode="&#x3e;" horiz-adv-x="657" 
d="M100 0v130l337 155l-337 155v130l457 -233v-104z" />
    <glyph glyph-name="backslash" unicode="\" horiz-adv-x="427" 
d="M407 -150h-125l-263 880h125z" />
    <glyph glyph-name="quotedbl" unicode="&#x22;" horiz-adv-x="459" 
d="M70 700h120l-14 -252h-92zM270 700h120l-14 -252h-92z" />
    <glyph glyph-name="colon" unicode=":" horiz-adv-x="309" 
d="M84 392c0 41 32 72 74 72s74 -31 74 -72c0 -40 -32 -71 -74 -71s-74 31 -74 71zM84 64c0 41 32 72 74 72s74 -31 74 -72c0 -40 -32 -71 -74 -71s-74 31 -74 71z" />
    <glyph glyph-name="semicolon" unicode=";" horiz-adv-x="295" 
d="M82 396c0 42 32 75 76 75s77 -33 77 -75s-33 -75 -77 -75s-76 33 -76 75zM99 112h126l-76 -260h-92z" />
    <glyph glyph-name="periodcentered" unicode="&#xb7;" horiz-adv-x="332" 
d="M95 284c0 41 32 72 74 72s74 -31 74 -72c0 -40 -32 -71 -74 -71s-74 31 -74 71z" />
    <glyph glyph-name="questiondown" unicode="&#xbf;" horiz-adv-x="552" 
d="M302 559c41 0 76 -35 76 -74s-35 -72 -75 -72s-75 33 -75 72c0 38 32 74 74 74zM384 43h126c-3 -126 -99 -203 -232 -203c-125 0 -223 66 -223 189c0 167 185 147 187 261l1 49h121l1 -57c2 -154 -178 -137 -178 -249c0 -56 43 -89 95 -89c57 0 100 37 102 99z" />
    <glyph glyph-name="exclamdown" unicode="&#xa1;" horiz-adv-x="342" 
d="M100 488c0 40 32 71 74 71s74 -31 74 -71c0 -41 -32 -72 -74 -72s-74 31 -74 72zM101 -150l13 472h111l14 -472h-138z" />
    <glyph glyph-name="cedilla" unicode="&#xb8;" horiz-adv-x="402" 
d="M136 0h67l-8 -56c67 1 100 -36 100 -83c0 -57 -47 -91 -132 -91c-20 0 -40 2 -56 7v63c15 -4 32 -6 49 -6c39 0 59 9 59 27s-20 27 -57 27c-12 0 -22 -1 -32 -3v46z" />
    <glyph glyph-name="AE" unicode="&#xc6;" horiz-adv-x="967" 
d="M895 589h-329v-181h289v-108h-289v-189h329v-111h-467v145h-212l-49 -145h-139l253 700h614v-111zM246 248h182v341h-66z" />
    <glyph glyph-name="breve" unicode="&#x2d8;" horiz-adv-x="482" 
d="M395 847c0 -89 -64 -154 -153 -154s-155 65 -155 154h79c0 -45 32 -80 76 -80c43 0 75 35 75 80h78z" />
    <glyph glyph-name="dotaccent" unicode="&#x2d9;" horiz-adv-x="306" 
d="M87 759c0 36 28 64 66 64c37 0 65 -28 65 -64s-28 -64 -65 -64c-38 0 -66 28 -66 64z" />
    <glyph glyph-name="ring" unicode="&#x2da;" horiz-adv-x="368" 
d="M91 783c0 51 39 90 93 90c53 0 93 -39 93 -90s-40 -91 -93 -91s-93 40 -93 91zM150 783c0 -20 15 -35 34 -35s34 16 34 35s-14 34 -34 34c-19 0 -34 -14 -34 -34z" />
    <glyph glyph-name="ogonek" unicode="&#x2db;" horiz-adv-x="342" 
d="M171 0h60c-34 -19 -63 -59 -63 -98c0 -47 43 -59 87 -54v-74c-13 -3 -27 -4 -42 -4c-72 0 -126 37 -126 102c0 56 38 104 84 128z" />
    <glyph glyph-name="tilde" unicode="&#x2dc;" horiz-adv-x="481" 
d="M87 700c0 66 32 106 91 106c66 0 85 -51 117 -51c16 0 29 14 28 38h71c1 -67 -31 -106 -90 -106c-68 0 -87 51 -118 51c-17 0 -30 -13 -28 -38h-71z" />
    <glyph glyph-name="hungarumlaut" unicode="&#x2dd;" horiz-adv-x="505" 
d="M303 854h115l-79 -154h-93zM121 854h112l-58 -154h-88z" />
    <glyph glyph-name="quoteleft" unicode="&#x2018;" horiz-adv-x="314" 
d="M199 440h-126l76 260h92z" />
    <glyph glyph-name="quoteright" unicode="&#x2019;" horiz-adv-x="314" 
d="M115 700h126l-76 -260h-92z" />
    <glyph glyph-name="quotesinglbase" unicode="&#x201a;" horiz-adv-x="314" 
d="M115 112h126l-76 -260h-92z" />
    <glyph glyph-name="quotedblleft" unicode="&#x201c;" horiz-adv-x="516" 
d="M401 440h-126l76 260h92zM199 440h-126l76 260h92z" />
    <glyph glyph-name="quotedblright" unicode="&#x201d;" horiz-adv-x="558" 
d="M115 700h126l-76 -260h-92zM296 700h126l-76 -260h-92z" />
    <glyph glyph-name="quotedblbase" unicode="&#x201e;" horiz-adv-x="516" 
d="M317 112h126l-76 -260h-92zM115 112h126l-76 -260h-92z" />
    <glyph glyph-name="dagger" unicode="&#x2020;" horiz-adv-x="531" 
d="M87 578h124v132h109v-132h124v-97h-124v-259h-109v259h-124v97z" />
    <glyph glyph-name="daggerdbl" unicode="&#x2021;" horiz-adv-x="531" 
d="M87 600h124v110h108v-110h124v-89h-124v-90h124v-89h-124v-110h-108v110h-124v89h124v90h-124v89z" />
    <glyph glyph-name="endash" unicode="&#x2013;" horiz-adv-x="522" 
d="M507 232h-492v112h492v-112z" />
    <glyph glyph-name="emdash" unicode="&#x2014;" horiz-adv-x="1014" 
d="M999 232h-984v112h984v-112z" />
    <glyph glyph-name="bullet" unicode="&#x2022;" horiz-adv-x="425" 
d="M88 285c0 68 53 121 124 121s124 -53 124 -121s-53 -121 -124 -121s-124 53 -124 121z" />
    <glyph glyph-name="ellipsis" unicode="&#x2026;" horiz-adv-x="824" 
d="M84 64c0 41 32 72 74 72s74 -31 74 -72c0 -40 -32 -71 -74 -71s-74 31 -74 71zM341 64c0 41 32 72 74 72s74 -31 74 -72c0 -40 -32 -71 -74 -71s-74 31 -74 71zM599 64c0 41 32 72 74 72s74 -31 74 -72c0 -40 -32 -71 -74 -71s-74 31 -74 71z" />
    <glyph glyph-name="perthousand" unicode="&#x2030;" horiz-adv-x="1192" 
d="M201 364c-100 0 -163 69 -163 175c0 105 63 172 163 172c99 0 162 -67 162 -172c0 -106 -63 -175 -162 -175zM101 0l510 700h120l-510 -700h-120zM137 538c0 -55 25 -92 64 -92c38 0 63 36 63 92s-24 91 -63 91s-64 -35 -64 -91zM632 -11c-100 0 -163 69 -163 174
c0 106 63 173 163 173c99 0 162 -67 162 -173c0 -105 -63 -174 -162 -174zM994 -11c-100 0 -164 69 -164 174c0 106 64 173 164 173c99 0 162 -67 162 -173c0 -105 -63 -174 -162 -174zM568 163c0 -55 25 -92 64 -92c38 0 63 35 63 92c0 56 -24 91 -63 91s-64 -35 -64 -91z
M930 163c0 -55 25 -92 64 -92c38 0 62 35 62 92c0 56 -24 91 -62 91c-39 0 -64 -35 -64 -91z" />
    <glyph glyph-name="franc" unicode="&#x20a3;" horiz-adv-x="671" 
d="M600 593h-317v-186h277v-103h-277v-104h160v-100h-160v-100h-134v100h-72v100h72v500h451v-107z" />
    <glyph glyph-name="peseta" unicode="&#x20a7;" horiz-adv-x="764" 
d="M404 700c125 0 216 -76 234 -191h83v-95h-83c-20 -114 -110 -188 -234 -188h-135v-226h-139v414h-80v95h80v191h274zM379 329c73 0 122 54 122 134s-49 134 -122 134h-110v-268h110z" />
    <glyph glyph-name="uni20B9" unicode="&#x20b9;" horiz-adv-x="584" 
d="M68 260v96h21c103 0 166 26 189 76h-210v96h212c-15 44 -51 76 -100 76h-112v96h448v-96h-136c18 -22 31 -48 38 -76h98v-96h-99c-23 -83 -101 -147 -208 -159l280 -273h-161z" />
    <glyph glyph-name="guilsinglright" unicode="&#x203a;" horiz-adv-x="438" 
d="M203 76h-132l168 214l-168 214h132l164 -214z" />
    <glyph glyph-name="guillemotleft" unicode="&#xab;" horiz-adv-x="663" 
d="M367 76h-132l-164 214l164 214h132l-168 -214zM592 76h-132l-164 214l164 214h132l-168 -214z" />
    <glyph glyph-name="guillemotright" unicode="&#xbb;" horiz-adv-x="663" 
d="M203 76h-132l168 214l-168 214h132l164 -214zM428 76h-132l168 214l-168 214h132l164 -214z" />
    <glyph glyph-name="germandbls" unicode="&#xdf;" horiz-adv-x="625" 
d="M274 0v101h39c76 0 131 46 131 108c0 63 -49 101 -130 101h-36v97h36c64 0 110 44 110 104c0 56 -46 97 -111 97c-69 0 -113 -44 -113 -113v-495h-125v495c0 131 96 216 242 216c134 0 234 -77 234 -180c0 -82 -51 -147 -130 -166c97 -16 157 -81 157 -167
c0 -116 -109 -198 -264 -198h-40z" />
    <glyph glyph-name="integral" unicode="&#x222b;" horiz-adv-x="484" 
d="M332 544l-65 -526c-14 -114 -48 -164 -159 -164c-28 0 -53 3 -64 6v100c6 -1 22 -4 36 -4c44 0 58 22 63 63l63 517c16 125 49 180 163 180c29 0 55 -3 66 -6v-100c-6 1 -23 4 -38 4c-46 0 -59 -25 -65 -70z" />
    <glyph glyph-name="lira" unicode="&#x20a4;" horiz-adv-x="658" 
d="M62 0v99c50 0 79 37 83 119h-83v83h82c-2 25 -4 52 -6 79h-76v83h69c0 11 -1 22 -1 33c0 133 89 215 229 215c133 0 221 -75 228 -191h-122c-4 58 -42 92 -104 92c-69 0 -106 -42 -107 -149h144v-83h-141c2 -26 5 -54 7 -79h134v-83h-130c-1 -59 -14 -97 -29 -119h353
v-99h-530z" />
    <glyph glyph-name="Euro" unicode="&#x20ac;" horiz-adv-x="718" 
d="M55 238v85h59v27c0 11 0 22 1 32h-60v84h70c32 155 130 245 275 245c143 0 237 -88 258 -243h-134c-10 83 -54 131 -126 131c-69 0 -117 -46 -138 -133h187v-84h-199v-32v-27h199v-85h-188c20 -90 68 -137 139 -137c73 0 118 50 128 139h134
c-16 -158 -111 -251 -258 -251s-247 92 -278 249h-69z" />
    <glyph glyph-name="minus" unicode="&#x2212;" horiz-adv-x="665" 
d="M590 232h-516v112h516v-112z" />
    <glyph glyph-name="uni2219" unicode="&#x2219;" horiz-adv-x="450" 
d="M86 285c0 68 53 121 124 121s124 -53 124 -121s-53 -121 -124 -121s-124 53 -124 121z" />
    <glyph glyph-name="infinity" unicode="&#x221e;" horiz-adv-x="917" 
d="M45 287c0 135 110 200 202 200c60 0 137 -25 211 -124c74 99 152 124 212 124c92 0 201 -65 201 -200c0 -134 -109 -200 -201 -200c-60 0 -138 25 -212 124c-74 -99 -151 -124 -211 -124c-92 0 -202 66 -202 200zM661 386c-55 0 -98 -39 -144 -99c46 -59 89 -98 144 -98
c54 0 96 48 96 98s-42 99 -96 99zM159 287c0 -50 42 -98 96 -98c56 0 98 39 144 98c-46 60 -88 99 -144 99c-54 0 -96 -49 -96 -99z" />
    <glyph glyph-name="approxequal" unicode="&#x2248;" horiz-adv-x="708" 
d="M95 319c1 102 60 162 156 162c115 0 139 -86 202 -86c32 0 54 23 55 58h104c0 -102 -59 -161 -156 -161c-115 0 -140 86 -203 86c-33 0 -53 -22 -54 -59h-104zM95 84c1 101 60 162 156 162c115 0 139 -86 202 -86c32 0 54 22 55 58h104c0 -102 -59 -162 -156 -162
c-115 0 -140 86 -203 86c-33 0 -53 -22 -54 -58h-104z" />
    <glyph glyph-name="notequal" unicode="&#x2260;" horiz-adv-x="655" 
d="M61 120v108h157l49 122h-206v108h249l36 92h122l-37 -92h114v-108h-157l-48 -122h205v-108h-248l-36 -92h-122l36 92h-114z" />
    <glyph glyph-name="lessequal" unicode="&#x2264;" horiz-adv-x="658" 
d="M577 177l-496 147v103l496 149v-122l-328 -78l328 -77v-122zM577 30h-496v103h496v-103z" />
    <glyph glyph-name="greaterequal" unicode="&#x2265;" horiz-adv-x="658" 
d="M81 177v122l328 77l-328 78v122l496 -149v-103zM81 30v103h496v-103h-496z" />
    <glyph glyph-name="Oslash" unicode="&#xd8;" horiz-adv-x="802" 
d="M401 711c18 0 35 -1 52 -3l24 82h109l-33 -109c122 -54 198 -174 198 -331c0 -215 -142 -361 -350 -361c-18 0 -36 1 -53 4l-25 -83h-108l33 110c-122 53 -197 173 -197 330c0 215 142 361 350 361zM283 138l137 459h-19c-127 0 -208 -96 -208 -247
c0 -97 33 -171 90 -212zM401 103c127 0 208 96 208 247c0 97 -33 172 -91 212l-137 -459h20z" />
    <glyph glyph-name="Hbar" unicode="&#x126;" horiz-adv-x="809" 
d="M568 700h138v-112h72v-88h-72v-500h-138v298h-327v-298h-138v500h-72v88h72v112h138v-112h327v112zM241 410h327v90h-327v-90z" />
    <glyph glyph-name="lcaron" unicode="&#x13e;" horiz-adv-x="450" 
d="M197 0h-130v730h130v-730zM299 700h126l-76 -260h-92z" />
    <glyph glyph-name="Lcaron" unicode="&#x13d;" horiz-adv-x="572" 
d="M214 111h312v-111h-451v700h139v-589zM315 700h126l-77 -260h-92z" />
    <glyph glyph-name="Ldot" unicode="&#x13f;" horiz-adv-x="568" 
d="M214 111h312v-111h-451v700h139v-589zM286 360c0 41 32 72 74 72s74 -31 74 -72c0 -40 -32 -71 -74 -71s-74 31 -74 71z" />
    <glyph glyph-name="ldot" unicode="&#x140;" horiz-adv-x="458" 
d="M197 0h-130v730h130v-730zM269 344c0 41 32 72 74 72s74 -31 74 -72c0 -40 -32 -71 -74 -71s-74 31 -74 71z" />
    <glyph glyph-name="Lslash" unicode="&#x141;" horiz-adv-x="570" 
d="M262 346l-49 -24v-211h312v-111h-451v254l-36 -18v109l36 18v337h139v-270l49 24v-108z" />
    <glyph glyph-name="lslash" unicode="&#x142;" horiz-adv-x="502" 
d="M373 389l-57 -32v-357h-130v285l-51 -29v112l51 28v334h130v-261l57 32v-112z" />
    <glyph glyph-name="currency" unicode="&#xa4;" horiz-adv-x="599" 
d="M298 478c35 0 67 -8 95 -23l54 55l75 -75l-55 -53c16 -28 25 -61 25 -96s-9 -68 -24 -95l54 -54l-75 -75l-53 56c-28 -16 -61 -24 -96 -24c-34 0 -66 8 -93 23l-52 -55l-75 75l51 52c-16 28 -25 61 -25 97s9 69 26 98l-52 51l75 75l52 -54c27 14 59 22 93 22zM298 388
c-57 0 -99 -47 -99 -102s42 -102 99 -102s99 47 99 102s-42 102 -99 102z" />
    <glyph glyph-name="Eth" unicode="&#xd0;" horiz-adv-x="773" 
d="M364 700c234 0 355 -122 355 -350c0 -220 -131 -350 -355 -350h-249v286h-81v112h81v302h249zM376 286h-122v-175h99c142 0 223 83 223 240c0 162 -73 238 -223 238h-99v-191h122v-112z" />
    <glyph glyph-name="ae" unicode="&#xe6;" horiz-adv-x="908" 
d="M288 538c76 0 133 -22 168 -69c38 44 93 70 166 70c158 0 243 -110 243 -277v-26h-359c1 -80 45 -148 121 -148c46 0 86 21 105 70h127c-26 -112 -130 -169 -234 -169c-88 0 -152 39 -190 102c-45 -72 -132 -102 -206 -102c-101 0 -187 49 -187 156
c0 163 217 175 334 175c0 70 -10 120 -92 120c-55 0 -95 -27 -99 -71h-123c7 108 112 169 226 169zM508 318h230c-8 80 -46 124 -114 124c-65 0 -109 -46 -116 -124zM377 202v40c-56 0 -206 -8 -206 -93c0 -49 43 -67 85 -67c73 0 121 48 121 120z" />
    <glyph glyph-name="oslash" unicode="&#xf8;" horiz-adv-x="627" 
d="M315 539c18 0 36 -2 54 -5l28 76h84l-37 -101c85 -43 137 -132 137 -245c0 -163 -108 -275 -266 -275c-22 0 -42 2 -62 6l-35 -95h-84l45 122c-82 45 -132 132 -132 242c0 163 109 275 268 275zM220 133l112 302c-6 0 -12 1 -18 1c-83 0 -137 -67 -137 -172
c0 -56 16 -101 43 -131zM314 92c83 0 136 67 136 172c0 59 -17 106 -47 136l-113 -306c8 -1 16 -2 24 -2z" />
    <glyph glyph-name="dcaron" unicode="&#x10f;" horiz-adv-x="827" 
d="M574 0h-117l-10 81c-37 -59 -100 -92 -174 -92c-134 0 -227 111 -227 275c0 163 94 275 227 275c73 0 136 -33 172 -89v280h129v-730zM676 700h126l-76 -260h-92zM449 264c0 104 -54 172 -136 172c-81 0 -135 -68 -135 -172s54 -172 135 -172c82 0 136 68 136 172z" />
    <glyph glyph-name="dcroat" unicode="&#x111;" horiz-adv-x="653" 
d="M574 0h-117l-10 81c-37 -59 -100 -92 -174 -92c-134 0 -227 111 -227 275c0 163 94 275 227 275c73 0 136 -33 172 -89v124h-119v76h119v80h129v-80h50v-76h-50v-574zM449 264c0 104 -54 172 -136 172c-81 0 -135 -68 -135 -172s54 -172 135 -172c82 0 136 68 136 172z
" />
    <glyph glyph-name="OE" unicode="&#x152;" horiz-adv-x="1124" 
d="M394 711c82 0 149 -24 200 -67v56h467v-111h-329v-181h289v-108h-289v-189h329v-111h-467v56c-51 -43 -118 -67 -200 -67c-202 0 -340 146 -340 361s138 361 340 361zM394 103c122 0 200 96 200 247s-78 247 -200 247s-199 -96 -199 -247s77 -247 199 -247z" />
    <glyph glyph-name="oe" unicode="&#x153;" horiz-adv-x="994" 
d="M308 539c87 0 154 -35 196 -95c40 59 103 95 191 95c163 0 253 -108 253 -277v-26h-378c1 -82 50 -148 131 -148c51 0 92 22 111 70h130c-24 -106 -126 -169 -243 -169c-89 0 -154 36 -195 95c-42 -60 -109 -95 -196 -95c-156 0 -263 112 -263 275s107 275 263 275z
M572 318h246c-8 82 -50 124 -121 124c-70 0 -117 -45 -125 -124zM307 92c80 0 131 67 131 172s-51 172 -131 172s-131 -67 -131 -172s51 -172 131 -172z" />
    <glyph glyph-name="tcaron" unicode="&#x165;" horiz-adv-x="572" 
d="M409 700h126l-76 -260h-92zM313 430h-96v-277c0 -42 21 -57 61 -57c18 0 35 2 40 4v-100c-13 -3 -42 -8 -70 -8c-112 0 -160 45 -160 158v280h-63v98h63v124h126v-124h99v-98z" />
    <glyph glyph-name="Tbar" unicode="&#x166;" horiz-adv-x="645" 
d="M38 700h561v-111h-211v-213h134v-92h-134v-284h-139v284h-135v92h135v213h-211v111z" />
    <glyph glyph-name="tbar" unicode="&#x167;" horiz-adv-x="372" 
d="M26 234v90h64v114h-64v90h64v124h126v-124h98v-90h-95v-114h95v-90h-95v-81c0 -42 20 -57 61 -57c18 0 34 2 40 4v-100c-14 -3 -42 -8 -70 -8c-112 0 -160 45 -160 158v84h-64z" />
    <glyph glyph-name="longs" unicode="&#x17f;" horiz-adv-x="347" 
d="M198 551v-551h-126v552c0 115 49 164 163 164c29 0 55 -3 66 -6v-100c-7 1 -23 4 -38 4c-46 0 -65 -22 -65 -63z" />
    <glyph glyph-name="uni0326" unicode="&#x326;" horiz-adv-x="374" 
d="M140 -70h126l-66 -152h-92z" />
    <glyph glyph-name="pi" unicode="&#x3c0;" horiz-adv-x="702" 
d="M45 406v108h597v-108h-92v-253c0 -40 18 -57 60 -57c19 0 35 2 40 4v-100c-13 -3 -41 -8 -69 -8c-114 0 -161 46 -161 158v256h-160v-406h-129v406h-86z" />
    <glyph glyph-name="fraction" unicode="&#x2044;" horiz-adv-x="156" 
d="M-222 0l509 700h91l-509 -700h-91z" />
    <glyph glyph-name="a.smcp" horiz-adv-x="612" 
d="M381 560l199 -560h-132l-35 106h-213l-35 -106h-132l199 560h149zM226 200h161l-81 247z" />
    <glyph glyph-name="b.smcp" horiz-adv-x="561" 
d="M399 299c70 -12 120 -70 120 -140c0 -92 -74 -159 -175 -159h-275v560h265c92 0 158 -58 158 -141c0 -58 -35 -104 -93 -120zM201 467v-135h86c41 0 71 28 71 68s-29 67 -71 67h-86zM296 97c51 0 89 31 89 75c0 51 -36 81 -96 81h-88v-156h95z" />
    <glyph glyph-name="c.smcp" horiz-adv-x="637" 
d="M327 96c67 0 116 39 127 104h135c-20 -128 -122 -209 -264 -209c-164 0 -273 116 -273 289c0 174 109 289 273 289c142 0 249 -85 261 -209h-134c-10 63 -62 104 -127 104c-84 0 -139 -72 -139 -183c0 -112 56 -185 141 -185z" />
    <glyph glyph-name="d.smcp" horiz-adv-x="620" 
d="M280 560c190 0 288 -97 288 -280c0 -176 -106 -280 -288 -280h-210v560h210zM267 103c107 0 166 62 166 178c0 120 -54 176 -166 176h-65v-354h65z" />
    <glyph glyph-name="e.smcp" horiz-adv-x="516" 
d="M456 457h-254v-125h222v-98h-222v-131h254v-103h-386v560h386v-103z" />
    <glyph glyph-name="f.smcp" horiz-adv-x="492" 
d="M447 457h-245v-144h213v-98h-213v-215h-132v560h377v-103z" />
    <glyph glyph-name="g.smcp" horiz-adv-x="652" 
d="M597 306c2 -17 3 -39 3 -56c0 -164 -98 -259 -264 -259c-175 0 -284 110 -284 289c0 177 108 289 277 289c138 0 244 -76 263 -188h-131c-16 53 -65 87 -128 87c-92 0 -148 -70 -148 -185c0 -117 59 -191 155 -191c78 0 130 46 133 115l1 10h-128v89h251z" />
    <glyph glyph-name="h.smcp" horiz-adv-x="639" 
d="M436 560h132v-560h-132v232h-234v-232h-132v560h132v-226h234v226z" />
    <glyph glyph-name="i.smcp" horiz-adv-x="272" 
d="M202 0h-132v560h132v-560z" />
    <glyph glyph-name="j.smcp" horiz-adv-x="495" 
d="M293 560h132v-385c0 -116 -72 -184 -193 -184c-120 0 -195 67 -198 177h129c1 -47 24 -74 66 -74s64 29 64 82v384z" />
    <glyph glyph-name="k.smcp" horiz-adv-x="578" 
d="M338 318l216 -318h-156l-151 227l-45 -49v-178h-132v560h132v-228l190 228h152z" />
    <glyph glyph-name="l.smcp" horiz-adv-x="489" 
d="M202 103h241v-103h-373v560h132v-457z" />
    <glyph glyph-name="m.smcp" horiz-adv-x="744" 
d="M507 560h167v-560h-128v376l-143 -368h-63l-142 368v-376h-128v560h167l135 -350z" />
    <glyph glyph-name="n.smcp" horiz-adv-x="630" 
d="M431 560h129v-560h-143l-219 359v-359h-128v560h142l219 -359v359z" />
    <glyph glyph-name="o.smcp" horiz-adv-x="673" 
d="M336 569c170 0 285 -116 285 -289s-115 -289 -285 -289s-284 116 -284 289s114 289 284 289zM336 96c92 0 151 72 151 184s-59 184 -151 184s-150 -72 -150 -184s58 -184 150 -184z" />
    <glyph glyph-name="p.smcp" horiz-adv-x="543" 
d="M302 560c116 0 195 -79 195 -194s-79 -194 -195 -194h-100v-172h-132v560h232zM275 275c53 0 88 36 88 91s-35 91 -88 91h-73v-182h73z" />
    <glyph glyph-name="q.smcp" horiz-adv-x="673" 
d="M485 -65l-54 71c-29 -10 -60 -15 -94 -15c-171 0 -285 116 -285 289s114 289 284 289s285 -116 285 -289c0 -96 -35 -175 -95 -225l46 -62zM310 174l87 58l55 -73c24 29 37 70 37 121c0 112 -59 184 -153 184c-93 0 -152 -72 -152 -184c0 -105 52 -174 135 -182
c16 0 31 2 43 7z" />
    <glyph glyph-name="r.smcp" horiz-adv-x="561" 
d="M70 0v560h240c116 0 195 -77 195 -189c0 -75 -37 -134 -98 -164l114 -207h-140l-93 184h-86v-184h-132zM283 286c53 0 89 34 89 86s-36 85 -89 85h-82v-171h82z" />
    <glyph glyph-name="s.smcp" horiz-adv-x="557" 
d="M192 408c0 -34 29 -53 103 -70l36 -8c128 -28 176 -72 176 -161c0 -108 -85 -178 -224 -178c-135 0 -226 68 -234 183h129c3 -49 47 -83 108 -83c54 0 91 28 91 67c0 35 -28 53 -101 69l-33 8c-122 26 -179 77 -179 161c0 103 85 173 212 173c121 0 207 -67 215 -169
h-124c-6 43 -42 71 -93 71c-48 0 -82 -25 -82 -63z" />
    <glyph glyph-name="t.smcp" horiz-adv-x="544" 
d="M41 560h462v-103h-165v-457h-132v457h-165v103z" />
    <glyph glyph-name="u.smcp" horiz-adv-x="613" 
d="M411 560h132v-352c0 -131 -94 -217 -237 -217s-236 86 -236 217v352h132v-347c0 -76 38 -118 104 -118s105 42 105 118v347z" />
    <glyph glyph-name="v.smcp" horiz-adv-x="594" 
d="M431 560h131l-196 -560h-139l-195 560h130l135 -423z" />
    <glyph glyph-name="w.smcp" horiz-adv-x="822" 
d="M655 560h128l-138 -560h-130l-104 377l-104 -377h-130l-138 560h127l89 -398l102 390h108l102 -390z" />
    <glyph glyph-name="x.smcp" horiz-adv-x="596" 
d="M371 293l199 -293h-143l-123 201l-122 -201h-143l199 293l-183 267h143l106 -176l107 176h143z" />
    <glyph glyph-name="y.smcp" horiz-adv-x="582" 
d="M413 560h136l-192 -320v-240h-133v240l-192 320h136l122 -224z" />
    <glyph glyph-name="z.smcp" horiz-adv-x="569" 
d="M228 103h283v-103h-453v57l274 400h-266v103h437v-57z" />
    <glyph glyph-name="exclam.smcp" horiz-adv-x="312" 
d="M92 560h127l-14 -375h-99zM87 59c0 37 30 67 69 67s69 -30 69 -67c0 -38 -30 -67 -69 -67s-69 29 -69 67z" />
    <glyph glyph-name="dollar.smcp" horiz-adv-x="576" 
d="M248 632h82v-66c99 -14 165 -77 172 -166h-122c-5 43 -43 71 -96 71c-50 0 -85 -25 -85 -63c0 -34 28 -52 104 -69l36 -8c129 -28 179 -72 179 -161c0 -98 -71 -166 -188 -177v-65h-82v66c-111 13 -182 78 -189 180h127c4 -49 49 -83 110 -83c55 0 93 28 93 67
c0 36 -28 54 -101 69l-34 7c-123 26 -180 78 -180 162c0 92 69 158 174 171v65z" />
    <glyph glyph-name="percent.smcp" horiz-adv-x="697" 
d="M169 284c-83 0 -135 56 -135 143s52 142 135 142c81 0 133 -55 133 -142s-52 -143 -133 -143zM92 0l408 560h105l-408 -560h-105zM123 427c0 -42 17 -71 46 -71c27 0 44 27 44 71c0 43 -17 70 -44 70c-29 0 -46 -27 -46 -70zM530 -9c-83 0 -135 56 -135 143
s52 142 135 142c81 0 133 -55 133 -142s-52 -143 -133 -143zM484 134c0 -42 17 -71 46 -71c27 0 44 28 44 71s-17 70 -44 70c-29 0 -46 -27 -46 -70z" />
    <glyph glyph-name="ampersand.smcp" horiz-adv-x="617" 
d="M49 148c0 76 53 130 133 164c-43 35 -71 79 -71 127c0 77 69 129 158 129c88 0 156 -52 156 -130c0 -62 -44 -111 -106 -146l99 -106c17 27 18 73 18 122v9h102v-26c0 -75 -11 -131 -48 -179l103 -112h-131l-42 47c-43 -37 -104 -56 -167 -56c-115 0 -204 58 -204 157z
M268 488c-29 0 -55 -21 -55 -52c0 -33 29 -63 49 -85c32 19 60 49 60 84c0 34 -24 53 -54 53zM166 152c0 -49 43 -74 93 -74c33 0 72 12 94 36l-116 129c-40 -21 -71 -51 -71 -91z" />
    <glyph glyph-name="parenleft.smcp" horiz-adv-x="356" 
d="M102 233c0 133 43 261 117 351h103c-68 -100 -102 -218 -102 -351c0 -132 35 -252 102 -353h-103c-74 91 -117 220 -117 353z" />
    <glyph glyph-name="parenright.smcp" horiz-adv-x="356" 
d="M255 233c0 -133 -43 -262 -117 -353h-104c67 101 103 221 103 353c0 133 -35 251 -103 351h104c74 -90 117 -218 117 -351z" />
    <glyph glyph-name="zero.smcp" horiz-adv-x="575" 
d="M56 280c0 180 87 289 231 289c145 0 233 -109 233 -289s-88 -289 -233 -289c-144 0 -231 109 -231 289zM287 466c-70 0 -108 -65 -108 -186s38 -186 108 -186c71 0 109 64 109 186s-38 186 -109 186z" />
    <glyph glyph-name="one.smcp" horiz-adv-x="400" 
d="M56 345v115l139 100h99v-560h-122v430z" />
    <glyph glyph-name="two.smcp" horiz-adv-x="530" 
d="M56 0v78l222 205c47 44 70 73 70 110c0 49 -33 81 -86 81c-52 0 -86 -30 -89 -84h-117c3 108 87 178 212 178c121 0 203 -67 203 -166c0 -58 -29 -107 -83 -159l-151 -141h236v-102h-417z" />
    <glyph glyph-name="three.smcp" horiz-adv-x="546" 
d="M54 167h118c2 -46 42 -79 97 -79s95 33 95 80c0 46 -36 74 -98 74h-65v88h65c51 0 84 30 84 75c0 42 -33 70 -81 70s-84 -32 -85 -78h-113c1 101 84 172 201 172c112 0 194 -61 194 -144c0 -67 -41 -118 -107 -133c79 -13 128 -65 128 -137c0 -97 -89 -164 -218 -164
c-125 0 -212 71 -215 176z" />
    <glyph glyph-name="four.smcp" horiz-adv-x="563" 
d="M319 106h-270v75l259 379h132v-356h75v-98h-75v-106h-121v106zM183 204h136v214z" />
    <glyph glyph-name="five.smcp" horiz-adv-x="548" 
d="M68 161h117c9 -44 48 -73 95 -73c58 0 99 42 99 99s-42 99 -98 99c-34 0 -72 -16 -90 -49h-116l32 323h350v-98h-256l-12 -139c31 36 73 51 121 51c109 0 187 -76 187 -185c0 -118 -90 -198 -217 -198c-117 0 -205 65 -212 170z" />
    <glyph glyph-name="six.smcp" horiz-adv-x="557" 
d="M288 -9c-147 0 -232 102 -232 281c0 183 90 297 233 297c109 0 191 -64 205 -153h-119c-11 38 -43 59 -85 59c-72 0 -119 -70 -119 -183c25 48 76 82 148 82c105 0 183 -72 183 -185c0 -120 -84 -198 -214 -198zM192 188c0 -59 40 -99 97 -99c56 0 95 40 95 97
s-42 99 -97 99c-56 0 -95 -40 -95 -97z" />
    <glyph glyph-name="seven.smcp" horiz-adv-x="496" 
d="M47 560h393v-65l-221 -495h-129l216 458h-259v102z" />
    <glyph glyph-name="eight.smcp" horiz-adv-x="554" 
d="M76 423c0 84 84 146 201 146s201 -62 201 -146c0 -59 -41 -108 -102 -126c75 -17 122 -73 122 -142c0 -98 -89 -164 -221 -164s-221 67 -221 163c0 70 47 126 121 143c-61 18 -101 67 -101 126zM360 406c0 43 -35 75 -83 75s-83 -32 -83 -75s34 -73 83 -73s83 30 83 73z
M374 165c0 48 -40 82 -97 82s-97 -34 -97 -82c0 -47 40 -82 97 -82s97 35 97 82z" />
    <glyph glyph-name="nine.smcp" horiz-adv-x="556" 
d="M269 569c148 0 232 -101 232 -281c0 -183 -89 -297 -233 -297c-109 0 -191 64 -205 153h119c11 -38 43 -59 84 -59c74 0 119 69 119 183c-24 -49 -77 -82 -147 -82c-104 0 -183 73 -183 185c0 120 85 198 214 198zM365 372c0 59 -40 99 -96 99c-57 0 -96 -40 -96 -97
s41 -99 96 -99c56 0 96 40 96 97z" />
    <glyph glyph-name="question.smcp" horiz-adv-x="475" 
d="M161 402h-117c2 102 80 167 193 167c104 0 185 -55 185 -154c0 -134 -148 -119 -150 -206l-1 -36h-110l-2 46c-2 120 141 108 141 192c0 40 -31 64 -67 64c-41 0 -71 -28 -72 -73zM218 -7c-37 0 -68 30 -68 65s31 65 67 65s67 -30 67 -65c0 -33 -29 -65 -66 -65z" />
    <glyph glyph-name="bracketleft.smcp" horiz-adv-x="362" 
d="M334 -120h-226v704h226v-89h-106v-526h106v-89z" />
    <glyph glyph-name="bracketright.smcp" horiz-adv-x="362" 
d="M28 -120v89h106v526h-106v89h227v-704h-227z" />
    <glyph glyph-name="grave.smcp" horiz-adv-x="331" 
d="M192 685l52 -125h-77l-79 125h104z" />
    <glyph glyph-name="exclamdown.smcp" horiz-adv-x="307" 
d="M85 381c0 38 30 67 69 67s69 -29 69 -67c0 -37 -30 -67 -69 -67s-69 30 -69 67zM89 -120l14 367h100l14 -367h-128z" />
    <glyph glyph-name="cent.smcp" horiz-adv-x="543" 
d="M283 159c40 0 69 26 76 67h117c-7 -82 -63 -138 -145 -154v-72h-103v72c-99 19 -161 98 -161 208c0 109 63 188 161 208v72h103v-72c82 -16 138 -72 145 -154h-117c-7 41 -36 67 -76 67c-59 0 -94 -45 -94 -121s35 -121 94 -121z" />
    <glyph glyph-name="sterling.smcp" horiz-adv-x="564" 
d="M63 0v89c46 0 68 31 68 95c0 12 -1 23 -1 40h-67v83h61c-3 31 -6 61 -6 87c0 109 73 175 192 175c109 0 180 -59 187 -156h-111c-3 42 -33 68 -76 68c-52 0 -80 -33 -80 -99c0 -22 2 -46 5 -75h155v-83h-150c2 -26 3 -44 2 -60c-1 -27 -10 -57 -22 -75h282v-89h-439z" />
    <glyph glyph-name="yen.smcp" horiz-adv-x="580" 
d="M413 560h137l-171 -281h83v-80h-106v-46h106v-80h-106v-73h-131v73h-106v80h106v46h-106v80h82l-170 281h137l122 -224z" />
    <glyph glyph-name="dieresis.smcp" horiz-adv-x="500" 
d="M87 621c0 37 30 67 69 67s69 -30 69 -67c0 -38 -30 -68 -69 -68s-69 30 -69 68zM275 621c0 37 30 67 69 67s69 -30 69 -67c0 -38 -30 -68 -69 -68s-69 30 -69 68z" />
    <glyph glyph-name="macron.smcp" horiz-adv-x="441" 
d="M88 560v80h265v-80h-265z" />
    <glyph glyph-name="acute.smcp" horiz-adv-x="331" 
d="M139 685h104l-78 -125h-77z" />
    <glyph glyph-name="questiondown.smcp" horiz-adv-x="475" 
d="M257 448c37 0 68 -30 68 -65c0 -34 -31 -64 -67 -64c-35 0 -66 30 -66 64s28 65 65 65zM315 39h116c-2 -103 -79 -167 -192 -167c-104 0 -186 54 -186 154c0 134 149 120 151 206l1 36h110v-46c3 -120 -140 -108 -140 -192c0 -40 32 -64 68 -64c40 0 70 27 72 73z" />
    <glyph glyph-name="germandbls.smcp" horiz-adv-x="515" 
d="M220 0v91h30c56 0 96 33 96 79s-35 72 -97 72h-26v88h26c51 0 84 30 84 75c0 42 -34 70 -82 70c-50 0 -84 -32 -84 -81v-394h-113v394c0 105 80 175 200 175c113 0 194 -61 194 -144c0 -67 -40 -118 -107 -133c80 -12 129 -63 129 -133c0 -94 -89 -159 -218 -159h-32z
" />
    <glyph glyph-name="ae.smcp" horiz-adv-x="803" 
d="M743 457h-254v-125h222v-98h-222v-131h254v-103h-384v106h-163l-35 -106h-129l200 560h511v-103zM222 200h137v257h-53z" />
    <glyph glyph-name="eth.smcp" horiz-adv-x="646" 
d="M307 560c189 0 287 -97 287 -280c0 -176 -105 -280 -287 -280h-211v223h-63v103h63v234h211zM320 223h-92v-120h66c106 0 165 62 165 178c0 120 -54 176 -165 176h-66v-131h92v-103z" />
    <glyph glyph-name="oslash.smcp" horiz-adv-x="673" 
d="M336 569c13 0 25 -1 36 -2l20 65h98l-26 -89c97 -43 157 -138 157 -263c0 -173 -115 -289 -285 -289c-12 0 -25 1 -37 2l-19 -65h-98l27 89c-97 43 -157 138 -157 263c0 173 114 289 284 289zM242 129l100 335c-110 0 -158 -82 -158 -184c0 -67 21 -120 58 -151zM330 96
c110 0 159 82 159 184c0 67 -22 120 -59 152z" />
    <glyph glyph-name="thorn.smcp" horiz-adv-x="546" 
d="M300 465c116 0 195 -73 195 -180s-79 -180 -195 -180h-101v-105h-129v560h129v-95h101zM274 208c53 0 88 31 88 77c0 47 -35 77 -88 77h-75v-154h75z" />
    <glyph glyph-name="dcroat.smcp" horiz-adv-x="646" 
d="M307 560c189 0 287 -97 287 -280c0 -176 -105 -280 -287 -280h-211v223h-63v103h63v234h211zM320 223h-92v-120h66c106 0 165 62 165 178c0 120 -54 176 -165 176h-66v-131h92v-103z" />
    <glyph glyph-name="caron.smcp" horiz-adv-x="459" 
d="M88 677h91l51 -68l50 68h92l-100 -117h-84z" />
    <glyph glyph-name="breve.smcp" horiz-adv-x="424" 
d="M337 679c0 -73 -53 -125 -124 -125c-72 0 -126 52 -126 125h69c0 -35 23 -61 56 -61s57 26 57 61h68z" />
    <glyph glyph-name="dotaccent.smcp" horiz-adv-x="287" 
d="M87 610c0 30 24 55 56 55s56 -25 56 -55s-24 -55 -56 -55s-56 25 -56 55z" />
    <glyph glyph-name="ring.smcp" horiz-adv-x="338" 
d="M87 634c0 45 35 79 82 79c46 0 81 -35 81 -79c0 -45 -35 -80 -81 -80c-47 0 -82 35 -82 80zM140 634c0 -17 13 -30 29 -30s28 14 28 30s-12 29 -28 29s-29 -12 -29 -29z" />
    <glyph glyph-name="tilde.smcp" horiz-adv-x="424" 
d="M88 560c-1 56 26 88 74 88c52 0 69 -39 93 -39c12 0 21 11 20 29h61c1 -57 -25 -89 -73 -89c-53 0 -70 40 -94 40c-12 0 -21 -10 -20 -29h-61z" />
    <glyph glyph-name="hungarumlaut.smcp" horiz-adv-x="460" 
d="M271 685h101l-63 -125h-85zM116 685h99l-47 -125h-80z" />
    <glyph glyph-name="perthousand.smcp" horiz-adv-x="1000" 
d="M169 284c-83 0 -135 56 -135 143s52 142 135 142c81 0 133 -55 133 -142s-52 -143 -133 -143zM92 0l408 560h105l-408 -560h-105zM123 427c0 -42 17 -71 46 -71c27 0 44 27 44 71c0 43 -17 70 -44 70c-29 0 -46 -27 -46 -70zM530 -9c-83 0 -135 56 -135 143
s52 142 135 142c81 0 133 -55 133 -142s-52 -143 -133 -143zM834 -9c-83 0 -135 56 -135 143s52 142 135 142c81 0 133 -55 133 -142s-52 -143 -133 -143zM484 134c0 -42 17 -71 46 -71c27 0 44 28 44 71s-17 70 -44 70c-29 0 -46 -27 -46 -70zM788 134c0 -42 17 -71 46 -71
c27 0 44 28 44 71s-17 70 -44 70c-29 0 -46 -27 -46 -70z" />
    <glyph glyph-name="Euro.smcp" horiz-adv-x="616" 
d="M57 189v71h47v43h-47v71h56c26 123 108 195 228 195s198 -72 214 -200h-123c-7 61 -40 97 -93 97c-50 0 -85 -32 -101 -92h137v-71h-148v-23v-20h148v-71h-138c16 -62 51 -95 101 -95c55 0 89 39 95 104l123 -1c-10 -130 -90 -206 -215 -206c-121 0 -203 73 -229 198h-55
z" />
    <glyph glyph-name="hbar.smcp" horiz-adv-x="691" 
d="M465 560h130v-81h55v-76h-55v-403h-130v232h-239v-232h-130v403h-55v76h55v81h130v-81h239v81zM226 334h239v69h-239v-69z" />
    <glyph glyph-name="indianrupee.smcp" horiz-adv-x="493" 
d="M62 191v85h17c80 0 129 20 149 57h-166v85h169c-13 34 -42 57 -80 57h-89v85h368v-85h-106c13 -17 23 -36 29 -57h77v-85h-77c-18 -66 -78 -116 -162 -129l218 -204h-148z" />
    <glyph glyph-name="lcaron.smcp" horiz-adv-x="482" 
d="M202 103h241v-103h-373v560h132v-457zM308 560h95l-59 -198h-67z" />
    <glyph glyph-name="ldot.smcp" horiz-adv-x="487" 
d="M187 103h241v-103h-373v560h132v-457zM238 298c0 31 24 56 56 56s56 -25 56 -56c0 -30 -24 -55 -56 -55s-56 25 -56 55z" />
    <glyph glyph-name="lslash.smcp" horiz-adv-x="489" 
d="M204 103h241v-103h-373v213l-33 -13v85l33 14v261h132v-207l40 16v-85l-40 -16v-165z" />
    <glyph glyph-name="tbar.smcp" horiz-adv-x="552" 
d="M110 213v87h101v157h-166v103h462v-103h-164v-157h99v-87h-99v-213h-132v213h-101z" />
    <glyph glyph-name="commaaccent.smcp" horiz-adv-x="288" 
d="M111 -50h100l-66 -152h-66z" />
    <glyph glyph-name="kgreenlandic" unicode="&#x138;" horiz-adv-x="576" 
d="M339 291l215 -291h-153l-155 212l-41 -41v-171h-130v514h130v-209l191 209h150z" />
    <glyph glyph-name="uni00A0" unicode="&#xa0;" horiz-adv-x="228" 
 />
    <glyph glyph-name="twosuperior" unicode="&#xb2;" horiz-adv-x="336" 
d="M38 356v54l136 122c29 26 42 42 42 65c0 27 -18 45 -48 45s-49 -18 -50 -50h-80c1 69 54 113 134 113c77 0 129 -40 129 -102c0 -35 -18 -65 -50 -95l-89 -82h140v-70h-264z" />
    <glyph glyph-name="threesuperior" unicode="&#xb3;" horiz-adv-x="344" 
d="M34 460h80c1 -25 24 -44 55 -44s53 19 53 45s-20 41 -56 41h-39v59h39c31 0 50 16 50 42c0 23 -19 39 -47 39s-48 -19 -48 -44h-77c0 64 52 107 127 107c72 0 122 -36 122 -88c0 -42 -25 -73 -67 -82c51 -7 81 -39 81 -83c0 -60 -56 -101 -138 -101
c-79 0 -133 43 -135 109z" />
    <glyph glyph-name="onesuperior" unicode="&#xb9;" horiz-adv-x="242" 
d="M31 563v76l88 61h67v-344h-83v257z" />
    <glyph glyph-name="ordmasculine" unicode="&#xba;" horiz-adv-x="410" 
d="M32 528c0 104 69 177 173 177s174 -73 174 -177c0 -105 -70 -177 -174 -177s-173 72 -173 177zM205 635c-54 0 -89 -40 -89 -107c0 -66 35 -107 89 -107c55 0 89 40 89 107c0 68 -34 107 -89 107z" />
    <glyph glyph-name="zero.numr" horiz-adv-x="385" 
d="M44 528c0 107 53 178 149 178c95 0 148 -71 148 -178c0 -108 -53 -179 -148 -179c-96 0 -149 71 -149 179zM193 632c-43 0 -60 -46 -60 -104s17 -105 60 -105s59 46 59 105s-16 104 -59 104z" />
    <glyph glyph-name="one.numr" horiz-adv-x="273" 
d="M38 557v82l89 61h71v-344h-88v251z" />
    <glyph glyph-name="two.numr" horiz-adv-x="343" 
d="M30 356v55l137 121c20 19 41 38 41 64c0 25 -19 42 -45 42c-29 0 -47 -18 -49 -48h-84c2 73 61 115 137 115c72 0 130 -36 130 -101c0 -40 -23 -73 -60 -105l-75 -69h137v-74h-269z" />
    <glyph glyph-name="three.numr" horiz-adv-x="359" 
d="M38 463h85c0 -27 23 -44 52 -44s51 17 51 43c0 27 -25 39 -56 39l-39 -1v63h37c28 0 52 13 52 39c0 23 -21 37 -45 37c-27 0 -46 -18 -46 -43h-81c0 69 59 109 130 109c62 0 124 -30 124 -90c0 -38 -23 -70 -61 -80c45 -8 74 -39 74 -83c0 -66 -68 -101 -139 -101
c-76 0 -137 40 -138 112z" />
    <glyph glyph-name="four.numr" horiz-adv-x="363" 
d="M196 418h-164v52c1 2 145 216 154 230h98v-212h44v-70h-44v-62h-88v62zM128 488h68v110z" />
    <glyph glyph-name="five.numr" horiz-adv-x="351" 
d="M34 459h83c6 -24 26 -40 52 -40c31 0 53 23 53 54c0 30 -22 54 -52 54c-20 0 -40 -10 -50 -28h-82l19 201h225v-69h-157l-5 -70c19 20 43 27 70 27c68 0 116 -46 116 -114c0 -77 -61 -123 -138 -123c-70 0 -131 37 -134 108z" />
    <glyph glyph-name="six.numr" horiz-adv-x="372" 
d="M191 351c-95 0 -147 66 -147 172c0 108 53 182 148 182c64 0 123 -36 131 -97h-85c-5 21 -23 31 -45 31c-41 0 -66 -40 -66 -96c17 27 50 41 86 41c65 0 115 -45 115 -113c0 -77 -60 -120 -137 -120zM139 472c0 -32 22 -53 52 -53s52 21 52 52c0 30 -22 53 -52 53
s-52 -22 -52 -52z" />
    <glyph glyph-name="seven.numr" horiz-adv-x="309" 
d="M34 700h252v-45l-134 -299h-93l129 272h-154v72z" />
    <glyph glyph-name="eight.numr" horiz-adv-x="369" 
d="M56 615c0 59 65 90 129 90c63 0 128 -31 128 -90c0 -35 -23 -65 -58 -77c42 -12 70 -43 70 -85c0 -67 -68 -102 -140 -102c-73 0 -141 34 -141 101c0 42 28 74 70 86c-34 12 -58 42 -58 77zM228 603c0 24 -17 41 -43 41c-27 0 -45 -17 -45 -41s19 -39 45 -39
c25 0 43 15 43 39zM236 460c0 26 -22 43 -51 43c-30 0 -53 -17 -53 -43c0 -27 23 -44 53 -44c29 0 51 17 51 44z" />
    <glyph glyph-name="nine.numr" horiz-adv-x="371" 
d="M180 705c96 0 147 -65 147 -172s-51 -182 -147 -182c-64 0 -123 37 -131 98h85c5 -21 23 -32 44 -32c43 0 66 40 66 96c-17 -26 -49 -41 -86 -41c-65 0 -114 45 -114 113c0 77 60 120 136 120zM232 585c0 31 -22 52 -52 52c-29 0 -51 -20 -51 -51s23 -53 52 -53
c30 0 51 22 51 52z" />
    <glyph glyph-name="Dcroat" unicode="&#x110;" horiz-adv-x="770" 
d="M364 700c234 0 355 -122 355 -350c0 -220 -131 -350 -355 -350h-249v286h-81v112h81v302h249zM376 286h-122v-175h99c142 0 223 83 223 240c0 162 -73 238 -223 238h-99v-191h122v-112z" />
    <glyph glyph-name="a.sups" horiz-adv-x="409" 
d="M212 746c94 0 143 -45 143 -132v-218h-80l-7 46c-20 -35 -56 -53 -106 -53c-70 0 -120 37 -120 102c0 93 111 114 223 114v7c0 45 -18 67 -60 67c-36 0 -61 -18 -64 -46h-85c3 69 66 113 156 113zM265 526v25c-53 0 -133 -8 -133 -56c0 -29 26 -43 55 -43
c49 0 78 29 78 74z" />
    <glyph glyph-name="b.sups" horiz-adv-x="447" 
d="M58 396v474h91v-182c22 37 63 59 111 59c87 0 147 -73 147 -179c0 -107 -60 -179 -147 -179c-48 0 -89 22 -112 60l-7 -53h-83zM146 568c0 -66 33 -108 84 -108s85 43 85 108s-34 108 -85 108s-84 -42 -84 -108z" />
    <glyph glyph-name="c.sups" horiz-adv-x="410" 
d="M216 460c37 0 63 22 70 60h90c-9 -81 -72 -131 -163 -131c-104 0 -174 72 -174 179s70 179 174 179c91 0 154 -51 163 -131h-90c-7 37 -33 59 -70 59c-53 0 -86 -41 -86 -107c0 -67 33 -108 86 -108z" />
    <glyph glyph-name="d.sups" horiz-adv-x="447" 
d="M387 396h-83l-6 53c-24 -38 -65 -60 -113 -60c-87 0 -147 72 -147 179c0 106 60 179 146 179c48 0 90 -22 112 -59v182h91v-474zM299 568c0 66 -33 108 -85 108c-50 0 -83 -43 -83 -108s33 -108 83 -108c52 0 85 42 85 108z" />
    <glyph glyph-name="e.sups" horiz-adv-x="424" 
d="M381 566v-18h-250c0 -53 32 -91 84 -91c33 0 60 15 72 45h91c-16 -70 -85 -113 -164 -113c-108 0 -175 73 -175 178c0 104 66 180 172 180c110 0 170 -72 170 -181zM132 605h158c-5 47 -32 75 -78 75c-45 0 -75 -30 -80 -75z" />
    <glyph glyph-name="g.sups" horiz-adv-x="440" 
d="M213 336c51 0 81 28 81 86v48c-21 -35 -60 -58 -107 -58c-87 0 -147 67 -147 167s59 168 147 168c46 0 87 -21 108 -57l7 50h82v-312c0 -107 -69 -159 -174 -159c-89 0 -154 47 -162 117h90c6 -30 34 -50 75 -50zM298 579c0 59 -33 99 -83 99c-51 0 -84 -40 -84 -99
c0 -60 33 -100 84 -100c50 0 83 40 83 100z" />
    <glyph glyph-name="i.sups" horiz-adv-x="209" 
d="M105 785c-30 0 -53 22 -53 52s23 51 53 51s53 -21 53 -51s-23 -52 -53 -52zM150 396h-91v344h91v-344z" />
    <glyph glyph-name="l.sups" horiz-adv-x="207" 
d="M149 396h-91v474h91v-474z" />
    <glyph glyph-name="m.sups" horiz-adv-x="614" 
d="M55 740h82l7 -50c20 36 57 57 102 57s78 -22 94 -61c24 40 61 61 110 61c68 0 111 -48 111 -125v-226h-90v211c0 42 -20 65 -55 65c-39 0 -63 -29 -63 -78v-198h-90v211c0 42 -19 65 -54 65c-40 0 -64 -32 -64 -84v-192h-90v344z" />
    <glyph glyph-name="n.sups" horiz-adv-x="420" 
d="M252 747c71 0 115 -47 115 -125v-226h-91v203c0 48 -22 73 -62 73c-42 0 -68 -31 -68 -88v-188h-91v344h83l7 -50c23 37 60 57 107 57z" />
    <glyph glyph-name="o.sups" horiz-adv-x="431" 
d="M216 747c104 0 176 -73 176 -179s-72 -179 -176 -179c-105 0 -176 73 -176 179s71 179 176 179zM215 460c51 0 85 43 85 108c0 66 -34 107 -85 107s-84 -41 -84 -107c0 -65 33 -108 84 -108z" />
    <glyph glyph-name="r.sups" horiz-adv-x="282" 
d="M255 743v-81c-7 2 -15 3 -27 3c-51 0 -82 -37 -82 -101v-168h-91v344h83l7 -51c14 35 47 57 82 57c10 0 20 -1 28 -3z" />
    <glyph glyph-name="s.sups" horiz-adv-x="380" 
d="M137 644c0 -19 16 -29 62 -39l24 -4c84 -18 117 -46 117 -99c0 -70 -56 -113 -147 -113c-88 0 -147 44 -153 114h90c1 -28 28 -48 66 -48c32 0 54 16 54 39c0 20 -15 31 -65 41l-22 5c-78 16 -113 47 -113 99c0 64 56 108 138 108s137 -42 142 -107h-84
c-3 25 -26 42 -58 42c-30 0 -51 -15 -51 -38z" />
    <glyph glyph-name="t.sups" horiz-adv-x="264" 
d="M219 672h-63v-172c0 -27 12 -38 39 -38c12 0 24 3 28 4v-70c-11 -3 -30 -6 -49 -6c-75 0 -109 32 -109 108v174h-42v68h42v82h88v-82h66v-68z" />
    <glyph glyph-name="f.sups" horiz-adv-x="270" 
d="M228 740v-68h-63v-276h-90v276h-49v68h49v23c0 78 33 111 110 111c19 0 38 -2 46 -4v-69c-5 1 -16 3 -25 3c-31 0 -43 -14 -43 -41v-23h65z" />
    <glyph glyph-name="h.sups" horiz-adv-x="422" 
d="M255 747c71 0 115 -47 115 -125v-226h-91v203c0 48 -23 73 -62 73c-43 0 -68 -32 -68 -88v-188h-91v474h91v-180c22 37 59 57 106 57z" />
    <glyph glyph-name="j.sups" horiz-adv-x="200" 
d="M96 785c-30 0 -53 22 -53 52s23 51 53 51c31 0 53 -21 53 -51s-22 -52 -53 -52zM50 740h91v-346c0 -81 -44 -118 -141 -118v69c32 0 50 17 50 48v347z" />
    <glyph glyph-name="k.sups" horiz-adv-x="400" 
d="M241 591l143 -195h-108l-100 139l-27 -27v-112h-91v474h91v-268l125 138h103z" />
    <glyph glyph-name="p.sups" horiz-adv-x="444" 
d="M56 740h82l7 -53c24 41 67 60 112 60c94 0 148 -79 148 -179c0 -98 -55 -179 -148 -179c-45 0 -87 20 -110 59v-172h-91v464zM144 568c0 -65 33 -107 84 -107s85 42 85 107c0 66 -34 108 -85 108s-84 -42 -84 -108z" />
    <glyph glyph-name="q.sups" horiz-adv-x="444" 
d="M405 740v-464h-90v172c-24 -39 -66 -59 -112 -59c-92 0 -147 81 -147 179c0 100 54 179 148 179c45 0 88 -19 112 -60l7 53h82zM318 568c0 66 -34 108 -85 108s-85 -42 -85 -108c0 -65 34 -107 85 -107s85 42 85 107z" />
    <glyph glyph-name="u.sups" horiz-adv-x="420" 
d="M168 389c-71 0 -114 47 -114 125v226h91v-202c0 -48 22 -74 61 -74c43 0 68 31 68 88v188h92v-344h-83l-7 50c-24 -38 -61 -57 -108 -57z" />
    <glyph glyph-name="v.sups" horiz-adv-x="399" 
d="M277 740h96l-129 -344h-88l-130 344h96l78 -240z" />
    <glyph glyph-name="w.sups" horiz-adv-x="571" 
d="M28 740h92l64 -237l68 237h68l67 -237l64 237h93l-107 -344h-88l-63 214l-64 -214h-88z" />
    <glyph glyph-name="x.sups" horiz-adv-x="406" 
d="M252 574l125 -178h-103l-71 113l-70 -113h-103l123 178l-118 166h102l66 -105l66 105h102z" />
    <glyph glyph-name="y.sups" horiz-adv-x="399" 
d="M277 740h95l-174 -464h-95l56 134l-133 330h96l80 -229z" />
    <glyph glyph-name="z.sups" horiz-adv-x="399" 
d="M173 468h176v-72h-301v45l177 226h-164v73h288v-45z" />
    <glyph glyph-name="ordfeminine" unicode="&#xaa;" horiz-adv-x="396" 
d="M203 706c94 0 144 -45 144 -132v-218h-80l-7 46c-20 -35 -57 -53 -106 -53c-71 0 -121 37 -121 102c0 93 111 114 224 114v7c0 45 -19 67 -60 67c-36 0 -61 -18 -64 -46h-86c4 69 66 113 156 113zM257 486v25c-54 0 -134 -8 -134 -56c0 -29 27 -43 56 -43
c48 0 78 29 78 74z" />
    <glyph glyph-name="circumflex.smcp" horiz-adv-x="459" 
d="M88 552l100 117h84l99 -117h-91l-50 67l-51 -67h-91z" />
    <glyph glyph-name="dotlessj" horiz-adv-x="272" 
d="M78 528h129v-533c0 -120 -65 -175 -205 -175v100c49 0 76 26 76 74v534z" />
    <glyph glyph-name="uni2215" unicode="&#x2215;" horiz-adv-x="427" 
d="M144 -150h-125l263 880h125z" />
    <glyph glyph-name="registered" unicode="&#xae;" horiz-adv-x="587" 
d="M293 800c141 0 237 -97 237 -238s-96 -238 -237 -238c-140 0 -237 97 -237 238s97 238 237 238zM293 389c102 0 169 69 169 173s-67 173 -169 173c-101 0 -168 -69 -168 -173s67 -173 168 -173zM208 460v208h99c49 0 84 -31 84 -74c0 -29 -13 -52 -35 -63l41 -71h-74
l-27 57h-20v-57h-68zM294 565c19 0 29 9 29 25c0 15 -10 24 -29 24h-18v-49h18z" />
    <glyph glyph-name="eth" unicode="&#xf0;" horiz-adv-x="634" 
d="M313 -10c-147 0 -258 95 -258 240c0 131 91 235 230 235c68 0 135 -21 170 -67c-5 68 -28 124 -69 160l-103 -68v81l36 24c-21 7 -44 10 -70 10c-30 0 -68 -4 -96 -16v103c30 14 78 18 110 18c68 0 124 -15 168 -41l89 60v-81l-34 -23c67 -71 94 -180 94 -304v-35
c0 -165 -94 -296 -267 -296zM181 234c0 -72 54 -136 134 -136c78 0 130 61 130 132c0 73 -55 134 -135 134c-77 0 -129 -59 -129 -130z" />
    <glyph glyph-name="arrowright" unicode="&#x2192;" horiz-adv-x="871" 
d="M433 566l67 67l284 -284l-284 -284l-67 67l170 170h-515v94h515z" />
    <glyph glyph-name="arrowleft" unicode="&#x2190;" horiz-adv-x="871" 
d="M372 633l67 -67l-170 -170h515v-94h-515l170 -170l-67 -67l-284 284z" />
    <glyph glyph-name="arrowup" unicode="&#x2191;" horiz-adv-x="744" 
d="M155 354l-67 67l284 284l284 -284l-67 -67l-170 170v-515h-94v515z" />
    <glyph glyph-name="arrowdown" unicode="&#x2193;" horiz-adv-x="744" 
d="M88 294l67 67l170 -170v515h94v-515l170 170l67 -67l-284 -284z" />
    <glyph glyph-name="arrowupdn" unicode="&#x2195;" horiz-adv-x="672" 
d="M518 200l66 -67l-248 -249l-249 249l68 67l133 -134v492l-133 -133l-68 67l249 248l248 -248l-66 -67l-135 134v-493z" />
    <glyph glyph-name="uni2196" unicode="&#x2196;" horiz-adv-x="702" 
d="M182 538v-241h-94v402l402 1v-95h-240l364 -364l-67 -67z" />
    <glyph glyph-name="uni2197" unicode="&#x2197;" horiz-adv-x="702" 
d="M520 297v241l-365 -364l-67 67l364 364h-240v95l402 -1v-402h-94z" />
    <glyph glyph-name="uni2198" unicode="&#x2198;" horiz-adv-x="702" 
d="M520 162v241h94v-402l-402 -1v95h240l-364 364l67 67z" />
    <glyph glyph-name="uni2199" unicode="&#x2199;" horiz-adv-x="702" 
d="M182 403v-241l365 364l67 -67l-364 -364h240v-95l-402 1v402h94z" />
    <glyph glyph-name="arrowboth" unicode="&#x2194;" horiz-adv-x="1031" 
d="M403 167l-67 -66l-249 248l249 249l67 -68l-134 -133h492l-133 133l67 68l248 -249l-248 -248l-67 66l134 135h-493z" />
    <glyph glyph-name="florin.smcp" horiz-adv-x="422" 
d="M277 153c0 -115 -49 -164 -165 -164c-29 0 -56 3 -67 6v100c7 -1 23 -4 38 -4c46 0 65 22 65 63v114h-72v98h72v37c0 116 48 165 163 165c28 0 55 -3 65 -7v-99c-6 1 -22 4 -37 4c-46 0 -65 -22 -65 -63v-37h98v-98h-95v-115z" />
    <glyph glyph-name="ogonek.smcp" horiz-adv-x="313" 
d="M155 0h49c-25 -14 -45 -44 -45 -73c0 -35 31 -46 67 -43v-65c-10 -2 -22 -3 -35 -3c-60 0 -103 30 -103 82c0 43 29 83 67 102z" />
    <glyph glyph-name="trademark" unicode="&#x2122;" horiz-adv-x="883" 
d="M62 700h292v-72h-104v-272h-84v272h-104v72zM682 700h114v-344h-87v221l-89 -216h-41l-89 216v-221h-86v344h113l83 -214z" />
    <glyph glyph-name="parenleft.case" horiz-adv-x="394" 
d="M105 341c0 166 53 326 146 439h112c-85 -125 -128 -273 -128 -439c0 -165 44 -315 128 -441h-112c-93 114 -146 275 -146 441z" />
    <glyph glyph-name="parenright.case" horiz-adv-x="394" 
d="M290 341c0 -166 -53 -327 -146 -441h-112c84 126 128 276 128 441c0 166 -43 314 -128 439h112c93 -113 146 -273 146 -439z" />
    <glyph glyph-name="plus.case" horiz-adv-x="654" 
d="M73 395h194v207h120v-207h194v-113h-194v-207h-120v207h-194v113z" />
    <glyph glyph-name="hyphen.case" horiz-adv-x="464" 
d="M391 282h-318v112h318v-112z" />
    <glyph glyph-name="less.case" horiz-adv-x="657" 
d="M557 180v-130l-457 233v104l457 233v-130l-337 -155z" />
    <glyph glyph-name="equal.case" horiz-adv-x="649" 
d="M566 400h-484v108h484v-108zM82 170v108h484v-108h-484z" />
    <glyph glyph-name="greater.case" horiz-adv-x="657" 
d="M100 50v130l337 155l-337 155v130l457 -233v-104z" />
    <glyph glyph-name="bracketleft.case" horiz-adv-x="399" 
d="M371 -1v-99h-264v880h264v-99h-134v-682h134z" />
    <glyph glyph-name="backslash.case" horiz-adv-x="427" 
d="M407 -100h-125l-263 880h125z" />
    <glyph glyph-name="bracketright.case" horiz-adv-x="399" 
d="M28 -100v99h134v682h-134v99h264v-880h-264z" />
    <glyph glyph-name="braceleft.case" horiz-adv-x="409" 
d="M28 287v110c71 0 101 33 101 113v101c0 126 64 169 181 169c30 0 71 -3 71 -3v-97s-13 1 -22 1c-69 0 -100 -16 -100 -89v-96c0 -75 -43 -140 -89 -154c47 -16 89 -79 89 -154v-98c0 -75 31 -91 100 -91c9 0 22 1 22 1v-96s-41 -4 -71 -4c-117 0 -181 43 -181 171v102
c0 81 -30 114 -101 114z" />
    <glyph glyph-name="bar.case" horiz-adv-x="386" 
d="M259 -100h-132v880h132v-880z" />
    <glyph glyph-name="braceright.case" horiz-adv-x="409" 
d="M381 397v-110c-71 0 -101 -33 -101 -114v-102c0 -128 -64 -171 -181 -171c-30 0 -71 4 -71 4v96s13 -1 22 -1c69 0 100 16 100 91v98c0 75 42 138 89 154c-46 14 -89 79 -89 154v96c0 73 -31 89 -100 89c-9 0 -22 -1 -22 -1v97s41 3 71 3c117 0 181 -43 181 -169v-101
c0 -80 30 -113 101 -113z" />
    <glyph glyph-name="asciitilde.case" horiz-adv-x="678" 
d="M81 270c-2 112 56 180 154 180c114 0 144 -98 207 -98c33 0 52 28 52 76h104c1 -114 -56 -180 -154 -180c-115 0 -145 98 -209 98c-33 0 -51 -27 -50 -76h-104z" />
    <glyph glyph-name="exclamdown.case" horiz-adv-x="342" 
d="M100 638c0 40 32 71 74 71s74 -31 74 -71c0 -41 -32 -72 -74 -72s-74 31 -74 72zM101 0l13 472h111l14 -472h-138z" />
    <glyph glyph-name="guillemotleft.case" horiz-adv-x="663" 
d="M367 126h-132l-164 214l164 214h132l-168 -214zM592 126h-132l-164 214l164 214h132l-168 -214z" />
    <glyph glyph-name="plusminus.case" horiz-adv-x="642" 
d="M81 450h184v144h116v-144h180v-102h-180v-143h-116v143h-184v102zM81 50v102h480v-102h-480z" />
    <glyph glyph-name="periodcentered.case" horiz-adv-x="332" 
d="M95 334c0 41 32 72 74 72s74 -31 74 -72c0 -40 -32 -71 -74 -71s-74 31 -74 71z" />
    <glyph glyph-name="guillemotright.case" horiz-adv-x="663" 
d="M203 126h-132l168 214l-168 214h132l164 -214zM428 126h-132l168 214l-168 214h132l164 -214z" />
    <glyph glyph-name="questiondown.case" horiz-adv-x="552" 
d="M302 706c41 0 76 -35 76 -74s-35 -72 -75 -72s-75 33 -75 72c0 38 32 74 74 74zM384 190h126c-3 -126 -99 -203 -232 -203c-125 0 -223 66 -223 189c0 167 185 147 187 261l1 49h121l1 -57c2 -154 -178 -137 -178 -249c0 -56 43 -89 95 -89c57 0 100 37 102 99z" />
    <glyph glyph-name="multiply.case" horiz-adv-x="658" 
d="M107 195l142 141l-142 141l83 83l139 -142l139 142l83 -83l-142 -141l142 -141l-83 -83l-139 143l-139 -143z" />
    <glyph glyph-name="divide.case" horiz-adv-x="621" 
d="M240 527c0 42 30 69 73 69s72 -27 72 -69c0 -41 -29 -69 -72 -69s-73 28 -73 69zM546 288h-472v104h472v-104zM240 153c0 42 30 69 73 69s72 -27 72 -69c0 -41 -29 -69 -72 -69s-73 28 -73 69z" />
    <glyph glyph-name="zero.tnum" 
d="M50 350c0 225 106 361 281 361s281 -136 281 -361s-106 -361 -281 -361s-281 136 -281 361zM331 599c-95 0 -147 -87 -147 -249s52 -249 147 -249c96 0 147 86 147 249s-51 249 -147 249z" />
    <glyph glyph-name="one.tnum" 
d="M163 444v129l168 127h108v-700h-132v553z" />
    <glyph glyph-name="two.tnum" 
d="M80 0v84l281 264c61 57 89 97 89 145c0 69 -47 114 -119 114c-69 0 -116 -42 -121 -113h-129c5 129 109 216 256 216c145 0 246 -85 246 -208c0 -72 -36 -135 -110 -205l-197 -187h309v-110h-505z" />
    <glyph glyph-name="three.tnum" 
d="M67 206h128c2 -65 57 -111 132 -111s129 47 129 111c0 65 -49 104 -130 104h-83v97h83c65 0 110 44 110 104c0 56 -46 97 -110 97c-65 0 -113 -45 -114 -107h-124c0 122 102 210 241 210c135 0 234 -77 234 -180c0 -82 -51 -147 -130 -166c96 -16 158 -83 158 -172
c0 -119 -110 -204 -264 -204c-151 0 -257 88 -260 217z" />
    <glyph glyph-name="four.tnum" 
d="M389 138h-339v83l336 479h135v-455h95v-107h-95v-138h-132v138zM198 245h191v286z" />
    <glyph glyph-name="five.tnum" 
d="M82 198h128c11 -63 63 -103 128 -103c80 0 135 58 135 136c0 77 -55 136 -132 136c-48 0 -101 -23 -124 -67h-126l40 400h422v-106h-319l-18 -193c38 46 94 65 153 65c137 0 233 -96 233 -232c0 -146 -110 -245 -263 -245c-139 0 -248 79 -257 209z" />
    <glyph glyph-name="six.tnum" 
d="M344 -11c-179 0 -282 127 -282 351c0 229 109 371 283 371c132 0 231 -76 249 -187h-130c-14 54 -58 84 -117 84c-97 0 -159 -94 -159 -247c31 62 98 105 187 105c132 0 229 -92 229 -231c0 -149 -103 -246 -260 -246zM212 232c0 -80 55 -136 132 -136s131 55 131 135
c0 76 -56 135 -131 135c-77 0 -132 -56 -132 -134z" />
    <glyph glyph-name="seven.tnum" 
d="M90 700h475v-74l-281 -626h-140l277 590h-331v110z" />
    <glyph glyph-name="eight.tnum" 
d="M88 529c0 105 103 182 243 182c141 0 243 -77 243 -183c0 -72 -48 -133 -124 -157c92 -24 150 -93 150 -178c0 -120 -110 -204 -269 -204s-268 83 -268 203c0 86 58 155 150 179c-76 24 -125 86 -125 158zM446 510c0 60 -48 102 -115 102s-114 -42 -114 -102
c0 -58 46 -98 114 -98s115 40 115 98zM466 204c0 65 -56 112 -135 112s-134 -47 -134 -112c0 -66 55 -113 134 -113s135 47 135 113z" />
    <glyph glyph-name="nine.tnum" 
d="M319 711c181 0 281 -125 281 -351c0 -229 -105 -371 -283 -371c-131 0 -230 77 -248 187h130c14 -54 58 -84 116 -84c100 0 159 94 159 247c-31 -63 -99 -105 -186 -105c-131 0 -229 93 -229 231c0 149 103 246 260 246zM451 468c0 80 -55 136 -132 136
s-131 -56 -131 -135c0 -76 56 -135 131 -135c77 0 132 57 132 134z" />
    <glyph glyph-name="zero.onum" horiz-adv-x="612" 
d="M50 309c0 200 96 320 256 320c159 0 256 -120 256 -320c0 -199 -97 -320 -256 -320c-160 0 -256 121 -256 320zM306 517c-79 0 -123 -72 -123 -207s44 -208 123 -208s122 72 122 208c0 135 -43 207 -122 207z" />
    <glyph glyph-name="one.onum" horiz-adv-x="453" 
d="M82 374v129l144 117h108v-620h-132v473z" />
    <glyph glyph-name="two.onum" horiz-adv-x="575" 
d="M59 0v86l247 222c58 52 78 84 78 125c0 56 -39 94 -98 94c-56 0 -95 -34 -99 -91h-126c4 116 99 194 233 194c132 0 221 -76 221 -193c0 -62 -25 -117 -112 -193l-150 -134h264v-110h-458z" />
    <glyph glyph-name="three.onum" horiz-adv-x="638" 
d="M54 126h129c2 -65 57 -111 131 -111c76 0 130 47 130 111c0 65 -49 104 -130 104h-83v97h83c65 0 110 44 110 104c0 56 -46 97 -110 97c-65 0 -113 -45 -114 -107h-125c1 122 103 210 242 210c134 0 234 -77 234 -180c0 -82 -51 -147 -130 -166c96 -16 157 -83 157 -172
c0 -119 -109 -204 -264 -204c-150 0 -257 88 -260 217z" />
    <glyph glyph-name="four.onum" 
d="M389 58h-339v83l336 479h134v-455h96v-107h-96v-138h-131v138zM198 165h191v286z" />
    <glyph glyph-name="five.onum" horiz-adv-x="640" 
d="M70 118h128c12 -63 63 -103 129 -103c80 0 135 58 135 136c0 77 -56 136 -133 136c-48 0 -101 -23 -124 -67h-126l41 400h422v-106h-320l-18 -193c39 46 94 65 154 65c137 0 233 -96 233 -232c0 -146 -111 -245 -264 -245c-138 0 -248 79 -257 209z" />
    <glyph glyph-name="six.onum" horiz-adv-x="651" 
d="M338 -11c-179 0 -282 127 -282 351c0 229 109 371 283 371c132 0 232 -76 249 -187h-130c-14 54 -58 84 -116 84c-98 0 -160 -94 -160 -247c31 62 98 105 187 105c133 0 229 -92 229 -231c0 -149 -103 -246 -260 -246zM207 232c0 -80 54 -136 131 -136s131 55 131 135
c0 76 -56 135 -131 135c-76 0 -131 -56 -131 -134z" />
    <glyph glyph-name="seven.onum" horiz-adv-x="575" 
d="M46 620h476v-74l-282 -626h-140l278 590h-332v110z" />
    <glyph glyph-name="eight.onum" horiz-adv-x="649" 
d="M81 529c0 105 103 182 243 182c141 0 244 -77 244 -183c0 -72 -49 -133 -125 -157c92 -24 150 -93 150 -178c0 -120 -110 -204 -269 -204c-158 0 -268 83 -268 203c0 86 58 155 150 179c-76 24 -125 86 -125 158zM439 510c0 60 -48 102 -115 102s-114 -42 -114 -102
c0 -58 46 -98 114 -98s115 40 115 98zM459 204c0 65 -56 112 -135 112c-78 0 -134 -47 -134 -112c0 -66 56 -113 134 -113c79 0 135 47 135 113z" />
    <glyph glyph-name="nine.onum" horiz-adv-x="650" 
d="M312 631c181 0 282 -125 282 -351c0 -229 -105 -371 -283 -371c-132 0 -231 77 -248 187h129c15 -54 59 -84 117 -84c100 0 159 94 159 247c-31 -63 -99 -105 -187 -105c-131 0 -228 93 -228 231c0 149 103 246 259 246zM444 388c0 80 -54 136 -132 136
c-77 0 -130 -56 -130 -135c0 -76 56 -135 131 -135c76 0 131 57 131 134z" />
    <glyph glyph-name="plus.tnum" 
d="M77 345h194v207h120v-207h194v-113h-194v-207h-120v207h-194v113z" />
    <glyph glyph-name="less.tnum" 
d="M560 130v-130l-457 233v104l457 233v-130l-337 -155z" />
    <glyph glyph-name="equal.tnum" 
d="M573 350h-484v108h484v-108zM89 120v108h484v-108h-484z" />
    <glyph glyph-name="greater.tnum" 
d="M102 0v130l337 155l-337 155v130l457 -233v-104z" />
    <glyph glyph-name="multiply.tnum" 
d="M109 145l142 141l-142 141l83 83l139 -142l139 142l83 -83l-142 -141l142 -141l-83 -83l-139 143l-139 -143z" />
    <glyph glyph-name="divide.tnum" 
d="M261 477c0 42 29 69 73 69c43 0 72 -27 72 -69c0 -41 -29 -69 -72 -69c-44 0 -73 28 -73 69zM567 238h-472v104h472v-104zM261 103c0 42 29 69 73 69c43 0 72 -27 72 -69c0 -41 -29 -69 -72 -69c-44 0 -73 28 -73 69z" />
    <glyph glyph-name="minus.tnum" 
d="M589 232h-516v112h516v-112z" />
    <glyph glyph-name="approxequal.tnum" 
d="M73 319c0 102 60 162 156 162c114 0 139 -86 201 -86c32 0 55 23 56 58h104c-1 -102 -60 -161 -156 -161c-116 0 -140 86 -204 86c-32 0 -53 -22 -53 -59h-104zM73 84c0 101 60 162 156 162c114 0 139 -86 201 -86c32 0 55 22 56 58h104c-1 -102 -60 -162 -156 -162
c-116 0 -140 86 -204 86c-32 0 -53 -22 -53 -58h-104z" />
    <glyph glyph-name="notequal.tnum" 
d="M64 120v108h158l48 122h-206v108h249l37 92h121l-36 -92h113v-108h-156l-48 -122h204v-108h-247l-37 -92h-121l36 92h-115z" />
    <glyph glyph-name="lessequal.tnum" 
d="M579 177l-496 147v103l496 149v-122l-328 -78l328 -77v-122zM579 30h-496v103h496v-103z" />
    <glyph glyph-name="greaterequal.tnum" 
d="M83 177v122l328 77l-328 78v122l496 -149v-103zM83 30v103h496v-103h-496z" />
    <glyph glyph-name="bullet.case" horiz-adv-x="425" 
d="M88 335c0 68 53 121 124 121s124 -53 124 -121s-53 -121 -124 -121s-124 53 -124 121z" />
    <glyph glyph-name="uni2219.case" horiz-adv-x="450" 
d="M86 335c0 68 53 121 124 121s124 -53 124 -121s-53 -121 -124 -121s-124 53 -124 121z" />
    <glyph glyph-name="infinity.case" horiz-adv-x="917" 
d="M45 337c0 135 110 200 202 200c60 0 137 -25 211 -124c74 99 152 124 212 124c92 0 201 -65 201 -200c0 -134 -109 -200 -201 -200c-60 0 -138 25 -212 124c-74 -99 -151 -124 -211 -124c-92 0 -202 66 -202 200zM661 436c-55 0 -98 -39 -144 -99c46 -59 89 -98 144 -98
c54 0 96 48 96 98s-42 99 -96 99zM159 337c0 -50 42 -98 96 -98c56 0 98 39 144 98c-46 60 -88 99 -144 99c-54 0 -96 -49 -96 -99z" />
    <glyph glyph-name="zero.tnum.onum" 
d="M75 309c0 200 96 320 256 320c159 0 256 -120 256 -320c0 -199 -97 -320 -256 -320c-160 0 -256 121 -256 320zM331 517c-79 0 -123 -72 -123 -207s44 -208 123 -208s122 72 122 208c0 135 -43 207 -122 207z" />
    <glyph glyph-name="one.tnum.onum" 
d="M187 374v129l144 117h108v-620h-132v473z" />
    <glyph glyph-name="two.tnum.onum" 
d="M103 0v86l247 222c58 52 78 84 78 125c0 56 -39 94 -98 94c-57 0 -95 -34 -99 -91h-127c5 116 99 194 234 194c132 0 221 -76 221 -193c0 -62 -25 -117 -113 -193l-149 -134h264v-110h-458z" />
    <glyph glyph-name="three.tnum.onum" 
d="M67 126h128c2 -65 57 -111 132 -111s129 47 129 111c0 65 -49 104 -130 104h-83v97h83c65 0 110 44 110 104c0 56 -46 97 -110 97c-65 0 -113 -45 -114 -107h-124c0 122 102 210 241 210c135 0 234 -77 234 -180c0 -82 -51 -147 -130 -166c96 -16 158 -83 158 -172
c0 -119 -110 -204 -264 -204c-151 0 -257 88 -260 217z" />
    <glyph glyph-name="four.tnum.onum" 
d="M389 58h-339v83l336 479h135v-455h95v-107h-95v-138h-132v138zM198 165h191v286z" />
    <glyph glyph-name="five.tnum.onum" 
d="M82 118h128c11 -63 63 -103 128 -103c80 0 135 58 135 136c0 77 -55 136 -132 136c-48 0 -101 -23 -124 -67h-126l40 400h422v-106h-319l-18 -193c38 46 94 65 153 65c137 0 233 -96 233 -232c0 -146 -110 -245 -263 -245c-139 0 -248 79 -257 209z" />
    <glyph glyph-name="six.tnum.onum" 
d="M344 -11c-179 0 -282 127 -282 351c0 229 109 371 283 371c132 0 231 -76 249 -187h-130c-14 54 -58 84 -117 84c-97 0 -159 -94 -159 -247c31 62 98 105 187 105c132 0 229 -92 229 -231c0 -149 -103 -246 -260 -246zM212 232c0 -80 55 -136 132 -136s131 55 131 135
c0 76 -56 135 -131 135c-77 0 -132 -56 -132 -134z" />
    <glyph glyph-name="seven.tnum.onum" 
d="M90 620h475v-74l-281 -626h-140l277 590h-331v110z" />
    <glyph glyph-name="eight.tnum.onum" 
d="M88 529c0 105 103 182 243 182c141 0 243 -77 243 -183c0 -72 -48 -133 -124 -157c92 -24 150 -93 150 -178c0 -120 -110 -204 -269 -204s-268 83 -268 203c0 86 58 155 150 179c-76 24 -125 86 -125 158zM446 510c0 60 -48 102 -115 102s-114 -42 -114 -102
c0 -58 46 -98 114 -98s115 40 115 98zM466 204c0 65 -56 112 -135 112s-134 -47 -134 -112c0 -66 55 -113 134 -113s135 47 135 113z" />
    <glyph glyph-name="nine.tnum.onum" 
d="M319 631c181 0 281 -125 281 -351c0 -229 -105 -371 -283 -371c-131 0 -230 77 -248 187h130c14 -54 58 -84 116 -84c100 0 159 94 159 247c-31 -63 -99 -105 -186 -105c-131 0 -229 93 -229 231c0 149 103 246 260 246zM451 388c0 80 -55 136 -132 136
s-131 -56 -131 -135c0 -76 56 -135 131 -135c77 0 132 57 132 134z" />
    <glyph glyph-name="zero.dnom" horiz-adv-x="385" 
d="M44 168c0 107 53 178 149 178c95 0 148 -71 148 -178c0 -108 -53 -179 -148 -179c-96 0 -149 71 -149 179zM193 272c-43 0 -60 -46 -60 -104s17 -105 60 -105s59 46 59 105s-16 104 -59 104z" />
    <glyph glyph-name="one.dnom" horiz-adv-x="273" 
d="M38 197v82l89 61h71v-344h-88v251z" />
    <glyph glyph-name="two.dnom" horiz-adv-x="343" 
d="M30 -4v55l137 121c20 19 41 38 41 64c0 25 -19 42 -45 42c-29 0 -47 -18 -49 -48h-84c2 73 61 115 137 115c72 0 130 -36 130 -101c0 -40 -23 -73 -60 -105l-75 -69h137v-74h-269z" />
    <glyph glyph-name="three.dnom" horiz-adv-x="359" 
d="M38 103h85c0 -27 23 -44 52 -44s51 17 51 43c0 27 -25 39 -56 39l-39 -1v63h37c28 0 52 13 52 39c0 23 -21 37 -45 37c-27 0 -46 -18 -46 -43h-81c0 69 59 109 130 109c62 0 124 -30 124 -90c0 -38 -23 -70 -61 -80c45 -8 74 -39 74 -83c0 -66 -68 -101 -139 -101
c-76 0 -137 40 -138 112z" />
    <glyph glyph-name="four.dnom" horiz-adv-x="363" 
d="M196 58h-164v52c1 2 145 216 154 230h98v-212h44v-70h-44v-62h-88v62zM128 128h68v110z" />
    <glyph glyph-name="five.dnom" horiz-adv-x="351" 
d="M34 99h83c6 -24 26 -40 52 -40c31 0 53 23 53 54c0 30 -22 54 -52 54c-20 0 -40 -10 -50 -28h-82l19 201h225v-69h-157l-5 -70c19 20 43 27 70 27c68 0 116 -46 116 -114c0 -77 -61 -123 -138 -123c-70 0 -131 37 -134 108z" />
    <glyph glyph-name="six.dnom" horiz-adv-x="372" 
d="M191 -9c-95 0 -147 66 -147 172c0 108 53 182 148 182c64 0 123 -36 131 -97h-85c-5 21 -23 31 -45 31c-41 0 -66 -40 -66 -96c17 27 50 41 86 41c65 0 115 -45 115 -113c0 -77 -60 -120 -137 -120zM139 112c0 -32 22 -53 52 -53s52 21 52 52c0 30 -22 53 -52 53
s-52 -22 -52 -52z" />
    <glyph glyph-name="seven.dnom" horiz-adv-x="309" 
d="M34 340h252v-45l-134 -299h-93l129 272h-154v72z" />
    <glyph glyph-name="eight.dnom" horiz-adv-x="369" 
d="M56 255c0 59 65 90 129 90c63 0 128 -31 128 -90c0 -35 -23 -65 -58 -77c42 -12 70 -43 70 -85c0 -67 -68 -102 -140 -102c-73 0 -141 34 -141 101c0 42 28 74 70 86c-34 12 -58 42 -58 77zM228 243c0 24 -17 41 -43 41c-27 0 -45 -17 -45 -41s19 -39 45 -39
c25 0 43 15 43 39zM236 100c0 26 -22 43 -51 43c-30 0 -53 -17 -53 -43c0 -27 23 -44 53 -44c29 0 51 17 51 44z" />
    <glyph glyph-name="nine.dnom" horiz-adv-x="371" 
d="M180 345c96 0 147 -65 147 -172s-51 -182 -147 -182c-64 0 -123 37 -131 98h85c5 -21 23 -32 44 -32c43 0 66 40 66 96c-17 -26 -49 -41 -86 -41c-65 0 -114 45 -114 113c0 77 60 120 136 120zM232 225c0 31 -22 52 -52 52c-29 0 -51 -20 -51 -51s23 -53 52 -53
c30 0 51 22 51 52z" />
    <glyph glyph-name="zero.sups" horiz-adv-x="385" 
d="M44 568c0 107 53 178 149 178c95 0 148 -71 148 -178c0 -108 -53 -179 -148 -179c-96 0 -149 71 -149 179zM193 672c-43 0 -60 -46 -60 -104s17 -105 60 -105s59 46 59 105s-16 104 -59 104z" />
    <glyph glyph-name="one.sups" horiz-adv-x="273" 
d="M38 597v82l89 61h71v-344h-88v251z" />
    <glyph glyph-name="two.sups" horiz-adv-x="343" 
d="M30 396v55l137 121c20 19 41 38 41 64c0 25 -19 42 -45 42c-29 0 -47 -18 -49 -48h-84c2 73 61 115 137 115c72 0 130 -36 130 -101c0 -40 -23 -73 -60 -105l-75 -69h137v-74h-269z" />
    <glyph glyph-name="three.sups" horiz-adv-x="359" 
d="M38 503h85c0 -27 23 -44 52 -44s51 17 51 43c0 27 -25 39 -56 39l-39 -1v63h37c28 0 52 13 52 39c0 23 -21 37 -45 37c-27 0 -46 -18 -46 -43h-81c0 69 59 109 130 109c62 0 124 -30 124 -90c0 -38 -23 -70 -61 -80c45 -8 74 -39 74 -83c0 -66 -68 -101 -139 -101
c-76 0 -137 40 -138 112z" />
    <glyph glyph-name="four.sups" horiz-adv-x="363" 
d="M196 458h-164v52c1 2 145 216 154 230h98v-212h44v-70h-44v-62h-88v62zM128 528h68v110z" />
    <glyph glyph-name="five.sups" horiz-adv-x="351" 
d="M34 499h83c6 -24 26 -40 52 -40c31 0 53 23 53 54c0 30 -22 54 -52 54c-20 0 -40 -10 -50 -28h-82l19 201h225v-69h-157l-5 -70c19 20 43 27 70 27c68 0 116 -46 116 -114c0 -77 -61 -123 -138 -123c-70 0 -131 37 -134 108z" />
    <glyph glyph-name="six.sups" horiz-adv-x="372" 
d="M191 391c-95 0 -147 66 -147 172c0 108 53 182 148 182c64 0 123 -36 131 -97h-85c-5 21 -23 31 -45 31c-41 0 -66 -40 -66 -96c17 27 50 41 86 41c65 0 115 -45 115 -113c0 -77 -60 -120 -137 -120zM139 512c0 -32 22 -53 52 -53s52 21 52 52c0 30 -22 53 -52 53
s-52 -22 -52 -52z" />
    <glyph glyph-name="seven.sups" horiz-adv-x="309" 
d="M34 740h252v-45l-134 -299h-93l129 272h-154v72z" />
    <glyph glyph-name="eight.sups" horiz-adv-x="369" 
d="M56 655c0 59 65 90 129 90c63 0 128 -31 128 -90c0 -35 -23 -65 -58 -77c42 -12 70 -43 70 -85c0 -67 -68 -102 -140 -102c-73 0 -141 34 -141 101c0 42 28 74 70 86c-34 12 -58 42 -58 77zM228 643c0 24 -17 41 -43 41c-27 0 -45 -17 -45 -41s19 -39 45 -39
c25 0 43 15 43 39zM236 500c0 26 -22 43 -51 43c-30 0 -53 -17 -53 -43c0 -27 23 -44 53 -44c29 0 51 17 51 44z" />
    <glyph glyph-name="nine.sups" horiz-adv-x="371" 
d="M180 745c96 0 147 -65 147 -172s-51 -182 -147 -182c-64 0 -123 37 -131 98h85c5 -21 23 -32 44 -32c43 0 66 40 66 96c-17 -26 -49 -41 -86 -41c-65 0 -114 45 -114 113c0 77 60 120 136 120zM232 625c0 31 -22 52 -52 52c-29 0 -51 -20 -51 -51s23 -53 52 -53
c30 0 51 22 51 52z" />
    <glyph glyph-name="zero.subs" horiz-adv-x="385" 
d="M44 88c0 107 53 178 149 178c95 0 148 -71 148 -178c0 -108 -53 -179 -148 -179c-96 0 -149 71 -149 179zM193 192c-43 0 -60 -46 -60 -104s17 -105 60 -105s59 46 59 105s-16 104 -59 104z" />
    <glyph glyph-name="one.subs" horiz-adv-x="273" 
d="M38 117v82l89 61h71v-344h-88v251z" />
    <glyph glyph-name="two.subs" horiz-adv-x="343" 
d="M30 -84v55l137 121c20 19 41 38 41 64c0 25 -19 42 -45 42c-29 0 -47 -18 -49 -48h-84c2 73 61 115 137 115c72 0 130 -36 130 -101c0 -40 -23 -73 -60 -105l-75 -69h137v-74h-269z" />
    <glyph glyph-name="three.subs" horiz-adv-x="359" 
d="M38 23h85c0 -27 23 -44 52 -44s51 17 51 43c0 27 -25 39 -56 39l-39 -1v63h37c28 0 52 13 52 39c0 23 -21 37 -45 37c-27 0 -46 -18 -46 -43h-81c0 69 59 109 130 109c62 0 124 -30 124 -90c0 -38 -23 -70 -61 -80c45 -8 74 -39 74 -83c0 -66 -68 -101 -139 -101
c-76 0 -137 40 -138 112z" />
    <glyph glyph-name="four.subs" horiz-adv-x="363" 
d="M196 -22h-164v52c1 2 145 216 154 230h98v-212h44v-70h-44v-62h-88v62zM128 48h68v110z" />
    <glyph glyph-name="five.subs" horiz-adv-x="351" 
d="M34 19h83c6 -24 26 -40 52 -40c31 0 53 23 53 54c0 30 -22 54 -52 54c-20 0 -40 -10 -50 -28h-82l19 201h225v-69h-157l-5 -70c19 20 43 27 70 27c68 0 116 -46 116 -114c0 -77 -61 -123 -138 -123c-70 0 -131 37 -134 108z" />
    <glyph glyph-name="six.subs" horiz-adv-x="372" 
d="M191 -89c-95 0 -147 66 -147 172c0 108 53 182 148 182c64 0 123 -36 131 -97h-85c-5 21 -23 31 -45 31c-41 0 -66 -40 -66 -96c17 27 50 41 86 41c65 0 115 -45 115 -113c0 -77 -60 -120 -137 -120zM139 32c0 -32 22 -53 52 -53s52 21 52 52c0 30 -22 53 -52 53
s-52 -22 -52 -52z" />
    <glyph glyph-name="seven.subs" horiz-adv-x="309" 
d="M34 260h252v-45l-134 -299h-93l129 272h-154v72z" />
    <glyph glyph-name="eight.subs" horiz-adv-x="369" 
d="M56 175c0 59 65 90 129 90c63 0 128 -31 128 -90c0 -35 -23 -65 -58 -77c42 -12 70 -43 70 -85c0 -67 -68 -102 -140 -102c-73 0 -141 34 -141 101c0 42 28 74 70 86c-34 12 -58 42 -58 77zM228 163c0 24 -17 41 -43 41c-27 0 -45 -17 -45 -41s19 -39 45 -39
c25 0 43 15 43 39zM236 20c0 26 -22 43 -51 43c-30 0 -53 -17 -53 -43c0 -27 23 -44 53 -44c29 0 51 17 51 44z" />
    <glyph glyph-name="nine.subs" horiz-adv-x="371" 
d="M180 265c96 0 147 -65 147 -172s-51 -182 -147 -182c-64 0 -123 37 -131 98h85c5 -21 23 -32 44 -32c43 0 66 40 66 96c-17 -26 -49 -41 -86 -41c-65 0 -114 45 -114 113c0 77 60 120 136 120zM232 145c0 31 -22 52 -52 52c-29 0 -51 -20 -51 -51s23 -53 52 -53
c30 0 51 22 51 52z" />
    <glyph glyph-name="onequarter" unicode="&#xbc;" horiz-adv-x="730" 
d="M6 557v82l89 61h71v-344h-88v251zM20 0l509 700h91l-509 -700h-91zM540 58h-164v52c1 2 145 216 154 230h98v-212h44v-70h-44v-62h-88v62zM472 128h68v110z" />
    <glyph glyph-name="onehalf" unicode="&#xbd;" horiz-adv-x="711" 
d="M26 557v82l89 61h71v-344h-88v251zM20 0l509 700h91l-509 -700h-91zM416 -4v55l137 121c20 19 41 38 41 64c0 25 -19 42 -45 42c-29 0 -47 -18 -49 -48h-84c2 73 61 115 137 115c72 0 130 -36 130 -101c0 -40 -23 -73 -60 -105l-75 -69h137v-74h-269z" />
    <glyph glyph-name="threequarters" unicode="&#xbe;" horiz-adv-x="818" 
d="M26 463h85c0 -27 23 -44 52 -44s51 17 51 43c0 27 -25 39 -56 39l-39 -1v63h37c28 0 52 13 52 39c0 23 -21 37 -45 37c-27 0 -46 -18 -46 -43h-81c0 69 59 109 130 109c62 0 124 -30 124 -90c0 -38 -23 -70 -61 -80c45 -8 74 -39 74 -83c0 -66 -68 -101 -139 -101
c-76 0 -137 40 -138 112zM107 0l509 700h91l-509 -700h-91zM597 58h-164v52c1 2 145 216 154 230h98v-212h44v-70h-44v-62h-88v62zM529 128h68v110z" />
    <glyph glyph-name="Agrave" unicode="&#xc0;" horiz-adv-x="708" 
d="M212 924h118l66 -154h-87zM429 700l252 -700h-139l-49 145h-278l-49 -145h-139l253 700h149zM246 248h217l-109 323z" />
    <glyph glyph-name="Aacute" unicode="&#xc1;" horiz-adv-x="708" 
d="M374 924h118l-97 -154h-87zM429 700l252 -700h-139l-49 145h-278l-49 -145h-139l253 700h149zM246 248h217l-109 323z" />
    <glyph glyph-name="Acircumflex" unicode="&#xc2;" horiz-adv-x="708" 
d="M182 760l124 144h96l124 -144h-105l-67 86l-67 -86h-105zM429 700l252 -700h-139l-49 145h-278l-49 -145h-139l253 700h149zM246 248h217l-109 323z" />
    <glyph glyph-name="Atilde" unicode="&#xc3;" horiz-adv-x="708" 
d="M201 770c0 66 32 106 91 106c66 0 85 -51 117 -51c16 0 29 14 28 38h71c1 -67 -31 -106 -90 -106c-68 0 -87 51 -118 51c-17 0 -30 -13 -28 -38h-71zM429 700l252 -700h-139l-49 145h-278l-49 -145h-139l253 700h149zM246 248h217l-109 323z" />
    <glyph glyph-name="Aring" unicode="&#xc5;" horiz-adv-x="708" 
d="M261 853c0 51 39 90 93 90c53 0 93 -39 93 -90s-40 -91 -93 -91s-93 40 -93 91zM320 853c0 -20 15 -35 34 -35s34 16 34 35s-14 34 -34 34c-19 0 -34 -14 -34 -34zM429 700l252 -700h-139l-49 145h-278l-49 -145h-139l253 700h149zM246 248h217l-109 323z" />
    <glyph glyph-name="Ccedilla" unicode="&#xc7;" horiz-adv-x="757" 
d="M388 103c93 0 161 52 178 137h142c-26 -150 -140 -244 -302 -250l-7 -46c67 1 100 -36 100 -83c0 -57 -47 -91 -132 -91c-20 0 -40 2 -56 7v63c15 -4 32 -6 49 -6c39 0 59 9 59 27s-20 27 -57 27c-12 0 -22 -1 -32 -3v46l9 61c-173 21 -287 160 -287 358
c0 217 135 361 335 361c171 0 301 -103 317 -251h-141c-16 82 -87 137 -176 137c-116 0 -193 -98 -193 -246c0 -150 77 -248 194 -248z" />
    <glyph glyph-name="Egrave" unicode="&#xc8;" horiz-adv-x="605" 
d="M167 924h118l66 -154h-87zM543 589h-329v-181h289v-108h-289v-189h329v-111h-468v700h468v-111z" />
    <glyph glyph-name="Eacute" unicode="&#xc9;" horiz-adv-x="605" 
d="M329 924h118l-97 -154h-87zM543 589h-329v-181h289v-108h-289v-189h329v-111h-468v700h468v-111z" />
    <glyph glyph-name="Ecircumflex" unicode="&#xca;" horiz-adv-x="605" 
d="M137 760l124 144h96l124 -144h-105l-67 86l-67 -86h-105zM543 589h-329v-181h289v-108h-289v-189h329v-111h-468v700h468v-111z" />
    <glyph glyph-name="Edieresis" unicode="&#xcb;" horiz-adv-x="605" 
d="M136 834c0 39 31 69 71 69c41 0 71 -30 71 -69s-30 -69 -71 -69c-40 0 -71 30 -71 69zM341 834c0 39 30 69 71 69s71 -30 71 -69s-30 -69 -71 -69s-71 30 -71 69zM543 589h-329v-181h289v-108h-289v-189h329v-111h-468v700h468v-111z" />
    <glyph glyph-name="Igrave" unicode="&#xcc;" horiz-adv-x="289" 
d="M3 924h118l66 -154h-87zM214 0h-139v700h139v-700z" />
    <glyph glyph-name="Iacute" unicode="&#xcd;" horiz-adv-x="289" 
d="M164 924h118l-97 -154h-87zM214 0h-139v700h139v-700z" />
    <glyph glyph-name="Icircumflex" unicode="&#xce;" horiz-adv-x="289" 
d="M-28 760l124 144h96l124 -144h-105l-67 86l-67 -86h-105zM214 0h-139v700h139v-700z" />
    <glyph glyph-name="Idieresis" unicode="&#xcf;" horiz-adv-x="289" 
d="M-33 834c0 39 31 69 71 69c41 0 71 -30 71 -69s-30 -69 -71 -69c-40 0 -71 30 -71 69zM172 834c0 39 30 69 71 69s71 -30 71 -69s-30 -69 -71 -69s-71 30 -71 69zM214 0h-139v700h139v-700z" />
    <glyph glyph-name="Ntilde" unicode="&#xd1;" horiz-adv-x="740" 
d="M216 770c0 66 32 106 91 106c66 0 85 -51 117 -51c16 0 29 14 28 38h71c1 -67 -31 -106 -90 -106c-68 0 -87 51 -118 51c-17 0 -30 -13 -28 -38h-71zM530 700h135v-700h-147l-308 482v-482h-135v700h147l308 -483v483z" />
    <glyph glyph-name="Ograve" unicode="&#xd2;" horiz-adv-x="804" 
d="M252 924h118l66 -154h-87zM402 711c208 0 350 -146 350 -361s-142 -361 -350 -361s-350 146 -350 361s142 361 350 361zM402 103c127 0 208 96 208 247s-81 247 -208 247s-208 -96 -208 -247s81 -247 208 -247z" />
    <glyph glyph-name="Oacute" unicode="&#xd3;" horiz-adv-x="804" 
d="M414 924h118l-97 -154h-87zM402 711c208 0 350 -146 350 -361s-142 -361 -350 -361s-350 146 -350 361s142 361 350 361zM402 103c127 0 208 96 208 247s-81 247 -208 247s-208 -96 -208 -247s81 -247 208 -247z" />
    <glyph glyph-name="Ocircumflex" unicode="&#xd4;" horiz-adv-x="804" 
d="M222 760l124 144h96l124 -144h-105l-67 86l-67 -86h-105zM402 711c208 0 350 -146 350 -361s-142 -361 -350 -361s-350 146 -350 361s142 361 350 361zM402 103c127 0 208 96 208 247s-81 247 -208 247s-208 -96 -208 -247s81 -247 208 -247z" />
    <glyph glyph-name="Otilde" unicode="&#xd5;" horiz-adv-x="804" 
d="M240 770c0 66 32 106 91 106c66 0 85 -51 117 -51c16 0 29 14 28 38h71c1 -67 -31 -106 -90 -106c-68 0 -87 51 -118 51c-17 0 -30 -13 -28 -38h-71zM402 711c208 0 350 -146 350 -361s-142 -361 -350 -361s-350 146 -350 361s142 361 350 361zM402 103
c127 0 208 96 208 247s-81 247 -208 247s-208 -96 -208 -247s81 -247 208 -247z" />
    <glyph glyph-name="Odieresis" unicode="&#xd6;" horiz-adv-x="804" 
d="M221 834c0 39 31 69 71 69c41 0 71 -30 71 -69s-30 -69 -71 -69c-40 0 -71 30 -71 69zM426 834c0 39 30 69 71 69s71 -30 71 -69s-30 -69 -71 -69s-71 30 -71 69zM402 711c208 0 350 -146 350 -361s-142 -361 -350 -361s-350 146 -350 361s142 361 350 361zM402 103
c127 0 208 96 208 247s-81 247 -208 247s-208 -96 -208 -247s81 -247 208 -247z" />
    <glyph glyph-name="Ugrave" unicode="&#xd9;" horiz-adv-x="727" 
d="M222 924h118l66 -154h-87zM513 700h139v-440c0 -164 -115 -271 -289 -271c-173 0 -288 107 -288 271v440h139v-436c0 -102 56 -163 149 -163c94 0 150 61 150 163v436z" />
    <glyph glyph-name="Uacute" unicode="&#xda;" horiz-adv-x="727" 
d="M383 924h118l-97 -154h-87zM513 700h139v-440c0 -164 -115 -271 -289 -271c-173 0 -288 107 -288 271v440h139v-436c0 -102 56 -163 149 -163c94 0 150 61 150 163v436z" />
    <glyph glyph-name="Ucircumflex" unicode="&#xdb;" horiz-adv-x="727" 
d="M191 760l124 144h96l124 -144h-105l-67 86l-67 -86h-105zM513 700h139v-440c0 -164 -115 -271 -289 -271c-173 0 -288 107 -288 271v440h139v-436c0 -102 56 -163 149 -163c94 0 150 61 150 163v436z" />
    <glyph glyph-name="Udieresis" unicode="&#xdc;" horiz-adv-x="727" 
d="M190 834c0 39 31 69 71 69c41 0 71 -30 71 -69s-30 -69 -71 -69c-40 0 -71 30 -71 69zM395 834c0 39 30 69 71 69s71 -30 71 -69s-30 -69 -71 -69s-71 30 -71 69zM513 700h139v-440c0 -164 -115 -271 -289 -271c-173 0 -288 107 -288 271v440h139v-436
c0 -102 56 -163 149 -163c94 0 150 61 150 163v436z" />
    <glyph glyph-name="Yacute" unicode="&#xdd;" horiz-adv-x="680" 
d="M352 924h118l-97 -154h-87zM504 700h148l-243 -400v-300h-138v300l-243 400h148l164 -293z" />
    <glyph glyph-name="Amacron" unicode="&#x100;" horiz-adv-x="708" 
d="M182 770v92h328v-92h-328zM429 700l252 -700h-139l-49 145h-278l-49 -145h-139l253 700h149zM246 248h217l-109 323z" />
    <glyph glyph-name="Abreve" unicode="&#x102;" horiz-adv-x="708" 
d="M500 917c0 -89 -64 -154 -153 -154s-155 65 -155 154h79c0 -45 32 -80 76 -80c43 0 75 35 75 80h78zM429 700l252 -700h-139l-49 145h-278l-49 -145h-139l253 700h149zM246 248h217l-109 323z" />
    <glyph glyph-name="Aogonek" unicode="&#x104;" horiz-adv-x="708" 
d="M429 700l252 -700h-8c-34 -19 -63 -59 -63 -98c0 -47 43 -59 87 -54v-74c-13 -3 -27 -4 -42 -4c-72 0 -126 37 -126 102c0 56 38 104 84 128h-71l-49 145h-278l-49 -145h-139l253 700h149zM246 248h217l-109 323z" />
    <glyph glyph-name="Cacute" unicode="&#x106;" horiz-adv-x="757" 
d="M392 924h118l-97 -154h-87zM388 103c93 0 161 52 178 137h142c-27 -155 -149 -251 -321 -251c-200 0 -335 145 -335 361c0 217 135 361 335 361c171 0 301 -103 317 -251h-141c-16 82 -87 137 -176 137c-116 0 -193 -98 -193 -246c0 -150 77 -248 194 -248z" />
    <glyph glyph-name="Ccircumflex" unicode="&#x108;" horiz-adv-x="757" 
d="M200 760l124 144h96l124 -144h-105l-67 86l-67 -86h-105zM388 103c93 0 161 52 178 137h142c-27 -155 -149 -251 -321 -251c-200 0 -335 145 -335 361c0 217 135 361 335 361c171 0 301 -103 317 -251h-141c-16 82 -87 137 -176 137c-116 0 -193 -98 -193 -246
c0 -150 77 -248 194 -248z" />
    <glyph glyph-name="Cdotaccent" unicode="&#x10a;" horiz-adv-x="757" 
d="M307 829c0 36 28 64 66 64c37 0 65 -28 65 -64s-28 -64 -65 -64c-38 0 -66 28 -66 64zM388 103c93 0 161 52 178 137h142c-27 -155 -149 -251 -321 -251c-200 0 -335 145 -335 361c0 217 135 361 335 361c171 0 301 -103 317 -251h-141c-16 82 -87 137 -176 137
c-116 0 -193 -98 -193 -246c0 -150 77 -248 194 -248z" />
    <glyph glyph-name="Ccaron" unicode="&#x10c;" horiz-adv-x="757" 
d="M325 770l-124 144h105l67 -86l67 86h105l-124 -144h-96zM388 103c93 0 161 52 178 137h142c-27 -155 -149 -251 -321 -251c-200 0 -335 145 -335 361c0 217 135 361 335 361c171 0 301 -103 317 -251h-141c-16 82 -87 137 -176 137c-116 0 -193 -98 -193 -246
c0 -150 77 -248 194 -248z" />
    <glyph glyph-name="Dcaron" unicode="&#x10e;" horiz-adv-x="730" 
d="M282 770l-124 144h105l67 -86l67 86h105l-124 -144h-96zM324 700c234 0 355 -122 355 -350c0 -220 -131 -350 -355 -350h-249v700h249zM313 111c142 0 223 83 223 240c0 162 -73 238 -223 238h-99v-478h99z" />
    <glyph glyph-name="Emacron" unicode="&#x112;" horiz-adv-x="605" 
d="M145 770v92h328v-92h-328zM543 589h-329v-181h289v-108h-289v-189h329v-111h-468v700h468v-111z" />
    <glyph glyph-name="Ebreve" unicode="&#x114;" horiz-adv-x="605" 
d="M463 917c0 -89 -64 -154 -153 -154s-155 65 -155 154h79c0 -45 32 -80 76 -80c43 0 75 35 75 80h78zM543 589h-329v-181h289v-108h-289v-189h329v-111h-468v700h468v-111z" />
    <glyph glyph-name="Edotaccent" unicode="&#x116;" horiz-adv-x="605" 
d="M243 829c0 36 28 64 66 64c37 0 65 -28 65 -64s-28 -64 -65 -64c-38 0 -66 28 -66 64zM543 589h-329v-181h289v-108h-289v-189h329v-111h-468v700h468v-111z" />
    <glyph glyph-name="Ecaron" unicode="&#x11a;" horiz-adv-x="605" 
d="M262 770l-124 144h105l67 -86l67 86h105l-124 -144h-96zM543 589h-329v-181h289v-108h-289v-189h329v-111h-468v700h468v-111z" />
    <glyph glyph-name="Gcircumflex" unicode="&#x11c;" horiz-adv-x="790" 
d="M220 760l124 144h96l124 -144h-105l-67 86l-67 -86h-105zM733 379c1 -22 2 -48 2 -70c0 -201 -119 -320 -321 -320c-214 0 -348 138 -348 361c0 220 133 361 339 361c167 0 295 -92 321 -232h-140c-22 75 -90 122 -177 122c-125 0 -204 -94 -204 -247
c0 -156 82 -255 211 -255c109 0 182 67 185 167v14h-176v99h308z" />
    <glyph glyph-name="Gbreve" unicode="&#x11e;" horiz-adv-x="790" 
d="M546 917c0 -89 -64 -154 -153 -154s-155 65 -155 154h79c0 -45 32 -80 76 -80c43 0 75 35 75 80h78zM733 379c1 -22 2 -48 2 -70c0 -201 -119 -320 -321 -320c-214 0 -348 138 -348 361c0 220 133 361 339 361c167 0 295 -92 321 -232h-140c-22 75 -90 122 -177 122
c-125 0 -204 -94 -204 -247c0 -156 82 -255 211 -255c109 0 182 67 185 167v14h-176v99h308z" />
    <glyph glyph-name="Gdotaccent" unicode="&#x120;" horiz-adv-x="790" 
d="M327 829c0 36 28 64 66 64c37 0 65 -28 65 -64s-28 -64 -65 -64c-38 0 -66 28 -66 64zM733 379c1 -22 2 -48 2 -70c0 -201 -119 -320 -321 -320c-214 0 -348 138 -348 361c0 220 133 361 339 361c167 0 295 -92 321 -232h-140c-22 75 -90 122 -177 122
c-125 0 -204 -94 -204 -247c0 -156 82 -255 211 -255c109 0 182 67 185 167v14h-176v99h308z" />
    <glyph glyph-name="uni0122" unicode="&#x122;" horiz-adv-x="790" 
d="M733 379c1 -22 2 -48 2 -70c0 -201 -119 -320 -321 -320c-214 0 -348 138 -348 361c0 220 133 361 339 361c167 0 295 -92 321 -232h-140c-22 75 -90 122 -177 122c-125 0 -204 -94 -204 -247c0 -156 82 -255 211 -255c109 0 182 67 185 167v14h-176v99h308zM327 -70h126
l-66 -152h-92z" />
    <glyph glyph-name="Hcircumflex" unicode="&#x124;" horiz-adv-x="754" 
d="M205 760l124 144h96l124 -144h-105l-67 86l-67 -86h-105zM540 700h138v-700h-138v298h-326v-298h-139v700h139v-290h326v290z" />
    <glyph glyph-name="Itilde" unicode="&#x128;" horiz-adv-x="289" 
d="M-9 770c0 66 32 106 91 106c66 0 85 -51 117 -51c16 0 29 14 28 38h71c1 -67 -31 -106 -90 -106c-68 0 -87 51 -118 51c-17 0 -30 -13 -28 -38h-71zM214 0h-139v700h139v-700z" />
    <glyph glyph-name="Imacron" unicode="&#x12a;" horiz-adv-x="289" 
d="M-20 770v92h328v-92h-328zM214 0h-139v700h139v-700z" />
    <glyph glyph-name="Iogonek" unicode="&#x12e;" horiz-adv-x="289" 
d="M214 0h-8c-34 -19 -63 -59 -63 -98c0 -47 43 -59 87 -54v-74c-13 -3 -27 -4 -42 -4c-72 0 -126 37 -126 102c0 56 38 104 84 128h-71v700h139v-700z" />
    <glyph glyph-name="Idotaccent" unicode="&#x130;" horiz-adv-x="289" 
d="M79 829c0 36 28 64 66 64c37 0 65 -28 65 -64s-28 -64 -65 -64c-38 0 -66 28 -66 64zM214 0h-139v700h139v-700z" />
    <glyph glyph-name="Jcircumflex" unicode="&#x134;" horiz-adv-x="568" 
d="M247 760l124 144h96l124 -144h-105l-67 86l-67 -86h-105zM354 700h138v-490c0 -137 -86 -221 -227 -221c-139 0 -228 80 -234 209h136c2 -62 38 -97 95 -97c61 0 92 37 92 108v491z" />
    <glyph glyph-name="uni0136" unicode="&#x136;" horiz-adv-x="684" 
d="M379 385l283 -385h-168l-210 286l-70 -83v-203h-139v700h139v-318l260 318h164zM283 -70h126l-66 -152h-92z" />
    <glyph glyph-name="Lacute" unicode="&#x139;" horiz-adv-x="570" 
d="M165 924h118l-97 -154h-87zM214 111h312v-111h-451v700h139v-589z" />
    <glyph glyph-name="uni013B" unicode="&#x13b;" horiz-adv-x="570" 
d="M214 111h312v-111h-451v700h139v-589zM239 -70h126l-66 -152h-92z" />
    <glyph glyph-name="uni013C" unicode="&#x13c;" horiz-adv-x="264" 
d="M197 0h-130v730h130v-730zM65 -70h126l-66 -152h-92z" />
    <glyph glyph-name="lacute" unicode="&#x13a;" horiz-adv-x="264" 
d="M144 924h118l-97 -154h-87zM197 0h-130v730h130v-730z" />
    <glyph glyph-name="Nacute" unicode="&#x143;" horiz-adv-x="740" 
d="M390 924h118l-97 -154h-87zM530 700h135v-700h-147l-308 482v-482h-135v700h147l308 -483v483z" />
    <glyph glyph-name="uni0145" unicode="&#x145;" horiz-adv-x="740" 
d="M530 700h135v-700h-147l-308 482v-482h-135v700h147l308 -483v483zM324 -70h126l-66 -152h-92z" />
    <glyph glyph-name="Ncaron" unicode="&#x147;" horiz-adv-x="740" 
d="M323 770l-124 144h105l67 -86l67 86h105l-124 -144h-96zM530 700h135v-700h-147l-308 482v-482h-135v700h147l308 -483v483z" />
    <glyph glyph-name="Omacron" unicode="&#x14c;" horiz-adv-x="804" 
d="M230 770v92h328v-92h-328zM402 711c208 0 350 -146 350 -361s-142 -361 -350 -361s-350 146 -350 361s142 361 350 361zM402 103c127 0 208 96 208 247s-81 247 -208 247s-208 -96 -208 -247s81 -247 208 -247z" />
    <glyph glyph-name="Obreve" unicode="&#x14e;" horiz-adv-x="804" 
d="M548 917c0 -89 -64 -154 -153 -154s-155 65 -155 154h79c0 -45 32 -80 76 -80c43 0 75 35 75 80h78zM402 711c208 0 350 -146 350 -361s-142 -361 -350 -361s-350 146 -350 361s142 361 350 361zM402 103c127 0 208 96 208 247s-81 247 -208 247s-208 -96 -208 -247
s81 -247 208 -247z" />
    <glyph glyph-name="Ohungarumlaut" unicode="&#x150;" horiz-adv-x="804" 
d="M485 924h115l-79 -154h-93zM303 924h112l-58 -154h-88zM402 711c208 0 350 -146 350 -361s-142 -361 -350 -361s-350 146 -350 361s142 361 350 361zM402 103c127 0 208 96 208 247s-81 247 -208 247s-208 -96 -208 -247s81 -247 208 -247z" />
    <glyph glyph-name="Racute" unicode="&#x154;" horiz-adv-x="650" 
d="M323 924h118l-97 -154h-87zM60 0v700h284c141 0 238 -94 238 -230c0 -95 -49 -169 -129 -204l149 -266h-153l-124 242h-126v-242h-139zM319 353c73 0 122 48 122 118s-49 118 -122 118h-121v-236h121z" />
    <glyph glyph-name="uni0156" unicode="&#x156;" horiz-adv-x="650" 
d="M60 0v700h284c141 0 238 -94 238 -230c0 -95 -49 -169 -129 -204l149 -266h-153l-124 242h-126v-242h-139zM319 353c73 0 122 48 122 118s-49 118 -122 118h-121v-236h121zM261 -70h126l-66 -152h-92z" />
    <glyph glyph-name="Rcaron" unicode="&#x158;" horiz-adv-x="650" 
d="M255 770l-124 144h105l67 -86l67 86h105l-124 -144h-96zM60 0v700h284c141 0 238 -94 238 -230c0 -95 -49 -169 -129 -204l149 -266h-153l-124 242h-126v-242h-139zM319 353c73 0 122 48 122 118s-49 118 -122 118h-121v-236h121z" />
    <glyph glyph-name="Sacute" unicode="&#x15a;" horiz-adv-x="650" 
d="M330 924h118l-97 -154h-87zM193 512c0 -47 38 -74 137 -96l45 -10c160 -36 221 -90 221 -201c0 -128 -105 -216 -272 -216c-163 0 -273 85 -284 225h137c6 -69 67 -116 150 -116c78 0 132 41 132 97c0 50 -37 76 -134 98l-41 9c-156 33 -225 95 -225 197
c0 125 104 212 256 212c148 0 253 -83 262 -207h-131c-8 60 -60 100 -134 100c-69 0 -119 -38 -119 -92z" />
    <glyph glyph-name="Scircumflex" unicode="&#x15c;" horiz-adv-x="650" 
d="M138 760l124 144h96l124 -144h-105l-67 86l-67 -86h-105zM193 512c0 -47 38 -74 137 -96l45 -10c160 -36 221 -90 221 -201c0 -128 -105 -216 -272 -216c-163 0 -273 85 -284 225h137c6 -69 67 -116 150 -116c78 0 132 41 132 97c0 50 -37 76 -134 98l-41 9
c-156 33 -225 95 -225 197c0 125 104 212 256 212c148 0 253 -83 262 -207h-131c-8 60 -60 100 -134 100c-69 0 -119 -38 -119 -92z" />
    <glyph glyph-name="Scedilla" unicode="&#x15e;" horiz-adv-x="650" 
d="M193 512c0 -47 38 -74 137 -96l45 -10c160 -36 221 -90 221 -201c0 -123 -97 -209 -252 -215l-7 -46c67 1 100 -36 100 -83c0 -57 -47 -91 -132 -91c-20 0 -40 2 -56 7v63c15 -4 32 -6 49 -6c39 0 59 9 59 27s-20 27 -57 27c-12 0 -22 -1 -32 -3v46l9 61
c-137 15 -227 96 -237 222h137c6 -69 67 -116 150 -116c78 0 132 41 132 97c0 50 -37 76 -134 98l-41 9c-156 33 -225 95 -225 197c0 125 104 212 256 212c148 0 253 -83 262 -207h-131c-8 60 -60 100 -134 100c-69 0 -119 -38 -119 -92z" />
    <glyph glyph-name="Scaron" unicode="&#x160;" horiz-adv-x="650" 
d="M263 770l-124 144h105l67 -86l67 86h105l-124 -144h-96zM193 512c0 -47 38 -74 137 -96l45 -10c160 -36 221 -90 221 -201c0 -128 -105 -216 -272 -216c-163 0 -273 85 -284 225h137c6 -69 67 -116 150 -116c78 0 132 41 132 97c0 50 -37 76 -134 98l-41 9
c-156 33 -225 95 -225 197c0 125 104 212 256 212c148 0 253 -83 262 -207h-131c-8 60 -60 100 -134 100c-69 0 -119 -38 -119 -92z" />
    <glyph glyph-name="Tcaron" unicode="&#x164;" horiz-adv-x="637" 
d="M259 770l-124 144h105l67 -86l67 86h105l-124 -144h-96zM34 700h561v-111h-211v-589h-139v589h-211v111z" />
    <glyph glyph-name="Utilde" unicode="&#x168;" horiz-adv-x="727" 
d="M195 770c0 66 32 106 91 106c66 0 85 -51 117 -51c16 0 29 14 28 38h71c1 -67 -31 -106 -90 -106c-68 0 -87 51 -118 51c-17 0 -30 -13 -28 -38h-71zM498 700h139v-440c0 -164 -115 -271 -289 -271c-173 0 -288 107 -288 271v440h139v-436c0 -102 56 -163 149 -163
c94 0 150 61 150 163v436z" />
    <glyph glyph-name="Umacron" unicode="&#x16a;" horiz-adv-x="727" 
d="M184 770v92h328v-92h-328zM498 700h139v-440c0 -164 -115 -271 -289 -271c-173 0 -288 107 -288 271v440h139v-436c0 -102 56 -163 149 -163c94 0 150 61 150 163v436z" />
    <glyph glyph-name="Ubreve" unicode="&#x16c;" horiz-adv-x="727" 
d="M502 917c0 -89 -64 -154 -153 -154s-155 65 -155 154h79c0 -45 32 -80 76 -80c43 0 75 35 75 80h78zM498 700h139v-440c0 -164 -115 -271 -289 -271c-173 0 -288 107 -288 271v440h139v-436c0 -102 56 -163 149 -163c94 0 150 61 150 163v436z" />
    <glyph glyph-name="Uring" unicode="&#x16e;" horiz-adv-x="727" 
d="M255 853c0 51 39 90 93 90c53 0 93 -39 93 -90s-40 -91 -93 -91s-93 40 -93 91zM314 853c0 -20 15 -35 34 -35s34 16 34 35s-14 34 -34 34c-19 0 -34 -14 -34 -34zM498 700h139v-440c0 -164 -115 -271 -289 -271c-173 0 -288 107 -288 271v440h139v-436
c0 -102 56 -163 149 -163c94 0 150 61 150 163v436z" />
    <glyph glyph-name="Uhungarumlaut" unicode="&#x170;" horiz-adv-x="727" 
d="M439 924h115l-79 -154h-93zM257 924h112l-58 -154h-88zM498 700h139v-440c0 -164 -115 -271 -289 -271c-173 0 -288 107 -288 271v440h139v-436c0 -102 56 -163 149 -163c94 0 150 61 150 163v436z" />
    <glyph glyph-name="Uogonek" unicode="&#x172;" horiz-adv-x="727" 
d="M498 700h139v-440c0 -124 -66 -216 -174 -253c-28 -21 -49 -55 -49 -89c0 -47 43 -59 87 -54v-74c-13 -3 -27 -4 -42 -4c-72 0 -126 37 -126 102c0 40 20 76 48 102c-11 0 -22 -1 -33 -1c-173 0 -288 107 -288 271v440h139v-436c0 -102 56 -163 149 -163
c94 0 150 61 150 163v436z" />
    <glyph glyph-name="Wcircumflex" unicode="&#x174;" horiz-adv-x="983" 
d="M308 760l124 144h96l124 -144h-105l-67 86l-67 -86h-105zM809 700h136l-178 -700h-141l-137 492l-138 -492h-141l-177 700h135l124 -525l139 515h115l139 -515z" />
    <glyph glyph-name="Ycircumflex" unicode="&#x176;" horiz-adv-x="680" 
d="M159 760l124 144h96l124 -144h-105l-67 86l-67 -86h-105zM502 700h148l-243 -400v-300h-138v300l-243 400h148l164 -293z" />
    <glyph glyph-name="Ydieresis" unicode="&#x178;" horiz-adv-x="680" 
d="M157 834c0 39 31 69 71 69c41 0 71 -30 71 -69s-30 -69 -71 -69c-40 0 -71 30 -71 69zM362 834c0 39 30 69 71 69s71 -30 71 -69s-30 -69 -71 -69s-71 30 -71 69zM502 700h148l-243 -400v-300h-138v300l-243 400h148l164 -293z" />
    <glyph glyph-name="uni0218" unicode="&#x218;" horiz-adv-x="650" 
d="M193 512c0 -47 38 -74 137 -96l45 -10c160 -36 221 -90 221 -201c0 -128 -105 -216 -272 -216c-163 0 -273 85 -284 225h137c6 -69 67 -116 150 -116c78 0 132 41 132 97c0 50 -37 76 -134 98l-41 9c-156 33 -225 95 -225 197c0 125 104 212 256 212
c148 0 253 -83 262 -207h-131c-8 60 -60 100 -134 100c-69 0 -119 -38 -119 -92zM244 -70h126l-66 -152h-92z" />
    <glyph glyph-name="uni021A" unicode="&#x21a;" horiz-adv-x="637" 
d="M34 700h561v-111h-211v-589h-139v589h-211v111zM241 -70h126l-66 -152h-92z" />
    <glyph glyph-name="uni021B" unicode="&#x21b;" horiz-adv-x="366" 
d="M312 430h-96v-277c0 -42 21 -57 61 -57c18 0 35 2 40 4v-100c-13 -3 -42 -8 -70 -8c-112 0 -160 45 -160 158v280h-63v98h63v124h126v-124h99v-98zM209 -70h126l-66 -152h-92z" />
    <glyph glyph-name="Wgrave" unicode="&#x1e80;" horiz-adv-x="983" 
d="M339 924h118l66 -154h-87zM809 700h136l-178 -700h-141l-137 492l-138 -492h-141l-177 700h135l124 -525l139 515h115l139 -515z" />
    <glyph glyph-name="Wacute" unicode="&#x1e82;" horiz-adv-x="983" 
d="M500 924h118l-97 -154h-87zM809 700h136l-178 -700h-141l-137 492l-138 -492h-141l-177 700h135l124 -525l139 515h115l139 -515z" />
    <glyph glyph-name="Wdieresis" unicode="&#x1e84;" horiz-adv-x="983" 
d="M307 834c0 39 31 69 71 69c41 0 71 -30 71 -69s-30 -69 -71 -69c-40 0 -71 30 -71 69zM512 834c0 39 30 69 71 69s71 -30 71 -69s-30 -69 -71 -69s-71 30 -71 69zM809 700h136l-178 -700h-141l-137 492l-138 -492h-141l-177 700h135l124 -525l139 515h115l139 -515z" />
    <glyph glyph-name="agrave.smcp" horiz-adv-x="613" 
d="M290 741l52 -125h-77l-79 125h104zM376 560l199 -560h-132l-35 106h-213l-35 -106h-132l199 560h149zM221 200h161l-81 247z" />
    <glyph glyph-name="acircumflex.smcp" horiz-adv-x="613" 
d="M160 608l100 117h84l99 -117h-91l-50 67l-51 -67h-91zM376 560l199 -560h-132l-35 106h-213l-35 -106h-132l199 560h149zM221 200h161l-81 247z" />
    <glyph glyph-name="atilde.smcp" horiz-adv-x="613" 
d="M177 616c-1 56 26 88 74 88c52 0 69 -39 93 -39c12 0 21 11 20 29h61c1 -57 -25 -89 -73 -89c-53 0 -70 40 -94 40c-12 0 -21 -10 -20 -29h-61zM376 560l199 -560h-132l-35 106h-213l-35 -106h-132l199 560h149zM221 200h161l-81 247z" />
    <glyph glyph-name="adieresis.smcp" horiz-adv-x="613" 
d="M138 677c0 37 30 67 69 67s69 -30 69 -67c0 -38 -30 -68 -69 -68s-69 30 -69 68zM326 677c0 37 30 67 69 67s69 -30 69 -67c0 -38 -30 -68 -69 -68s-69 30 -69 68zM376 560l199 -560h-132l-35 106h-213l-35 -106h-132l199 560h149zM221 200h161l-81 247z" />
    <glyph glyph-name="egrave.smcp" horiz-adv-x="516" 
d="M237 741l52 -125h-77l-79 125h104zM441 457h-254v-125h222v-98h-222v-131h254v-103h-386v560h386v-103z" />
    <glyph glyph-name="eacute.smcp" horiz-adv-x="516" 
d="M259 741h104l-78 -125h-77zM441 457h-254v-125h222v-98h-222v-131h254v-103h-386v560h386v-103z" />
    <glyph glyph-name="ecircumflex.smcp" horiz-adv-x="516" 
d="M108 608l100 117h84l99 -117h-91l-50 67l-51 -67h-91zM441 457h-254v-125h222v-98h-222v-131h254v-103h-386v560h386v-103z" />
    <glyph glyph-name="edieresis.smcp" horiz-adv-x="516" 
d="M86 677c0 37 30 67 69 67s69 -30 69 -67c0 -38 -30 -68 -69 -68s-69 30 -69 68zM274 677c0 37 30 67 69 67s69 -30 69 -67c0 -38 -30 -68 -69 -68s-69 30 -69 68zM441 457h-254v-125h222v-98h-222v-131h254v-103h-386v560h386v-103z" />
    <glyph glyph-name="igrave.smcp" horiz-adv-x="271" 
d="M109 741l52 -125h-77l-79 125h104zM187 0h-132v560h132v-560z" />
    <glyph glyph-name="iacute.smcp" horiz-adv-x="271" 
d="M131 741h104l-78 -125h-77zM187 0h-132v560h132v-560z" />
    <glyph glyph-name="icircumflex.smcp" horiz-adv-x="271" 
d="M-21 608l100 117h84l99 -117h-91l-50 67l-51 -67h-91zM187 0h-132v560h132v-560z" />
    <glyph glyph-name="idieresis.smcp" horiz-adv-x="271" 
d="M-43 677c0 37 30 67 69 67s69 -30 69 -67c0 -38 -30 -68 -69 -68s-69 30 -69 68zM145 677c0 37 30 67 69 67s69 -30 69 -67c0 -38 -30 -68 -69 -68s-69 30 -69 68zM187 0h-132v560h132v-560z" />
    <glyph glyph-name="ntilde.smcp" horiz-adv-x="629" 
d="M175 616c-1 56 26 88 74 88c52 0 69 -39 93 -39c12 0 21 11 20 29h61c1 -57 -25 -89 -73 -89c-53 0 -70 40 -94 40c-12 0 -21 -10 -20 -29h-61zM416 560h129v-560h-143l-219 359v-359h-128v560h142l219 -359v359z" />
    <glyph glyph-name="ograve.smcp" horiz-adv-x="672" 
d="M314 741l52 -125h-77l-79 125h104zM326 569c170 0 285 -116 285 -289s-115 -289 -285 -289s-284 116 -284 289s114 289 284 289zM326 96c92 0 151 72 151 184s-59 184 -151 184s-150 -72 -150 -184s58 -184 150 -184z" />
    <glyph glyph-name="oacute.smcp" horiz-adv-x="672" 
d="M336 741h104l-78 -125h-77zM326 569c170 0 285 -116 285 -289s-115 -289 -285 -289s-284 116 -284 289s114 289 284 289zM326 96c92 0 151 72 151 184s-59 184 -151 184s-150 -72 -150 -184s58 -184 150 -184z" />
    <glyph glyph-name="ocircumflex.smcp" horiz-adv-x="672" 
d="M184 608l100 117h84l99 -117h-91l-50 67l-51 -67h-91zM326 569c170 0 285 -116 285 -289s-115 -289 -285 -289s-284 116 -284 289s114 289 284 289zM326 96c92 0 151 72 151 184s-59 184 -151 184s-150 -72 -150 -184s58 -184 150 -184z" />
    <glyph glyph-name="otilde.smcp" horiz-adv-x="672" 
d="M202 616c-1 56 26 88 74 88c52 0 69 -39 93 -39c12 0 21 11 20 29h61c1 -57 -25 -89 -73 -89c-53 0 -70 40 -94 40c-12 0 -21 -10 -20 -29h-61zM326 569c170 0 285 -116 285 -289s-115 -289 -285 -289s-284 116 -284 289s114 289 284 289zM326 96c92 0 151 72 151 184
s-59 184 -151 184s-150 -72 -150 -184s58 -184 150 -184z" />
    <glyph glyph-name="odieresis.smcp" horiz-adv-x="672" 
d="M162 677c0 37 30 67 69 67s69 -30 69 -67c0 -38 -30 -68 -69 -68s-69 30 -69 68zM350 677c0 37 30 67 69 67s69 -30 69 -67c0 -38 -30 -68 -69 -68s-69 30 -69 68zM326 569c170 0 285 -116 285 -289s-115 -289 -285 -289s-284 116 -284 289s114 289 284 289zM326 96
c92 0 151 72 151 184s-59 184 -151 184s-150 -72 -150 -184s58 -184 150 -184z" />
    <glyph glyph-name="ugrave.smcp" horiz-adv-x="612" 
d="M280 741l52 -125h-77l-79 125h104zM396 560h132v-352c0 -131 -94 -217 -237 -217s-236 86 -236 217v352h132v-347c0 -76 38 -118 104 -118s105 42 105 118v347z" />
    <glyph glyph-name="uacute.smcp" horiz-adv-x="612" 
d="M301 741h104l-78 -125h-77zM396 560h132v-352c0 -131 -94 -217 -237 -217s-236 86 -236 217v352h132v-347c0 -76 38 -118 104 -118s105 42 105 118v347z" />
    <glyph glyph-name="ucircumflex.smcp" horiz-adv-x="612" 
d="M149 608l100 117h84l99 -117h-91l-50 67l-51 -67h-91zM396 560h132v-352c0 -131 -94 -217 -237 -217s-236 86 -236 217v352h132v-347c0 -76 38 -118 104 -118s105 42 105 118v347z" />
    <glyph glyph-name="udieresis.smcp" horiz-adv-x="612" 
d="M127 677c0 37 30 67 69 67s69 -30 69 -67c0 -38 -30 -68 -69 -68s-69 30 -69 68zM315 677c0 37 30 67 69 67s69 -30 69 -67c0 -38 -30 -68 -69 -68s-69 30 -69 68zM396 560h132v-352c0 -131 -94 -217 -237 -217s-236 86 -236 217v352h132v-347c0 -76 38 -118 104 -118
s105 42 105 118v347z" />
    <glyph glyph-name="yacute.smcp" horiz-adv-x="581" 
d="M297 741h104l-78 -125h-77zM409 560h136l-192 -320v-240h-133v240l-192 320h136l122 -224z" />
    <glyph glyph-name="ydieresis.smcp" horiz-adv-x="581" 
d="M123 677c0 37 30 67 69 67s69 -30 69 -67c0 -38 -30 -68 -69 -68s-69 30 -69 68zM311 677c0 37 30 67 69 67s69 -30 69 -67c0 -38 -30 -68 -69 -68s-69 30 -69 68zM409 560h136l-192 -320v-240h-133v240l-192 320h136l122 -224z" />
    <glyph glyph-name="amacron.smcp" horiz-adv-x="613" 
d="M170 616v80h265v-80h-265zM376 560l199 -560h-132l-35 106h-213l-35 -106h-132l199 560h149zM221 200h161l-81 247z" />
    <glyph glyph-name="abreve.smcp" horiz-adv-x="613" 
d="M427 735c0 -73 -53 -125 -124 -125c-72 0 -126 52 -126 125h69c0 -35 23 -61 56 -61s57 26 57 61h68zM376 560l199 -560h-132l-35 106h-213l-35 -106h-132l199 560h149zM221 200h161l-81 247z" />
    <glyph glyph-name="ccircumflex.smcp" horiz-adv-x="637" 
d="M168 608l100 117h84l99 -117h-91l-50 67l-51 -67h-91zM317 96c67 0 116 39 127 104h135c-20 -128 -122 -209 -264 -209c-164 0 -273 116 -273 289c0 174 109 289 273 289c142 0 249 -85 261 -209h-134c-10 63 -62 104 -127 104c-84 0 -139 -72 -139 -183
c0 -112 56 -185 141 -185z" />
    <glyph glyph-name="cacute.smcp" horiz-adv-x="637" 
d="M320 741h104l-78 -125h-77zM317 96c67 0 116 39 127 104h135c-20 -128 -122 -209 -264 -209c-164 0 -273 116 -273 289c0 174 109 289 273 289c142 0 249 -85 261 -209h-134c-10 63 -62 104 -127 104c-84 0 -139 -72 -139 -183c0 -112 56 -185 141 -185z" />
    <glyph glyph-name="cdotaccent.smcp" horiz-adv-x="637" 
d="M254 666c0 30 24 55 56 55s56 -25 56 -55s-24 -55 -56 -55s-56 25 -56 55zM317 96c67 0 116 39 127 104h135c-20 -128 -122 -209 -264 -209c-164 0 -273 116 -273 289c0 174 109 289 273 289c142 0 249 -85 261 -209h-134c-10 63 -62 104 -127 104
c-84 0 -139 -72 -139 -183c0 -112 56 -185 141 -185z" />
    <glyph glyph-name="emacron.smcp" horiz-adv-x="516" 
d="M116 616v80h265v-80h-265zM441 457h-254v-125h222v-98h-222v-131h254v-103h-386v560h386v-103z" />
    <glyph glyph-name="ebreve.smcp" horiz-adv-x="516" 
d="M373 735c0 -73 -53 -125 -124 -125c-72 0 -126 52 -126 125h69c0 -35 23 -61 56 -61s57 26 57 61h68zM441 457h-254v-125h222v-98h-222v-131h254v-103h-386v560h386v-103z" />
    <glyph glyph-name="edotaccent.smcp" horiz-adv-x="516" 
d="M193 666c0 30 24 55 56 55s56 -25 56 -55s-24 -55 -56 -55s-56 25 -56 55zM441 457h-254v-125h222v-98h-222v-131h254v-103h-386v560h386v-103z" />
    <glyph glyph-name="gcircumflex.smcp" horiz-adv-x="652" 
d="M173 608l100 117h84l99 -117h-91l-50 67l-51 -67h-91zM587 306c2 -17 3 -39 3 -56c0 -164 -98 -259 -264 -259c-175 0 -284 110 -284 289c0 177 108 289 277 289c138 0 244 -76 263 -188h-131c-16 53 -65 87 -128 87c-92 0 -148 -70 -148 -185c0 -117 59 -191 155 -191
c78 0 130 46 133 115l1 10h-128v89h251z" />
    <glyph glyph-name="gbreve.smcp" horiz-adv-x="652" 
d="M439 735c0 -73 -53 -125 -124 -125c-72 0 -126 52 -126 125h69c0 -35 23 -61 56 -61s57 26 57 61h68zM587 306c2 -17 3 -39 3 -56c0 -164 -98 -259 -264 -259c-175 0 -284 110 -284 289c0 177 108 289 277 289c138 0 244 -76 263 -188h-131c-16 53 -65 87 -128 87
c-92 0 -148 -70 -148 -185c0 -117 59 -191 155 -191c78 0 130 46 133 115l1 10h-128v89h251z" />
    <glyph glyph-name="gdotaccent.smcp" horiz-adv-x="652" 
d="M259 666c0 30 24 55 56 55s56 -25 56 -55s-24 -55 -56 -55s-56 25 -56 55zM587 306c2 -17 3 -39 3 -56c0 -164 -98 -259 -264 -259c-175 0 -284 110 -284 289c0 177 108 289 277 289c138 0 244 -76 263 -188h-131c-16 53 -65 87 -128 87c-92 0 -148 -70 -148 -185
c0 -117 59 -191 155 -191c78 0 130 46 133 115l1 10h-128v89h251z" />
    <glyph glyph-name="hcircumflex.smcp" horiz-adv-x="639" 
d="M162 608l100 117h84l99 -117h-91l-50 67l-51 -67h-91zM421 560h132v-560h-132v232h-234v-232h-132v560h132v-226h234v226z" />
    <glyph glyph-name="itilde.smcp" horiz-adv-x="271" 
d="M-4 616c-1 56 26 88 74 88c52 0 69 -39 93 -39c12 0 21 11 20 29h61c1 -57 -25 -89 -73 -89c-53 0 -70 40 -94 40c-12 0 -21 -10 -20 -29h-61zM187 0h-132v560h132v-560z" />
    <glyph glyph-name="imacron.smcp" horiz-adv-x="271" 
d="M-12 616v80h265v-80h-265zM187 0h-132v560h132v-560z" />
    <glyph glyph-name="kcommaaccent.smcp" horiz-adv-x="578" 
d="M323 318l216 -318h-156l-151 227l-45 -49v-178h-132v560h132v-228l190 228h152zM218 -50h100l-66 -152h-66z" />
    <glyph glyph-name="lacute.smcp" horiz-adv-x="490" 
d="M133 741h104l-78 -125h-77zM187 103h241v-103h-373v560h132v-457z" />
    <glyph glyph-name="lcommaaccent.smcp" horiz-adv-x="490" 
d="M187 103h241v-103h-373v560h132v-457zM192 -50h100l-66 -152h-66z" />
    <glyph glyph-name="nacute.smcp" horiz-adv-x="629" 
d="M309 741h104l-78 -125h-77zM416 560h129v-560h-143l-219 359v-359h-128v560h142l219 -359v359z" />
    <glyph glyph-name="ncommaaccent.smcp" horiz-adv-x="629" 
d="M416 560h129v-560h-143l-219 359v-359h-128v560h142l219 -359v359zM249 -50h100l-66 -152h-66z" />
    <glyph glyph-name="omacron.smcp" horiz-adv-x="672" 
d="M193 616v80h265v-80h-265zM326 569c170 0 285 -116 285 -289s-115 -289 -285 -289s-284 116 -284 289s114 289 284 289zM326 96c92 0 151 72 151 184s-59 184 -151 184s-150 -72 -150 -184s58 -184 150 -184z" />
    <glyph glyph-name="obreve.smcp" horiz-adv-x="672" 
d="M450 735c0 -73 -53 -125 -124 -125c-72 0 -126 52 -126 125h69c0 -35 23 -61 56 -61s57 26 57 61h68zM326 569c170 0 285 -116 285 -289s-115 -289 -285 -289s-284 116 -284 289s114 289 284 289zM326 96c92 0 151 72 151 184s-59 184 -151 184s-150 -72 -150 -184
s58 -184 150 -184z" />
    <glyph glyph-name="racute.smcp" horiz-adv-x="561" 
d="M267 741h104l-78 -125h-77zM55 0v560h240c116 0 195 -77 195 -189c0 -75 -37 -134 -98 -164l114 -207h-140l-93 184h-86v-184h-132zM268 286c53 0 89 34 89 86s-36 85 -89 85h-82v-171h82z" />
    <glyph glyph-name="rcommaaccent.smcp" horiz-adv-x="561" 
d="M55 0v560h240c116 0 195 -77 195 -189c0 -75 -37 -134 -98 -164l114 -207h-140l-93 184h-86v-184h-132zM268 286c53 0 89 34 89 86s-36 85 -89 85h-82v-171h82zM220 -50h100l-66 -152h-66z" />
    <glyph glyph-name="sacute.smcp" horiz-adv-x="557" 
d="M278 741h104l-78 -125h-77zM182 408c0 -34 29 -53 103 -70l36 -8c128 -28 176 -72 176 -161c0 -108 -85 -178 -224 -178c-135 0 -226 68 -234 183h129c3 -49 47 -83 108 -83c54 0 91 28 91 67c0 35 -28 53 -101 69l-33 8c-122 26 -179 77 -179 161c0 103 85 173 212 173
c121 0 207 -67 215 -169h-124c-6 43 -42 71 -93 71c-48 0 -82 -25 -82 -63z" />
    <glyph glyph-name="scircumflex.smcp" horiz-adv-x="557" 
d="M126 608l100 117h84l99 -117h-91l-50 67l-51 -67h-91zM182 408c0 -34 29 -53 103 -70l36 -8c128 -28 176 -72 176 -161c0 -108 -85 -178 -224 -178c-135 0 -226 68 -234 183h129c3 -49 47 -83 108 -83c54 0 91 28 91 67c0 35 -28 53 -101 69l-33 8
c-122 26 -179 77 -179 161c0 103 85 173 212 173c121 0 207 -67 215 -169h-124c-6 43 -42 71 -93 71c-48 0 -82 -25 -82 -63z" />
    <glyph glyph-name="utilde.smcp" horiz-adv-x="612" 
d="M167 616c-1 56 26 88 74 88c52 0 69 -39 93 -39c12 0 21 11 20 29h61c1 -57 -25 -89 -73 -89c-53 0 -70 40 -94 40c-12 0 -21 -10 -20 -29h-61zM396 560h132v-352c0 -131 -94 -217 -237 -217s-236 86 -236 217v352h132v-347c0 -76 38 -118 104 -118s105 42 105 118v347z
" />
    <glyph glyph-name="umacron.smcp" horiz-adv-x="612" 
d="M159 616v80h265v-80h-265zM396 560h132v-352c0 -131 -94 -217 -237 -217s-236 86 -236 217v352h132v-347c0 -76 38 -118 104 -118s105 42 105 118v347z" />
    <glyph glyph-name="ubreve.smcp" horiz-adv-x="612" 
d="M416 735c0 -73 -53 -125 -124 -125c-72 0 -126 52 -126 125h69c0 -35 23 -61 56 -61s57 26 57 61h68zM396 560h132v-352c0 -131 -94 -217 -237 -217s-236 86 -236 217v352h132v-347c0 -76 38 -118 104 -118s105 42 105 118v347z" />
    <glyph glyph-name="wcircumflex.smcp" horiz-adv-x="821" 
d="M263 608l100 117h84l99 -117h-91l-50 67l-51 -67h-91zM649 560h128l-138 -560h-130l-104 377l-104 -377h-130l-138 560h127l89 -398l102 390h108l102 -390z" />
    <glyph glyph-name="ycircumflex.smcp" horiz-adv-x="581" 
d="M146 608l100 117h84l99 -117h-91l-50 67l-51 -67h-91zM409 560h136l-192 -320v-240h-133v240l-192 320h136l122 -224z" />
    <glyph glyph-name="zacute.smcp" horiz-adv-x="568" 
d="M282 741h104l-78 -125h-77zM215 103h283v-103h-453v57l274 400h-266v103h437v-57z" />
    <glyph glyph-name="zdotaccent.smcp" horiz-adv-x="568" 
d="M215 666c0 30 24 55 56 55s56 -25 56 -55s-24 -55 -56 -55s-56 25 -56 55zM215 103h283v-103h-453v57l274 400h-266v103h437v-57z" />
    <glyph glyph-name="scommaaccent.smcp" horiz-adv-x="557" 
d="M182 408c0 -34 29 -53 103 -70l36 -8c128 -28 176 -72 176 -161c0 -108 -85 -178 -224 -178c-135 0 -226 68 -234 183h129c3 -49 47 -83 108 -83c54 0 91 28 91 67c0 35 -28 53 -101 69l-33 8c-122 26 -179 77 -179 161c0 103 85 173 212 173c121 0 207 -67 215 -169
h-124c-6 43 -42 71 -93 71c-48 0 -82 -25 -82 -63zM215 -50h100l-66 -152h-66z" />
    <glyph glyph-name="tcommaaccent.smcp" horiz-adv-x="544" 
d="M34 560h462v-103h-165v-457h-132v457h-165v103zM212 -50h100l-66 -152h-66z" />
    <glyph glyph-name="wdieresis.smcp" horiz-adv-x="821" 
d="M242 677c0 37 30 67 69 67s69 -30 69 -67c0 -38 -30 -68 -69 -68s-69 30 -69 68zM430 677c0 37 30 67 69 67s69 -30 69 -67c0 -38 -30 -68 -69 -68s-69 30 -69 68zM649 560h128l-138 -560h-130l-104 377l-104 -377h-130l-138 560h127l89 -398l102 390h108l102 -390z" />
    <glyph glyph-name="wacute.smcp" horiz-adv-x="821" 
d="M415 741h104l-78 -125h-77zM649 560h128l-138 -560h-130l-104 377l-104 -377h-130l-138 560h127l89 -398l102 390h108l102 -390z" />
    <glyph glyph-name="wgrave.smcp" horiz-adv-x="821" 
d="M393 741l52 -125h-77l-79 125h104zM649 560h128l-138 -560h-130l-104 377l-104 -377h-130l-138 560h127l89 -398l102 390h108l102 -390z" />
    <glyph glyph-name="jcircumflex.smcp" horiz-adv-x="495" 
d="M213 608l100 117h84l99 -117h-91l-50 67l-51 -67h-91zM291 560h132v-385c0 -116 -72 -184 -193 -184c-120 0 -195 67 -198 177h129c1 -47 24 -74 66 -74s64 29 64 82v384z" />
    <glyph glyph-name="aacute.smcp" horiz-adv-x="613" 
d="M312 741h104l-78 -125h-77zM376 560l199 -560h-132l-35 106h-213l-35 -106h-132l199 560h149zM221 200h161l-81 247z" />
    <glyph glyph-name="cedilla.smcp" horiz-adv-x="384" 
d="M138 0h54l-7 -45c56 1 83 -29 83 -67c0 -45 -38 -72 -105 -72c-19 0 -35 2 -48 6v52c11 -3 24 -5 41 -5c28 0 44 7 44 20s-15 19 -45 19c-9 0 -19 -1 -25 -2v37z" />
    <glyph glyph-name="dotlessi.smcp" horiz-adv-x="272" 
d="M202 0h-132v560h132v-560z" />
    <glyph glyph-name="aring.smcp" horiz-adv-x="613" 
d="M219 690c0 45 35 79 82 79c46 0 81 -35 81 -79c0 -45 -35 -80 -81 -80c-47 0 -82 35 -82 80zM272 690c0 -17 13 -30 29 -30s28 14 28 30s-12 29 -28 29s-29 -12 -29 -29zM376 560l199 -560h-132l-35 106h-213l-35 -106h-132l199 560h149zM221 200h161l-81 247z" />
    <glyph glyph-name="ccedilla.smcp" horiz-adv-x="637" 
d="M317 96c67 0 116 39 127 104h135c-19 -122 -114 -202 -246 -208l-6 -37c56 1 83 -29 83 -67c0 -45 -38 -72 -105 -72c-19 0 -35 2 -48 6v52c11 -3 24 -5 41 -5c28 0 44 7 44 20s-15 19 -45 19c-9 0 -19 -1 -25 -2v37l7 50c-143 16 -237 127 -237 287
c0 174 109 289 273 289c142 0 249 -85 261 -209h-134c-10 63 -62 104 -127 104c-84 0 -139 -72 -139 -183c0 -112 56 -185 141 -185z" />
    <glyph glyph-name="aogonek.smcp" horiz-adv-x="613" 
d="M376 560l199 -560h-3c-25 -14 -45 -44 -45 -73c0 -35 31 -46 67 -43v-65c-10 -2 -22 -3 -35 -3c-60 0 -103 30 -103 82c0 43 29 83 67 102h-80l-35 106h-213l-35 -106h-132l199 560h149zM221 200h161l-81 247z" />
    <glyph glyph-name="ccaron.smcp" horiz-adv-x="637" 
d="M168 733h91l51 -68l50 68h92l-100 -117h-84zM317 96c67 0 116 39 127 104h135c-20 -128 -122 -209 -264 -209c-164 0 -273 116 -273 289c0 174 109 289 273 289c142 0 249 -85 261 -209h-134c-10 63 -62 104 -127 104c-84 0 -139 -72 -139 -183c0 -112 56 -185 141 -185z
" />
    <glyph glyph-name="dcaron.smcp" horiz-adv-x="619" 
d="M122 733h91l51 -68l50 68h92l-100 -117h-84zM265 560c190 0 288 -97 288 -280c0 -176 -106 -280 -288 -280h-210v560h210zM252 103c107 0 166 62 166 178c0 120 -54 176 -166 176h-65v-354h65z" />
    <glyph glyph-name="eogonek.smcp" horiz-adv-x="516" 
d="M441 457h-254v-125h222v-98h-222v-131h254v-103c-25 -14 -45 -44 -45 -73c0 -35 31 -46 67 -43v-65c-10 -2 -22 -3 -35 -3c-60 0 -103 30 -103 82c0 43 29 83 67 102h-337v560h386v-103z" />
    <glyph glyph-name="ecaron.smcp" horiz-adv-x="516" 
d="M108 733h91l51 -68l50 68h92l-100 -117h-84zM441 457h-254v-125h222v-98h-222v-131h254v-103h-386v560h386v-103z" />
    <glyph glyph-name="gcommaaccent.smcp" horiz-adv-x="652" 
d="M587 306c2 -17 3 -39 3 -56c0 -164 -98 -259 -264 -259c-175 0 -284 110 -284 289c0 177 108 289 277 289c138 0 244 -76 263 -188h-131c-16 53 -65 87 -128 87c-92 0 -148 -70 -148 -185c0 -117 59 -191 155 -191c78 0 130 46 133 115l1 10h-128v89h251zM262 -50h100
l-66 -152h-66z" />
    <glyph glyph-name="iogonek.smcp" horiz-adv-x="271" 
d="M187 0c-25 -14 -45 -44 -45 -73c0 -35 31 -46 67 -43v-65c-10 -2 -22 -3 -35 -3c-60 0 -103 30 -103 82c0 43 29 83 67 102h-83v560h132v-560z" />
    <glyph glyph-name="ncaron.smcp" horiz-adv-x="629" 
d="M158 733h91l51 -68l50 68h92l-100 -117h-84zM416 560h129v-560h-143l-219 359v-359h-128v560h142l219 -359v359z" />
    <glyph glyph-name="rcaron.smcp" horiz-adv-x="561" 
d="M115 733h91l51 -68l50 68h92l-100 -117h-84zM55 0v560h240c116 0 195 -77 195 -189c0 -75 -37 -134 -98 -164l114 -207h-140l-93 184h-86v-184h-132zM268 286c53 0 89 34 89 86s-36 85 -89 85h-82v-171h82z" />
    <glyph glyph-name="scedilla.smcp" horiz-adv-x="557" 
d="M182 408c0 -34 29 -53 103 -70l36 -8c128 -28 176 -72 176 -161c0 -103 -78 -171 -206 -177l-6 -37c56 1 83 -29 83 -67c0 -45 -38 -72 -105 -72c-19 0 -35 2 -48 6v52c11 -3 24 -5 41 -5c28 0 44 7 44 20s-15 19 -45 19c-9 0 -19 -1 -25 -2v37l7 50
c-115 11 -191 76 -198 181h129c3 -49 47 -83 108 -83c54 0 91 28 91 67c0 35 -28 53 -101 69l-33 8c-122 26 -179 77 -179 161c0 103 85 173 212 173c121 0 207 -67 215 -169h-124c-6 43 -42 71 -93 71c-48 0 -82 -25 -82 -63z" />
    <glyph glyph-name="scaron.smcp" horiz-adv-x="557" 
d="M126 733h91l51 -68l50 68h92l-100 -117h-84zM182 408c0 -34 29 -53 103 -70l36 -8c128 -28 176 -72 176 -161c0 -108 -85 -178 -224 -178c-135 0 -226 68 -234 183h129c3 -49 47 -83 108 -83c54 0 91 28 91 67c0 35 -28 53 -101 69l-33 8c-122 26 -179 77 -179 161
c0 103 85 173 212 173c121 0 207 -67 215 -169h-124c-6 43 -42 71 -93 71c-48 0 -82 -25 -82 -63z" />
    <glyph glyph-name="tcedilla.smcp" horiz-adv-x="544" 
d="M34 560h462v-103h-165v-457h-42l-7 -45c56 1 83 -29 83 -67c0 -45 -38 -72 -105 -72c-19 0 -35 2 -48 6v52c11 -3 24 -5 41 -5c28 0 44 7 44 20s-15 19 -45 19c-9 0 -19 -1 -25 -2v37l8 57h-36v457h-165v103z" />
    <glyph glyph-name="tcaron.smcp" horiz-adv-x="544" 
d="M124 733h91l51 -68l50 68h92l-100 -117h-84zM34 560h462v-103h-165v-457h-132v457h-165v103z" />
    <glyph glyph-name="uring.smcp" horiz-adv-x="612" 
d="M209 690c0 45 35 79 82 79c46 0 81 -35 81 -79c0 -45 -35 -80 -81 -80c-47 0 -82 35 -82 80zM262 690c0 -17 13 -30 29 -30s28 14 28 30s-12 29 -28 29s-29 -12 -29 -29zM396 560h132v-352c0 -131 -94 -217 -237 -217s-236 86 -236 217v352h132v-347
c0 -76 38 -118 104 -118s105 42 105 118v347z" />
    <glyph glyph-name="uhungarumlaut.smcp" horiz-adv-x="612" 
d="M364 741h101l-63 -125h-85zM209 741h99l-47 -125h-80zM396 560h132v-352c0 -131 -94 -217 -237 -217s-236 86 -236 217v352h132v-347c0 -76 38 -118 104 -118s105 42 105 118v347z" />
    <glyph glyph-name="uogonek.smcp" horiz-adv-x="612" 
d="M396 560h132v-352c0 -97 -51 -169 -135 -200c-21 -15 -35 -41 -35 -66c0 -35 31 -46 67 -43v-65c-10 -2 -22 -3 -35 -3c-60 0 -103 30 -103 82c0 30 14 59 36 80c-10 -1 -21 -2 -32 -2c-143 0 -236 86 -236 217v352h132v-347c0 -76 38 -118 104 -118s105 42 105 118v347z
" />
    <glyph glyph-name="zcaron.smcp" horiz-adv-x="568" 
d="M130 733h91l51 -68l50 68h92l-100 -117h-84zM215 103h283v-103h-453v57l274 400h-266v103h437v-57z" />
    <glyph glyph-name="Eogonek" unicode="&#x118;" horiz-adv-x="605" 
d="M543 589h-329v-181h289v-108h-289v-189h329v-111h-8c-34 -19 -63 -59 -63 -98c0 -47 43 -59 87 -54v-74c-13 -3 -27 -4 -42 -4c-72 0 -126 37 -126 102c0 56 38 104 84 128h-400v700h468v-111z" />
    <glyph glyph-name="uni0162" unicode="&#x162;" horiz-adv-x="637" 
d="M34 700h561v-111h-211v-589h-43l-8 -56c67 1 100 -36 100 -83c0 -57 -47 -91 -132 -91c-20 0 -40 2 -56 7v63c15 -4 32 -6 49 -6c39 0 59 9 59 27s-20 27 -57 27c-12 0 -22 -1 -32 -3v46l10 69h-29v589h-211v111z" />
    <glyph glyph-name="uni0163" unicode="&#x163;" horiz-adv-x="366" 
d="M312 430h-96v-277c0 -42 21 -57 61 -57c18 0 35 2 40 4v-100c-2 -1 -5 -1 -8 -2l-8 -54c67 1 100 -36 100 -83c0 -57 -47 -91 -132 -91c-20 0 -40 2 -56 7v63c15 -4 32 -6 49 -6c39 0 59 9 59 27s-20 27 -57 27c-12 0 -22 -1 -32 -3v46l9 61c-108 1 -154 47 -154 158v280
h-63v98h63v124h126v-124h99v-98z" />
    <glyph glyph-name="guilsinglleft.case" horiz-adv-x="438" 
d="M367 106h-132l-164 214l164 214h132l-168 -214z" />
    <glyph glyph-name="guilsinglright.case" horiz-adv-x="438" 
d="M203 106h-132l168 214l-168 214h132l164 -214z" />
    <glyph glyph-name="minus.case" horiz-adv-x="665" 
d="M590 232h-516v112h516v-112z" />
    <glyph glyph-name="approxequal.case" horiz-adv-x="708" 
d="M95 319c1 102 60 162 156 162c115 0 139 -86 202 -86c32 0 54 23 55 58h104c0 -102 -59 -161 -156 -161c-115 0 -140 86 -203 86c-33 0 -53 -22 -54 -59h-104zM95 84c1 101 60 162 156 162c115 0 139 -86 202 -86c32 0 54 22 55 58h104c0 -102 -59 -162 -156 -162
c-115 0 -140 86 -203 86c-33 0 -53 -22 -54 -58h-104z" />
    <glyph glyph-name="notequal.case" horiz-adv-x="655" 
d="M61 120v108h157l49 122h-206v108h249l36 92h122l-37 -92h114v-108h-157l-48 -122h205v-108h-248l-36 -92h-122l36 92h-114z" />
    <glyph glyph-name="lessequal.case" horiz-adv-x="658" 
d="M577 177l-496 147v103l496 149v-122l-328 -78l328 -77v-122zM577 30h-496v103h496v-103z" />
    <glyph glyph-name="greaterequal.case" horiz-adv-x="658" 
d="M81 177v122l328 77l-328 78v122l496 -149v-103zM81 30v103h496v-103h-496z" />
    <glyph glyph-name="oe.smcp" horiz-adv-x="939" 
d="M326 569c58 0 109 -14 152 -38v29h386v-103h-254v-125h222v-98h-222v-131h254v-103h-386v29c-43 -24 -94 -38 -152 -38c-170 0 -284 116 -284 289s114 289 284 289zM326 96c92 0 151 72 151 184s-59 184 -151 184s-150 -72 -150 -184s58 -184 150 -184z" />
    <glyph glyph-name="Adieresis" unicode="&#xc4;" horiz-adv-x="708" 
d="M175 834c0 39 31 69 71 69c41 0 71 -30 71 -69s-30 -69 -71 -69c-40 0 -71 30 -71 69zM380 834c0 39 30 69 71 69s71 -30 71 -69s-30 -69 -71 -69s-71 30 -71 69zM429 700l252 -700h-139l-49 145h-278l-49 -145h-139l253 700h149zM246 248h217l-109 323z" />
    <glyph glyph-name="uni0237" unicode="&#x237;" horiz-adv-x="272" 
d="M78 528h129v-533c0 -120 -65 -175 -205 -175v100c49 0 76 26 76 74v534z" />
    <glyph glyph-name="threeeighths" unicode="&#x215c;" horiz-adv-x="824" 
d="M38 463h85c0 -27 23 -44 52 -44s51 17 51 43c0 27 -25 39 -56 39l-39 -1v63h37c28 0 52 13 52 39c0 23 -21 37 -45 37c-27 0 -46 -18 -46 -43h-81c0 69 59 109 130 109c62 0 124 -30 124 -90c0 -38 -23 -70 -61 -80c45 -8 74 -39 74 -83c0 -66 -68 -101 -139 -101
c-76 0 -137 40 -138 112zM107 0l509 700h91l-509 -700h-91zM511 255c0 59 65 90 128 90c64 0 129 -31 129 -90c0 -35 -24 -65 -58 -77c42 -12 70 -43 70 -85c0 -67 -68 -102 -141 -102c-72 0 -141 34 -141 101c0 42 29 74 71 86c-35 12 -58 42 -58 77zM683 243
c0 24 -17 41 -44 41c-26 0 -44 -17 -44 -41s19 -39 44 -39c26 0 44 15 44 39zM691 100c0 26 -22 43 -52 43c-29 0 -52 -17 -52 -43c0 -27 23 -44 52 -44c30 0 52 17 52 44z" />
    <glyph glyph-name="fiveeighths" unicode="&#x215d;" horiz-adv-x="815" 
d="M34 459h83c6 -24 26 -40 52 -40c31 0 53 23 53 54c0 30 -22 54 -52 54c-20 0 -40 -10 -50 -28h-82l19 201h225v-69h-157l-5 -70c19 20 43 27 70 27c68 0 116 -46 116 -114c0 -77 -61 -123 -138 -123c-70 0 -131 37 -134 108zM98 0l509 700h91l-509 -700h-91zM502 255
c0 59 65 90 129 90c63 0 128 -31 128 -90c0 -35 -23 -65 -58 -77c42 -12 70 -43 70 -85c0 -67 -68 -102 -140 -102c-73 0 -141 34 -141 101c0 42 28 74 70 86c-34 12 -58 42 -58 77zM675 243c0 24 -18 41 -44 41s-45 -17 -45 -41s19 -39 45 -39s44 15 44 39zM683 100
c0 26 -23 43 -52 43c-30 0 -53 -17 -53 -43c0 -27 23 -44 53 -44c29 0 52 17 52 44z" />
    <glyph glyph-name="onethird" unicode="&#x2153;" horiz-adv-x="742" 
d="M41 557v82l89 61h71v-344h-88v251zM35 0l509 700h91l-509 -700h-91zM427 103h85c0 -27 23 -44 52 -44s51 17 51 43c0 27 -25 39 -56 39l-39 -1v63h37c28 0 52 13 52 39c0 23 -21 37 -45 37c-27 0 -46 -18 -46 -43h-81c0 69 59 109 130 109c62 0 124 -30 124 -90
c0 -38 -23 -70 -61 -80c45 -8 74 -39 74 -83c0 -66 -68 -101 -139 -101c-76 0 -137 40 -138 112z" />
    <glyph glyph-name="twothirds" unicode="&#x2154;" horiz-adv-x="871" 
d="M86 356v55l137 121c20 19 41 38 41 64c0 25 -19 42 -45 42c-29 0 -47 -18 -49 -48h-84c2 73 61 115 137 115c72 0 130 -36 130 -101c0 -40 -23 -73 -60 -105l-75 -69h137v-74h-269zM173 0l509 700h91l-509 -700h-91zM546 103h85c0 -27 23 -44 52 -44s51 17 51 43
c0 27 -25 39 -56 39l-39 -1v63h37c28 0 52 13 52 39c0 23 -21 37 -45 37c-27 0 -46 -18 -46 -43h-81c0 69 59 109 130 109c62 0 124 -30 124 -90c0 -38 -23 -70 -61 -80c45 -8 74 -39 74 -83c0 -66 -68 -101 -139 -101c-76 0 -137 40 -138 112z" />
    <glyph glyph-name="oneeighth" unicode="&#x215b;" horiz-adv-x="752" 
d="M38 557v82l89 61h71v-344h-88v251zM44 0l509 700h91l-509 -700h-91zM439 255c0 59 65 90 129 90c63 0 128 -31 128 -90c0 -35 -23 -65 -58 -77c42 -12 70 -43 70 -85c0 -67 -68 -102 -140 -102c-73 0 -141 34 -141 101c0 42 28 74 70 86c-34 12 -58 42 -58 77zM611 243
c0 24 -17 41 -43 41c-27 0 -45 -17 -45 -41s19 -39 45 -39c25 0 43 15 43 39zM619 100c0 26 -22 43 -51 43c-30 0 -53 -17 -53 -43c0 -27 23 -44 53 -44c29 0 51 17 51 44z" />
    <glyph glyph-name="seveneighths" unicode="&#x215e;" horiz-adv-x="774" 
d="M46 700h252v-45l-134 -299h-93l129 272h-154v72zM51 0l509 700h91l-509 -700h-91zM461 255c0 59 65 90 128 90c64 0 129 -31 129 -90c0 -35 -24 -65 -58 -77c42 -12 70 -43 70 -85c0 -67 -68 -102 -141 -102c-72 0 -141 34 -141 101c0 42 28 74 71 86
c-35 12 -58 42 -58 77zM633 243c0 24 -18 41 -44 41s-44 -17 -44 -41s18 -39 44 -39s44 15 44 39zM641 100c0 26 -22 43 -52 43c-29 0 -52 -17 -52 -43c0 -27 23 -44 52 -44c30 0 52 17 52 44z" />
    <glyph glyph-name="Zacute" unicode="&#x179;" 
d="M332 924h118l-97 -154h-87zM227 111h365v-111h-544v66l355 523h-345v111h524v-66z" />
    <glyph glyph-name="Zdotaccent" unicode="&#x17b;" 
d="M246 829c0 36 28 64 66 64c37 0 65 -28 65 -64s-28 -64 -65 -64c-38 0 -66 28 -66 64zM227 111h365v-111h-544v66l355 523h-345v111h524v-66z" />
    <glyph glyph-name="Zcaron" unicode="&#x17d;" 
d="M265 770l-124 144h105l67 -86l67 86h105l-124 -144h-96zM227 111h365v-111h-544v66l355 523h-345v111h524v-66z" />
    <glyph glyph-name="agrave" unicode="&#xe0;" horiz-adv-x="574" 
d="M144 738h118l66 -154h-87zM296 539c141 0 214 -70 214 -203v-336h-114l-10 70c-30 -52 -86 -80 -161 -80c-112 0 -182 60 -182 153c0 117 110 175 338 175v10c0 81 -29 113 -94 113c-57 0 -97 -27 -100 -71h-123c5 101 98 169 232 169zM382 198v39
c-138 0 -210 -31 -210 -87c0 -41 34 -67 87 -67c76 0 123 44 123 115z" />
    <glyph glyph-name="aacute" unicode="&#xe1;" horiz-adv-x="574" 
d="M306 738h118l-97 -154h-87zM296 539c141 0 214 -70 214 -203v-336h-114l-10 70c-30 -52 -86 -80 -161 -80c-112 0 -182 60 -182 153c0 117 110 175 338 175v10c0 81 -29 113 -94 113c-57 0 -97 -27 -100 -71h-123c5 101 98 169 232 169zM382 198v39
c-138 0 -210 -31 -210 -87c0 -41 34 -67 87 -67c76 0 123 44 123 115z" />
    <glyph glyph-name="acircumflex" unicode="&#xe2;" horiz-adv-x="574" 
d="M114 574l124 144h96l124 -144h-105l-67 86l-67 -86h-105zM296 539c141 0 214 -70 214 -203v-336h-114l-10 70c-30 -52 -86 -80 -161 -80c-112 0 -182 60 -182 153c0 117 110 175 338 175v10c0 81 -29 113 -94 113c-57 0 -97 -27 -100 -71h-123c5 101 98 169 232 169z
M382 198v39c-138 0 -210 -31 -210 -87c0 -41 34 -67 87 -67c76 0 123 44 123 115z" />
    <glyph glyph-name="atilde" unicode="&#xe3;" horiz-adv-x="574" 
d="M133 584c0 66 32 106 91 106c66 0 85 -51 117 -51c16 0 29 14 28 38h71c1 -67 -31 -106 -90 -106c-68 0 -87 51 -118 51c-17 0 -30 -13 -28 -38h-71zM296 539c141 0 214 -70 214 -203v-336h-114l-10 70c-30 -52 -86 -80 -161 -80c-112 0 -182 60 -182 153
c0 117 110 175 338 175v10c0 81 -29 113 -94 113c-57 0 -97 -27 -100 -71h-123c5 101 98 169 232 169zM382 198v39c-138 0 -210 -31 -210 -87c0 -41 34 -67 87 -67c76 0 123 44 123 115z" />
    <glyph glyph-name="adieresis" unicode="&#xe4;" horiz-adv-x="574" 
d="M121 648c0 39 31 69 71 69c41 0 71 -30 71 -69s-30 -69 -71 -69c-40 0 -71 30 -71 69zM326 648c0 39 30 69 71 69s71 -30 71 -69s-30 -69 -71 -69s-71 30 -71 69zM296 539c141 0 214 -70 214 -203v-336h-114l-10 70c-30 -52 -86 -80 -161 -80c-112 0 -182 60 -182 153
c0 117 110 175 338 175v10c0 81 -29 113 -94 113c-57 0 -97 -27 -100 -71h-123c5 101 98 169 232 169zM382 198v39c-138 0 -210 -31 -210 -87c0 -41 34 -67 87 -67c76 0 123 44 123 115z" />
    <glyph glyph-name="aring" unicode="&#xe5;" horiz-adv-x="574" 
d="M201 667c0 51 39 90 93 90c53 0 93 -39 93 -90s-40 -91 -93 -91s-93 40 -93 91zM260 667c0 -20 15 -35 34 -35s34 16 34 35s-14 34 -34 34c-19 0 -34 -14 -34 -34zM296 539c141 0 214 -70 214 -203v-336h-114l-10 70c-30 -52 -86 -80 -161 -80c-112 0 -182 60 -182 153
c0 117 110 175 338 175v10c0 81 -29 113 -94 113c-57 0 -97 -27 -100 -71h-123c5 101 98 169 232 169zM382 198v39c-138 0 -210 -31 -210 -87c0 -41 34 -67 87 -67c76 0 123 44 123 115z" />
    <glyph glyph-name="ccedilla" unicode="&#xe7;" horiz-adv-x="594" 
d="M312 92c59 0 102 35 113 92h127c-12 -112 -96 -185 -219 -194l-7 -46c67 1 100 -36 100 -83c0 -57 -47 -91 -132 -91c-20 0 -40 2 -56 7v63c15 -4 32 -6 49 -6c39 0 59 9 59 27s-20 27 -57 27c-12 0 -22 -1 -32 -3v46l9 61c-135 18 -223 123 -223 272
c0 163 107 275 265 275c136 0 231 -76 244 -195h-127c-11 57 -54 92 -113 92c-85 0 -138 -65 -138 -172s53 -172 138 -172z" />
    <glyph glyph-name="egrave" unicode="&#xe8;" horiz-adv-x="603" 
d="M151 738h118l66 -154h-87zM560 262v-26h-386c1 -82 52 -148 135 -148c52 0 94 22 114 70h130c-24 -106 -127 -169 -245 -169c-163 0 -265 114 -265 274c0 158 100 276 260 276c165 0 257 -108 257 -277zM176 318h254c-9 82 -52 124 -125 124c-72 0 -120 -45 -129 -124z
" />
    <glyph glyph-name="eacute" unicode="&#xe9;" horiz-adv-x="603" 
d="M313 738h118l-97 -154h-87zM560 262v-26h-386c1 -82 52 -148 135 -148c52 0 94 22 114 70h130c-24 -106 -127 -169 -245 -169c-163 0 -265 114 -265 274c0 158 100 276 260 276c165 0 257 -108 257 -277zM176 318h254c-9 82 -52 124 -125 124c-72 0 -120 -45 -129 -124z
" />
    <glyph glyph-name="ecircumflex" unicode="&#xea;" horiz-adv-x="603" 
d="M121 574l124 144h96l124 -144h-105l-67 86l-67 -86h-105zM560 262v-26h-386c1 -82 52 -148 135 -148c52 0 94 22 114 70h130c-24 -106 -127 -169 -245 -169c-163 0 -265 114 -265 274c0 158 100 276 260 276c165 0 257 -108 257 -277zM176 318h254
c-9 82 -52 124 -125 124c-72 0 -120 -45 -129 -124z" />
    <glyph glyph-name="edieresis" unicode="&#xeb;" horiz-adv-x="603" 
d="M128 648c0 39 31 69 71 69c41 0 71 -30 71 -69s-30 -69 -71 -69c-40 0 -71 30 -71 69zM333 648c0 39 30 69 71 69s71 -30 71 -69s-30 -69 -71 -69s-71 30 -71 69zM560 262v-26h-386c1 -82 52 -148 135 -148c52 0 94 22 114 70h130c-24 -106 -127 -169 -245 -169
c-163 0 -265 114 -265 274c0 158 100 276 260 276c165 0 257 -108 257 -277zM176 318h254c-9 82 -52 124 -125 124c-72 0 -120 -45 -129 -124z" />
    <glyph glyph-name="igrave" unicode="&#xec;" horiz-adv-x="264" 
d="M-18 738h118l66 -154h-87zM197 0h-130v528h130v-528z" />
    <glyph glyph-name="iacute" unicode="&#xed;" horiz-adv-x="264" 
d="M144 738h118l-97 -154h-87zM197 0h-130v528h130v-528z" />
    <glyph glyph-name="icircumflex" unicode="&#xee;" horiz-adv-x="264" 
d="M-48 574l124 144h96l124 -144h-105l-67 86l-67 -86h-105zM197 0h-130v528h130v-528z" />
    <glyph glyph-name="idieresis" unicode="&#xef;" horiz-adv-x="264" 
d="M-42 648c0 39 31 69 71 69c41 0 71 -30 71 -69s-30 -69 -71 -69c-40 0 -71 30 -71 69zM163 648c0 39 30 69 71 69s71 -30 71 -69s-30 -69 -71 -69s-71 30 -71 69zM197 0h-130v528h130v-528z" />
    <glyph glyph-name="ntilde" unicode="&#xf1;" horiz-adv-x="594" 
d="M137 584c0 66 32 106 91 106c66 0 85 -51 117 -51c16 0 29 14 28 38h71c1 -67 -31 -106 -90 -106c-68 0 -87 51 -118 51c-17 0 -30 -13 -28 -38h-71zM356 539c109 0 176 -71 176 -188v-351h-130v319c0 73 -36 113 -99 113c-69 0 -109 -49 -109 -135v-297h-129v528h117
l10 -75c37 56 92 86 164 86z" />
    <glyph glyph-name="ugrave" unicode="&#xf9;" horiz-adv-x="594" 
d="M146 738h118l66 -154h-87zM237 -11c-108 0 -175 71 -175 188v351h130v-318c0 -73 36 -113 99 -113c69 0 109 49 109 135v296h129v-528h-117l-10 75c-37 -56 -93 -86 -165 -86z" />
    <glyph glyph-name="uacute" unicode="&#xfa;" horiz-adv-x="594" 
d="M307 738h118l-97 -154h-87zM237 -11c-108 0 -175 71 -175 188v351h130v-318c0 -73 36 -113 99 -113c69 0 109 49 109 135v296h129v-528h-117l-10 75c-37 -56 -93 -86 -165 -86z" />
    <glyph glyph-name="ucircumflex" unicode="&#xfb;" horiz-adv-x="594" 
d="M116 574l124 144h96l124 -144h-105l-67 86l-67 -86h-105zM237 -11c-108 0 -175 71 -175 188v351h130v-318c0 -73 36 -113 99 -113c69 0 109 49 109 135v296h129v-528h-117l-10 75c-37 -56 -93 -86 -165 -86z" />
    <glyph glyph-name="udieresis" unicode="&#xfc;" horiz-adv-x="594" 
d="M122 648c0 39 31 69 71 69c41 0 71 -30 71 -69s-30 -69 -71 -69c-40 0 -71 30 -71 69zM327 648c0 39 30 69 71 69s71 -30 71 -69s-30 -69 -71 -69s-71 30 -71 69zM237 -11c-108 0 -175 71 -175 188v351h130v-318c0 -73 36 -113 99 -113c69 0 109 49 109 135v296h129v-528
h-117l-10 75c-37 -56 -93 -86 -165 -86z" />
    <glyph glyph-name="yacute" unicode="&#xfd;" horiz-adv-x="568" 
d="M296 738h118l-97 -154h-87zM407 528h137l-264 -708h-136l82 201l-202 507h137l128 -362z" />
    <glyph glyph-name="ydieresis" unicode="&#xff;" horiz-adv-x="568" 
d="M110 648c0 39 31 69 71 69c41 0 71 -30 71 -69s-30 -69 -71 -69c-40 0 -71 30 -71 69zM315 648c0 39 30 69 71 69s71 -30 71 -69s-30 -69 -71 -69s-71 30 -71 69zM407 528h137l-264 -708h-136l82 201l-202 507h137l128 -362z" />
    <glyph glyph-name="amacron" unicode="&#x101;" horiz-adv-x="574" 
d="M122 584v92h328v-92h-328zM296 539c141 0 214 -70 214 -203v-336h-114l-10 70c-30 -52 -86 -80 -161 -80c-112 0 -182 60 -182 153c0 117 110 175 338 175v10c0 81 -29 113 -94 113c-57 0 -97 -27 -100 -71h-123c5 101 98 169 232 169zM382 198v39
c-138 0 -210 -31 -210 -87c0 -41 34 -67 87 -67c76 0 123 44 123 115z" />
    <glyph glyph-name="abreve" unicode="&#x103;" horiz-adv-x="574" 
d="M440 731c0 -89 -64 -154 -153 -154s-155 65 -155 154h79c0 -45 32 -80 76 -80c43 0 75 35 75 80h78zM296 539c141 0 214 -70 214 -203v-336h-114l-10 70c-30 -52 -86 -80 -161 -80c-112 0 -182 60 -182 153c0 117 110 175 338 175v10c0 81 -29 113 -94 113
c-57 0 -97 -27 -100 -71h-123c5 101 98 169 232 169zM382 198v39c-138 0 -210 -31 -210 -87c0 -41 34 -67 87 -67c76 0 123 44 123 115z" />
    <glyph glyph-name="aogonek" unicode="&#x105;" horiz-adv-x="574" 
d="M296 539c141 0 214 -70 214 -203v-336h-7c-34 -19 -63 -59 -63 -98c0 -47 43 -59 87 -54v-74c-13 -3 -27 -4 -42 -4c-72 0 -126 37 -126 102c0 56 38 104 84 128h-47l-10 70c-30 -52 -86 -80 -161 -80c-112 0 -182 60 -182 153c0 117 110 175 338 175v10
c0 81 -29 113 -94 113c-57 0 -97 -27 -100 -71h-123c5 101 98 169 232 169zM382 198v39c-138 0 -210 -31 -210 -87c0 -41 34 -67 87 -67c76 0 123 44 123 115z" />
    <glyph glyph-name="cacute" unicode="&#x107;" horiz-adv-x="594" 
d="M319 738h118l-97 -154h-87zM312 92c59 0 102 35 113 92h127c-13 -119 -108 -195 -244 -195c-158 0 -265 111 -265 275c0 163 107 275 265 275c136 0 231 -76 244 -195h-127c-11 57 -54 92 -113 92c-85 0 -138 -65 -138 -172s53 -172 138 -172z" />
    <glyph glyph-name="ccircumflex" unicode="&#x109;" horiz-adv-x="594" 
d="M128 574l124 144h96l124 -144h-105l-67 86l-67 -86h-105zM312 92c59 0 102 35 113 92h127c-13 -119 -108 -195 -244 -195c-158 0 -265 111 -265 275c0 163 107 275 265 275c136 0 231 -76 244 -195h-127c-11 57 -54 92 -113 92c-85 0 -138 -65 -138 -172
s53 -172 138 -172z" />
    <glyph glyph-name="cdotaccent" unicode="&#x10b;" horiz-adv-x="594" 
d="M234 643c0 36 28 64 66 64c37 0 65 -28 65 -64s-28 -64 -65 -64c-38 0 -66 28 -66 64zM312 92c59 0 102 35 113 92h127c-13 -119 -108 -195 -244 -195c-158 0 -265 111 -265 275c0 163 107 275 265 275c136 0 231 -76 244 -195h-127c-11 57 -54 92 -113 92
c-85 0 -138 -65 -138 -172s53 -172 138 -172z" />
    <glyph glyph-name="ccaron" unicode="&#x10d;" horiz-adv-x="594" 
d="M252 584l-124 144h105l67 -86l67 86h105l-124 -144h-96zM312 92c59 0 102 35 113 92h127c-13 -119 -108 -195 -244 -195c-158 0 -265 111 -265 275c0 163 107 275 265 275c136 0 231 -76 244 -195h-127c-11 57 -54 92 -113 92c-85 0 -138 -65 -138 -172s53 -172 138 -172
z" />
    <glyph glyph-name="edotaccent" unicode="&#x117;" horiz-adv-x="603" 
d="M227 643c0 36 28 64 66 64c37 0 65 -28 65 -64s-28 -64 -65 -64c-38 0 -66 28 -66 64zM560 262v-26h-386c1 -82 52 -148 135 -148c52 0 94 22 114 70h130c-24 -106 -127 -169 -245 -169c-163 0 -265 114 -265 274c0 158 100 276 260 276c165 0 257 -108 257 -277z
M176 318h254c-9 82 -52 124 -125 124c-72 0 -120 -45 -129 -124z" />
    <glyph glyph-name="eogonek" unicode="&#x119;" horiz-adv-x="603" 
d="M560 262v-26h-386c1 -82 52 -148 135 -148c52 0 94 22 114 70h130c-17 -74 -72 -127 -145 -152c-24 -21 -41 -52 -41 -83c0 -47 43 -59 87 -54v-74c-13 -3 -27 -4 -42 -4c-72 0 -126 37 -126 102c0 37 17 71 42 97c-7 -1 -14 -1 -20 -1c-163 0 -265 114 -265 274
c0 158 100 276 260 276c165 0 257 -108 257 -277zM176 318h254c-9 82 -52 124 -125 124c-72 0 -120 -45 -129 -124z" />
    <glyph glyph-name="ecaron" unicode="&#x11b;" horiz-adv-x="603" 
d="M246 584l-124 144h105l67 -86l67 86h105l-124 -144h-96zM560 262v-26h-386c1 -82 52 -148 135 -148c52 0 94 22 114 70h130c-24 -106 -127 -169 -245 -169c-163 0 -265 114 -265 274c0 158 100 276 260 276c165 0 257 -108 257 -277zM176 318h254c-9 82 -52 124 -125 124
c-72 0 -120 -45 -129 -124z" />
    <glyph glyph-name="gcircumflex" unicode="&#x11d;" horiz-adv-x="629" 
d="M123 574l124 144h96l124 -144h-105l-67 86l-67 -86h-105zM306 -92c80 0 129 43 129 135v74c-34 -53 -94 -87 -166 -87c-135 0 -226 103 -226 255c0 151 92 254 227 254c70 0 132 -32 167 -86l9 75h118v-475c0 -163 -105 -244 -262 -244c-133 0 -232 73 -244 176h129
c9 -47 54 -77 119 -77zM440 284c0 93 -53 155 -134 155c-80 0 -133 -62 -133 -155c0 -94 53 -156 133 -156c81 0 134 63 134 156z" />
    <glyph glyph-name="itilde" unicode="&#x129;" horiz-adv-x="264" 
d="M-30 584c0 66 32 106 91 106c66 0 85 -51 117 -51c16 0 29 14 28 38h71c1 -67 -31 -106 -90 -106c-68 0 -87 51 -118 51c-17 0 -30 -13 -28 -38h-71zM197 0h-130v528h130v-528z" />
    <glyph glyph-name="imacron" unicode="&#x12b;" horiz-adv-x="264" 
d="M-40 584v92h328v-92h-328zM197 0h-130v528h130v-528z" />
    <glyph glyph-name="iogonek" unicode="&#x12f;" horiz-adv-x="268" 
d="M134 589c-43 0 -77 32 -77 75c0 42 34 74 77 74c44 0 77 -32 77 -74c0 -43 -33 -75 -77 -75zM198 0h-8c-34 -19 -63 -59 -63 -98c0 -47 43 -59 87 -54v-74c-13 -3 -27 -4 -42 -4c-72 0 -126 37 -126 102c0 56 38 104 84 128h-62v528h130v-528z" />
    <glyph glyph-name="hcircumflex" unicode="&#x125;" horiz-adv-x="596" 
d="M-49 760l124 144h96l124 -144h-105l-67 86l-67 -86h-105zM359 539c109 0 175 -72 175 -188v-351h-129v318c0 74 -36 113 -99 113c-69 0 -109 -49 -109 -134v-297h-130v730h130v-277c34 55 91 86 162 86z" />
    <glyph glyph-name="ebreve" unicode="&#x115;" horiz-adv-x="603" 
d="M447 731c0 -89 -64 -154 -153 -154s-155 65 -155 154h79c0 -45 32 -80 76 -80c43 0 75 35 75 80h78zM560 262v-26h-386c1 -82 52 -148 135 -148c52 0 94 22 114 70h130c-24 -106 -127 -169 -245 -169c-163 0 -265 114 -265 274c0 158 100 276 260 276
c165 0 257 -108 257 -277zM176 318h254c-9 82 -52 124 -125 124c-72 0 -120 -45 -129 -124z" />
    <glyph glyph-name="emacron" unicode="&#x113;" horiz-adv-x="603" 
d="M129 584v92h328v-92h-328zM560 262v-26h-386c1 -82 52 -148 135 -148c52 0 94 22 114 70h130c-24 -106 -127 -169 -245 -169c-163 0 -265 114 -265 274c0 158 100 276 260 276c165 0 257 -108 257 -277zM176 318h254c-9 82 -52 124 -125 124c-72 0 -120 -45 -129 -124z
" />
    <glyph glyph-name="gdotaccent" unicode="&#x121;" horiz-adv-x="629" 
d="M230 643c0 36 28 64 66 64c37 0 65 -28 65 -64s-28 -64 -65 -64c-38 0 -66 28 -66 64zM306 -92c80 0 129 43 129 135v74c-34 -53 -94 -87 -166 -87c-135 0 -226 103 -226 255c0 151 92 254 227 254c70 0 132 -32 167 -86l9 75h118v-475c0 -163 -105 -244 -262 -244
c-133 0 -232 73 -244 176h129c9 -47 54 -77 119 -77zM440 284c0 93 -53 155 -134 155c-80 0 -133 -62 -133 -155c0 -94 53 -156 133 -156c81 0 134 63 134 156z" />
    <glyph glyph-name="gbreve" unicode="&#x11f;" horiz-adv-x="629" 
d="M449 731c0 -89 -64 -154 -153 -154s-155 65 -155 154h79c0 -45 32 -80 76 -80c43 0 75 35 75 80h78zM306 -92c80 0 129 43 129 135v74c-34 -53 -94 -87 -166 -87c-135 0 -226 103 -226 255c0 151 92 254 227 254c70 0 132 -32 167 -86l9 75h118v-475
c0 -163 -105 -244 -262 -244c-133 0 -232 73 -244 176h129c9 -47 54 -77 119 -77zM440 284c0 93 -53 155 -134 155c-80 0 -133 -62 -133 -155c0 -94 53 -156 133 -156c81 0 134 63 134 156z" />
    <glyph glyph-name="uni0137" unicode="&#x137;" horiz-adv-x="568" 
d="M331 298l223 -298h-153l-163 219l-41 -41v-178h-130v730h130v-418l199 216h150zM227 -70h126l-66 -152h-92z" />
    <glyph glyph-name="ncaron" unicode="&#x148;" horiz-adv-x="594" 
d="M243 584l-124 144h105l67 -86l67 86h105l-124 -144h-96zM356 539c109 0 176 -71 176 -188v-351h-130v319c0 73 -36 113 -99 113c-69 0 -109 -49 -109 -135v-297h-129v528h117l10 -75c37 56 92 86 164 86z" />
    <glyph glyph-name="uni0146" unicode="&#x146;" horiz-adv-x="594" 
d="M356 539c109 0 176 -71 176 -188v-351h-130v319c0 73 -36 113 -99 113c-69 0 -109 -49 -109 -135v-297h-129v528h117l10 -75c37 56 92 86 164 86zM248 -70h126l-66 -152h-92z" />
    <glyph glyph-name="nacute" unicode="&#x144;" horiz-adv-x="594" 
d="M310 738h118l-97 -154h-87zM356 539c109 0 176 -71 176 -188v-351h-130v319c0 73 -36 113 -99 113c-69 0 -109 -49 -109 -135v-297h-129v528h117l10 -75c37 56 92 86 164 86z" />
    <glyph glyph-name="racute" unicode="&#x155;" horiz-adv-x="383" 
d="M205 738h118l-97 -154h-87zM345 533v-116c-10 3 -23 5 -39 5c-78 0 -123 -56 -123 -153v-269h-130v528h118l10 -76c22 52 70 86 122 86c16 0 30 -2 42 -5z" />
    <glyph glyph-name="uni0157" unicode="&#x157;" horiz-adv-x="342" 
d="M317 533v-116c-10 3 -23 5 -39 5c-78 0 -123 -56 -123 -153v-269h-130v528h118l10 -76c22 52 70 86 122 86c16 0 30 -2 42 -5zM16 -70h126l-66 -152h-92z" />
    <glyph glyph-name="rcaron" unicode="&#x159;" horiz-adv-x="383" 
d="M137 584l-124 144h105l67 -86l67 86h105l-124 -144h-96zM345 533v-116c-10 3 -23 5 -39 5c-78 0 -123 -56 -123 -153v-269h-130v528h118l10 -76c22 52 70 86 122 86c16 0 30 -2 42 -5z" />
    <glyph glyph-name="sacute" unicode="&#x15b;" horiz-adv-x="536" 
d="M277 738h118l-97 -154h-87zM178 384c0 -31 25 -48 97 -63l35 -7c130 -27 182 -71 182 -151c0 -108 -85 -174 -222 -174c-134 0 -222 66 -231 170h127c2 -43 46 -74 108 -74c53 0 89 28 89 65c0 33 -24 49 -102 66l-33 6c-121 26 -175 73 -175 152c0 98 84 165 209 165
s208 -62 215 -159h-120c-5 40 -42 65 -95 65c-50 0 -84 -25 -84 -61z" />
    <glyph glyph-name="scircumflex" unicode="&#x15d;" horiz-adv-x="536" 
d="M85 574l124 144h96l124 -144h-105l-67 86l-67 -86h-105zM178 384c0 -31 25 -48 97 -63l35 -7c130 -27 182 -71 182 -151c0 -108 -85 -174 -222 -174c-134 0 -222 66 -231 170h127c2 -43 46 -74 108 -74c53 0 89 28 89 65c0 33 -24 49 -102 66l-33 6
c-121 26 -175 73 -175 152c0 98 84 165 209 165s208 -62 215 -159h-120c-5 40 -42 65 -95 65c-50 0 -84 -25 -84 -61z" />
    <glyph glyph-name="scedilla" unicode="&#x15f;" horiz-adv-x="536" 
d="M178 384c0 -31 25 -48 97 -63l35 -7c130 -27 182 -71 182 -151c0 -102 -76 -167 -201 -173l-7 -46c67 1 100 -36 100 -83c0 -57 -47 -91 -132 -91c-20 0 -40 2 -56 7v63c15 -4 32 -6 49 -6c39 0 59 9 59 27s-20 27 -57 27c-12 0 -22 -1 -32 -3v46l9 61
c-108 13 -177 75 -185 167h127c2 -43 46 -74 108 -74c53 0 89 28 89 65c0 33 -24 49 -102 66l-33 6c-121 26 -175 73 -175 152c0 98 84 165 209 165s208 -62 215 -159h-120c-5 40 -42 65 -95 65c-50 0 -84 -25 -84 -61z" />
    <glyph glyph-name="omacron" unicode="&#x14d;" horiz-adv-x="620" 
d="M138 584v92h328v-92h-328zM311 539c158 0 266 -112 266 -275s-108 -275 -266 -275c-159 0 -268 112 -268 275s109 275 268 275zM310 92c83 0 136 67 136 172s-53 172 -136 172s-137 -67 -137 -172s54 -172 137 -172z" />
    <glyph glyph-name="obreve" unicode="&#x14f;" horiz-adv-x="620" 
d="M456 731c0 -89 -64 -154 -153 -154s-155 65 -155 154h79c0 -45 32 -80 76 -80c43 0 75 35 75 80h78zM311 539c158 0 266 -112 266 -275s-108 -275 -266 -275c-159 0 -268 112 -268 275s109 275 268 275zM310 92c83 0 136 67 136 172s-53 172 -136 172s-137 -67 -137 -172
s54 -172 137 -172z" />
    <glyph glyph-name="ohungarumlaut" unicode="&#x151;" horiz-adv-x="620" 
d="M393 738h115l-79 -154h-93zM211 738h112l-58 -154h-88zM311 539c158 0 266 -112 266 -275s-108 -275 -266 -275c-159 0 -268 112 -268 275s109 275 268 275zM310 92c83 0 136 67 136 172s-53 172 -136 172s-137 -67 -137 -172s54 -172 137 -172z" />
    <glyph glyph-name="scaron" unicode="&#x161;" horiz-adv-x="536" 
d="M210 584l-124 144h105l67 -86l67 86h105l-124 -144h-96zM178 384c0 -31 25 -48 97 -63l35 -7c130 -27 182 -71 182 -151c0 -108 -85 -174 -222 -174c-134 0 -222 66 -231 170h127c2 -43 46 -74 108 -74c53 0 89 28 89 65c0 33 -24 49 -102 66l-33 6
c-121 26 -175 73 -175 152c0 98 84 165 209 165s208 -62 215 -159h-120c-5 40 -42 65 -95 65c-50 0 -84 -25 -84 -61z" />
    <glyph glyph-name="utilde" unicode="&#x169;" horiz-adv-x="594" 
d="M124 584c0 66 32 106 91 106c66 0 85 -51 117 -51c16 0 29 14 28 38h71c1 -67 -31 -106 -90 -106c-68 0 -87 51 -118 51c-17 0 -30 -13 -28 -38h-71zM227 -11c-108 0 -175 71 -175 188v351h130v-318c0 -73 36 -113 99 -113c69 0 109 49 109 135v296h129v-528h-117l-10 75
c-37 -56 -93 -86 -165 -86z" />
    <glyph glyph-name="umacron" unicode="&#x16b;" horiz-adv-x="594" 
d="M113 584v92h328v-92h-328zM227 -11c-108 0 -175 71 -175 188v351h130v-318c0 -73 36 -113 99 -113c69 0 109 49 109 135v296h129v-528h-117l-10 75c-37 -56 -93 -86 -165 -86z" />
    <glyph glyph-name="ubreve" unicode="&#x16d;" horiz-adv-x="594" 
d="M431 731c0 -89 -64 -154 -153 -154s-155 65 -155 154h79c0 -45 32 -80 76 -80c43 0 75 35 75 80h78zM227 -11c-108 0 -175 71 -175 188v351h130v-318c0 -73 36 -113 99 -113c69 0 109 49 109 135v296h129v-528h-117l-10 75c-37 -56 -93 -86 -165 -86z" />
    <glyph glyph-name="uring" unicode="&#x16f;" horiz-adv-x="594" 
d="M192 667c0 51 39 90 93 90c53 0 93 -39 93 -90s-40 -91 -93 -91s-93 40 -93 91zM251 667c0 -20 15 -35 34 -35s34 16 34 35s-14 34 -34 34c-19 0 -34 -14 -34 -34zM227 -11c-108 0 -175 71 -175 188v351h130v-318c0 -73 36 -113 99 -113c69 0 109 49 109 135v296h129
v-528h-117l-10 75c-37 -56 -93 -86 -165 -86z" />
    <glyph glyph-name="uhungarumlaut" unicode="&#x171;" horiz-adv-x="594" 
d="M368 738h115l-79 -154h-93zM186 738h112l-58 -154h-88zM227 -11c-108 0 -175 71 -175 188v351h130v-318c0 -73 36 -113 99 -113c69 0 109 49 109 135v296h129v-528h-117l-10 75c-37 -56 -93 -86 -165 -86z" />
    <glyph glyph-name="uogonek" unicode="&#x173;" horiz-adv-x="594" 
d="M227 -11c-108 0 -175 71 -175 188v351h130v-318c0 -73 36 -113 99 -113c69 0 109 49 109 135v296h129v-528h-8c-34 -19 -63 -59 -63 -98c0 -47 43 -59 87 -54v-74c-13 -3 -27 -4 -42 -4c-72 0 -126 37 -126 102c0 56 38 104 84 128h-49l-10 75c-37 -56 -93 -86 -165 -86z
" />
    <glyph glyph-name="wcircumflex" unicode="&#x175;" horiz-adv-x="827" 
d="M236 574l124 144h96l124 -144h-105l-67 86l-67 -86h-105zM27 528h133l101 -374l106 374h97l106 -374l101 374h132l-161 -528h-127l-100 341l-99 -341h-127z" />
    <glyph glyph-name="ycircumflex" unicode="&#x177;" horiz-adv-x="568" 
d="M106 574l124 144h96l124 -144h-105l-67 86l-67 -86h-105zM409 528h137l-264 -708h-136l82 201l-202 507h137l128 -362z" />
    <glyph glyph-name="zacute" unicode="&#x17a;" horiz-adv-x="535" 
d="M271 738h118l-97 -154h-87zM215 105h262v-105h-435v65l261 358h-241v105h414v-65z" />
    <glyph glyph-name="zdotaccent" unicode="&#x17c;" horiz-adv-x="535" 
d="M185 643c0 36 28 64 66 64c37 0 65 -28 65 -64s-28 -64 -65 -64c-38 0 -66 28 -66 64zM215 105h262v-105h-435v65l261 358h-241v105h414v-65z" />
    <glyph glyph-name="zcaron" unicode="&#x17e;" horiz-adv-x="535" 
d="M204 584l-124 144h105l67 -86l67 86h105l-124 -144h-96zM215 105h262v-105h-435v65l261 358h-241v105h414v-65z" />
    <glyph glyph-name="uni0219" unicode="&#x219;" horiz-adv-x="536" 
d="M178 384c0 -31 25 -48 97 -63l35 -7c130 -27 182 -71 182 -151c0 -108 -85 -174 -222 -174c-134 0 -222 66 -231 170h127c2 -43 46 -74 108 -74c53 0 89 28 89 65c0 33 -24 49 -102 66l-33 6c-121 26 -175 73 -175 152c0 98 84 165 209 165s208 -62 215 -159h-120
c-5 40 -42 65 -95 65c-50 0 -84 -25 -84 -61zM191 -70h126l-66 -152h-92z" />
    <glyph glyph-name="wgrave" unicode="&#x1e81;" horiz-adv-x="827" 
d="M266 738h118l66 -154h-87zM27 528h133l101 -374l106 374h97l106 -374l101 374h132l-161 -528h-127l-100 341l-99 -341h-127z" />
    <glyph glyph-name="wacute" unicode="&#x1e83;" horiz-adv-x="827" 
d="M427 738h118l-97 -154h-87zM27 528h133l101 -374l106 374h97l106 -374l101 374h132l-161 -528h-127l-100 341l-99 -341h-127z" />
    <glyph glyph-name="wdieresis" unicode="&#x1e85;" horiz-adv-x="827" 
d="M242 648c0 39 31 69 71 69c41 0 71 -30 71 -69s-30 -69 -71 -69c-40 0 -71 30 -71 69zM447 648c0 39 30 69 71 69s71 -30 71 -69s-30 -69 -71 -69s-71 30 -71 69zM27 528h133l101 -374l106 374h97l106 -374l101 374h132l-161 -528h-127l-100 341l-99 -341h-127z" />
    <glyph glyph-name="agrave.alt" horiz-adv-x="638" 
d="M152 738h118l66 -154h-87zM565 0h-117l-10 81c-37 -59 -100 -92 -174 -92c-134 0 -227 111 -227 275c0 163 94 275 227 275c73 0 136 -33 172 -89l10 78h119v-528zM440 264c0 104 -54 172 -136 172c-81 0 -135 -68 -135 -172s54 -172 135 -172c82 0 136 68 136 172z" />
    <glyph glyph-name="aacute.alt" horiz-adv-x="638" 
d="M313 738h118l-97 -154h-87zM565 0h-117l-10 81c-37 -59 -100 -92 -174 -92c-134 0 -227 111 -227 275c0 163 94 275 227 275c73 0 136 -33 172 -89l10 78h119v-528zM440 264c0 104 -54 172 -136 172c-81 0 -135 -68 -135 -172s54 -172 135 -172c82 0 136 68 136 172z" />
    <glyph glyph-name="acircumflex.alt" horiz-adv-x="638" 
d="M121 574l124 144h96l124 -144h-105l-67 86l-67 -86h-105zM565 0h-117l-10 81c-37 -59 -100 -92 -174 -92c-134 0 -227 111 -227 275c0 163 94 275 227 275c73 0 136 -33 172 -89l10 78h119v-528zM440 264c0 104 -54 172 -136 172c-81 0 -135 -68 -135 -172
s54 -172 135 -172c82 0 136 68 136 172z" />
    <glyph glyph-name="atilde.alt" horiz-adv-x="638" 
d="M140 584c0 66 32 106 91 106c66 0 85 -51 117 -51c16 0 29 14 28 38h71c1 -67 -31 -106 -90 -106c-68 0 -87 51 -118 51c-17 0 -30 -13 -28 -38h-71zM565 0h-117l-10 81c-37 -59 -100 -92 -174 -92c-134 0 -227 111 -227 275c0 163 94 275 227 275c73 0 136 -33 172 -89
l10 78h119v-528zM440 264c0 104 -54 172 -136 172c-81 0 -135 -68 -135 -172s54 -172 135 -172c82 0 136 68 136 172z" />
    <glyph glyph-name="adieresis.alt" horiz-adv-x="638" 
d="M128 648c0 39 31 69 71 69c41 0 71 -30 71 -69s-30 -69 -71 -69c-40 0 -71 30 -71 69zM333 648c0 39 30 69 71 69s71 -30 71 -69s-30 -69 -71 -69s-71 30 -71 69zM565 0h-117l-10 81c-37 -59 -100 -92 -174 -92c-134 0 -227 111 -227 275c0 163 94 275 227 275
c73 0 136 -33 172 -89l10 78h119v-528zM440 264c0 104 -54 172 -136 172c-81 0 -135 -68 -135 -172s54 -172 135 -172c82 0 136 68 136 172z" />
    <glyph glyph-name="aring.alt" horiz-adv-x="638" 
d="M208 667c0 51 39 90 93 90c53 0 93 -39 93 -90s-40 -91 -93 -91s-93 40 -93 91zM267 667c0 -20 15 -35 34 -35s34 16 34 35s-14 34 -34 34c-19 0 -34 -14 -34 -34zM565 0h-117l-10 81c-37 -59 -100 -92 -174 -92c-134 0 -227 111 -227 275c0 163 94 275 227 275
c73 0 136 -33 172 -89l10 78h119v-528zM440 264c0 104 -54 172 -136 172c-81 0 -135 -68 -135 -172s54 -172 135 -172c82 0 136 68 136 172z" />
    <glyph glyph-name="amacron.alt" horiz-adv-x="638" 
d="M129 584v92h328v-92h-328zM565 0h-117l-10 81c-37 -59 -100 -92 -174 -92c-134 0 -227 111 -227 275c0 163 94 275 227 275c73 0 136 -33 172 -89l10 78h119v-528zM440 264c0 104 -54 172 -136 172c-81 0 -135 -68 -135 -172s54 -172 135 -172c82 0 136 68 136 172z" />
    <glyph glyph-name="abreve.alt" horiz-adv-x="638" 
d="M447 731c0 -89 -64 -154 -153 -154s-155 65 -155 154h79c0 -45 32 -80 76 -80c43 0 75 35 75 80h78zM565 0h-117l-10 81c-37 -59 -100 -92 -174 -92c-134 0 -227 111 -227 275c0 163 94 275 227 275c73 0 136 -33 172 -89l10 78h119v-528zM440 264
c0 104 -54 172 -136 172c-81 0 -135 -68 -135 -172s54 -172 135 -172c82 0 136 68 136 172z" />
    <glyph glyph-name="aogonek.alt" horiz-adv-x="638" 
d="M565 0h-5c-34 -19 -63 -59 -63 -98c0 -47 43 -59 87 -54v-74c-13 -3 -27 -4 -42 -4c-72 0 -126 37 -126 102c0 56 38 104 84 128h-52l-10 81c-37 -59 -100 -92 -174 -92c-134 0 -227 111 -227 275c0 163 94 275 227 275c73 0 136 -33 172 -89l10 78h119v-528zM440 264
c0 104 -54 172 -136 172c-81 0 -135 -68 -135 -172s54 -172 135 -172c82 0 136 68 136 172z" />
    <glyph glyph-name="yacute.alt" horiz-adv-x="556" 
d="M292 738h118l-97 -154h-87zM396 528h138l-214 -588c-36 -99 -88 -126 -217 -126v105c55 0 79 19 105 88l12 32l-194 489h139l119 -363z" />
    <glyph glyph-name="ydieresis.alt" horiz-adv-x="556" 
d="M107 648c0 39 31 69 71 69c41 0 71 -30 71 -69s-30 -69 -71 -69c-40 0 -71 30 -71 69zM312 648c0 39 30 69 71 69s71 -30 71 -69s-30 -69 -71 -69s-71 30 -71 69zM396 528h138l-214 -588c-36 -99 -88 -126 -217 -126v105c55 0 79 19 105 88l12 32l-194 489h139l119 -363z
" />
    <glyph glyph-name="ycircumflex.alt" horiz-adv-x="556" 
d="M100 574l124 144h96l124 -144h-105l-67 86l-67 -86h-105zM396 528h138l-214 -588c-36 -99 -88 -126 -217 -126v105c55 0 79 19 105 88l12 32l-194 489h139l119 -363z" />
    <glyph glyph-name="hbar" unicode="&#x127;" horiz-adv-x="614" 
d="M377 539c109 0 175 -72 175 -188v-351h-129v318c0 74 -36 113 -99 113c-69 0 -109 -49 -109 -134v-297h-130v586h-56v84h56v60h130v-60h96v-84h-96v-133c34 55 91 86 162 86z" />
    <glyph glyph-name="uni0123" unicode="&#x123;" horiz-adv-x="631" 
d="M356 584h-126l67 152h92zM308 -92c80 0 129 43 129 135v74c-34 -53 -94 -87 -166 -87c-135 0 -226 103 -226 255c0 151 92 254 227 254c70 0 132 -32 167 -86l9 75h118v-475c0 -163 -105 -244 -262 -244c-133 0 -232 73 -244 176h129c9 -47 54 -77 119 -77zM442 284
c0 93 -53 155 -134 155c-80 0 -133 -62 -133 -155c0 -94 53 -156 133 -156c81 0 134 63 134 156z" />
    <glyph glyph-name="jcircumflex" unicode="&#x135;" horiz-adv-x="272" 
d="M-32 574l124 144h96l124 -144h-105l-67 86l-67 -86h-105zM78 528h129v-533c0 -120 -65 -175 -205 -175v100c49 0 76 26 76 74v534z" />
    <glyph glyph-name="ograve" unicode="&#xf2;" horiz-adv-x="620" 
d="M166 738h118l66 -154h-87zM311 539c158 0 266 -112 266 -275s-108 -275 -266 -275c-159 0 -268 112 -268 275s109 275 268 275zM310 92c83 0 136 67 136 172s-53 172 -136 172s-137 -67 -137 -172s54 -172 137 -172z" />
    <glyph glyph-name="oacute" unicode="&#xf3;" horiz-adv-x="620" 
d="M328 738h118l-97 -154h-87zM311 539c158 0 266 -112 266 -275s-108 -275 -266 -275c-159 0 -268 112 -268 275s109 275 268 275zM310 92c83 0 136 67 136 172s-53 172 -136 172s-137 -67 -137 -172s54 -172 137 -172z" />
    <glyph glyph-name="ocircumflex" unicode="&#xf4;" horiz-adv-x="620" 
d="M136 574l124 144h96l124 -144h-105l-67 86l-67 -86h-105zM311 539c158 0 266 -112 266 -275s-108 -275 -266 -275c-159 0 -268 112 -268 275s109 275 268 275zM310 92c83 0 136 67 136 172s-53 172 -136 172s-137 -67 -137 -172s54 -172 137 -172z" />
    <glyph glyph-name="otilde" unicode="&#xf5;" horiz-adv-x="620" 
d="M155 584c0 66 32 106 91 106c66 0 85 -51 117 -51c16 0 29 14 28 38h71c1 -67 -31 -106 -90 -106c-68 0 -87 51 -118 51c-17 0 -30 -13 -28 -38h-71zM311 539c158 0 266 -112 266 -275s-108 -275 -266 -275c-159 0 -268 112 -268 275s109 275 268 275zM310 92
c83 0 136 67 136 172s-53 172 -136 172s-137 -67 -137 -172s54 -172 137 -172z" />
    <glyph glyph-name="odieresis" unicode="&#xf6;" horiz-adv-x="620" 
d="M135 648c0 39 31 69 71 69c41 0 71 -30 71 -69s-30 -69 -71 -69c-40 0 -71 30 -71 69zM340 648c0 39 30 69 71 69s71 -30 71 -69s-30 -69 -71 -69s-71 30 -71 69zM311 539c158 0 266 -112 266 -275s-108 -275 -266 -275c-159 0 -268 112 -268 275s109 275 268 275z
M310 92c83 0 136 67 136 172s-53 172 -136 172s-137 -67 -137 -172s54 -172 137 -172z" />
    <glyph glyph-name="ohungarumlaut.smcp" horiz-adv-x="673" 
d="M410 741h101l-63 -125h-85zM255 741h99l-47 -125h-80zM336 569c170 0 285 -116 285 -289s-115 -289 -285 -289s-284 116 -284 289s114 289 284 289zM336 96c92 0 151 72 151 184s-59 184 -151 184s-150 -72 -150 -184s58 -184 150 -184z" />
    </font>
</defs>
</svg>
